<svg version="1.2" xmlns="http://www.w3.org/2000/svg" viewBox="0 0 1470 158" width="1470" height="158">
	<title>New Project</title>
	<style>
		.s0 { fill: #1b1a19 } 
	</style>
	<path id="КОНТИНЕНТ  ПЕЧАТИ" class="s0" aria-label="КОНТИНЕНТ  ПЕЧАТИ"  d="m27.8 95v61h-26.5v-61-14.8-2.6-14.8-61h26.5v61h4.8v-61h26.6v68.3q0 3-4 5.3-3.6 2.2-9.1 2.2h-18.3v2.6h18.3q5.5 0 9.1 2.2 4 2.2 4 5.3v68.3h-26.6v-61zm99.3 61h-31.7q-5.5 0-9.5-2-3.6-2.2-3.6-5.3v-139.7q0-3.1 3.6-5 4-2.2 9.5-2.2h31.7q5.6 0 9.2 2.2 3.9 1.9 3.9 5v139.7q0 3.1-3.9 5.3-3.6 2-9.2 2zm-18.2-139.5v124.7h4.8v-124.7zm81 69.9v69.6h-26.5v-69.6-14.8-69.8h26.5v69.8h4.8v-69.8h26.6v69.8 14.8 69.6h-26.6v-69.6zm112.4 69.6h-26.5v-139.5h-4.8v61.1h-26.6v-75.8h89.3v75.8h-26.6v-61.1h-4.8zm54.6-154.2v154.2h44.4q5.5 0 9.5-2.2 4-2.2 4-5.3v-132h4.7v139.5h26.6v-154.2h-44.8q-5.6 0-9.1 2.2-4 2-4 5v132.3h-4.8v-139.5zm139 84.6v69.6h-26.5v-69.6-14.8-69.8h26.5v69.8h4.8v-69.8h26.6v69.8 14.8 69.6h-26.6v-69.6zm112.4 69.6h-57.9v-154.2h57.9v67h-26.6v-52.3h-4.7v54.9h31.3v14.8h-31.3v55.1h4.7v-52.3h26.6zm49.8-69.6v69.6h-26.6v-69.6-14.8-69.8h26.6v69.8h4.7v-69.8h26.6v69.8 14.8 69.6h-26.6v-69.6zm112.5 69.6h-26.6v-139.4h-4.8v61h-26.5v-75.8h89.2v75.8h-26.6v-61h-4.7zm230.4 0h-26.6v-139.5h-4.8v139.5h-26.6v-154.3h58zm81.1 0h-58v-154.2h58v67h-26.6v-52.3h-4.8v54.9h31.4v14.8h-31.4v55h4.8v-52.2h26.6zm81 0h-26.5v-52.2h-18.3q-5.5 0-9.5-2.2-3.6-2.2-3.6-5.3v-94.5h26.6v87.2h4.8v-87.2h26.5zm36.3-154.3h31.8q5.5 0 9.1 2.2 3.9 2.2 3.9 5.3v62.4 14.8 69.6h-26.5v-69.6h-4.8v69.6h-26.6v-69.6-14.8-62.4q0-3.1 3.6-5.3 4-2.2 9.5-2.2zm13.5 69.9h4.8v-55.1h-4.8zm112.4 84.4h-26.5v-139.5h-4.8v61.1h-26.6v-75.8h89.3v75.8h-26.6v-61.1h-4.8zm54.6-154.2v154.2h44.4q5.5 0 9.5-2.2 4-2.2 4-5.3v-132h4.7v139.5h26.6v-154.2h-44.8q-5.6 0-9.1 2.2-4 2-4 5v132.3h-4.8v-139.5z"/>
</svg>