<svg version="1.2" xmlns="http://www.w3.org/2000/svg" viewBox="0 0 1920 39" width="1920" height="39">
	<title>New Project</title>
	<style>
		.s0 { fill: #000000 } 
	</style>
	<path id="Shape 3 copy 3" class="s0" d="m959.5 32c-6.9 0-12.5-5.6-12.5-12.5 0-6.9 5.6-12.5 12.5-12.5 6.9 0 12.5 5.6 12.5 12.5 0 6.9-5.6 12.5-12.5 12.5z"/>
	<path id="Shape 3 copy" class="s0" d="m918.5 29c-5.3 0-9.5-4.2-9.5-9.5 0-5.3 4.2-9.5 9.5-9.5 5.3 0 9.5 4.2 9.5 9.5 0 5.3-4.2 9.5-9.5 9.5z"/>
	<path id="Shape 3 copy 2" class="s0" d="m1001.5 29c-5.3 0-9.5-4.2-9.5-9.5 0-5.3 4.2-9.5 9.5-9.5 5.3 0 9.5 4.2 9.5 9.5 0 5.3-4.2 9.5-9.5 9.5z"/>
	<path id="Shape 1" class="s0" d="m60 0h1800v5h-1800z"/>
	<path id="Shape 1 copy 2" class="s0" d="m60 34h1800v5h-1800z"/>
	<path id="Shape 2" class="s0" d="m18 15.9h901v6.2h-901z"/>
	<path id="Shape 3" class="s0" d="m-0.1 18.9l10.6-10.6 10.6 10.6-10.6 10.6z"/>
	<path id="Shape 3 copy 4" class="s0" d="m1898.9 18.9l10.6-10.6 10.6 10.6-10.6 10.6z"/>
	<path id="Shape 2 copy" class="s0" d="m1010 16h892v6h-892z"/>
</svg>