<svg version="1.2" xmlns="http://www.w3.org/2000/svg" viewBox="0 0 2308 39" width="2308" height="39">
	<title>fancy-line1-svg</title>
	<style>
		.s0 { fill: #000000 } 
	</style>
	<path id="Shape 3 copy 3" class="s0" d="m1153.5 32c-6.9 0-12.5-5.6-12.5-12.5 0-6.9 5.6-12.5 12.5-12.5 6.9 0 12.5 5.6 12.5 12.5 0 6.9-5.6 12.5-12.5 12.5z"/>
	<path id="Shape 3 copy" class="s0" d="m1112.5 29c-5.3 0-9.5-4.2-9.5-9.5 0-5.3 4.2-9.5 9.5-9.5 5.3 0 9.5 4.2 9.5 9.5 0 5.3-4.2 9.5-9.5 9.5z"/>
	<path id="Shape 3 copy 2" class="s0" d="m1195.5 29c-5.3 0-9.5-4.2-9.5-9.5 0-5.3 4.2-9.5 9.5-9.5 5.3 0 9.5 4.2 9.5 9.5 0 5.3-4.2 9.5-9.5 9.5z"/>
	<path id="Shape 1" class="s0" d="m21 0h2266v5h-2266z"/>
	<path id="Shape 1 copy 2" class="s0" d="m21 34h2266v5h-2266z"/>
	<path id="Shape 2" class="s0" d="m16 15.8h1097v6.4h-1097z"/>
	<path id="Shape 3" class="s0" d="m0 18.6l10.6-10.6 10.6 10.6-10.6 10.6z"/>
	<path id="Shape 3 copy 4" class="s0" d="m2286.8 18.6l10.6-10.6 10.6 10.6-10.6 10.6z"/>
	<path id="Shape 2 copy" class="s0" d="m1201 16.4h1089v5.2h-1089z"/>
</svg>