<?xml version="1.0" encoding="UTF-8" standalone="no" ?>
<!DOCTYPE svg PUBLIC "-//W3C//DTD SVG 1.1//EN" "http://www.w3.org/Graphics/SVG/1.1/DTD/svg11.dtd">
<svg xmlns="http://www.w3.org/2000/svg" xmlns:xlink="http://www.w3.org/1999/xlink" version="1.1" width="217" height="88" viewBox="0 0 217 88" xml:space="preserve">
<desc>Created with Fabric.js 5.3.0</desc>
<defs>
</defs>
<g transform="matrix(1 0 0 1 10.9022150885 18.8786760096)" id="2SIQt_gCZRwx54FEUJYhU"  >
<path style="stroke: none; stroke-width: 1; stroke-dasharray: none; stroke-linecap: butt; stroke-dashoffset: 0; stroke-linejoin: miter; stroke-miterlimit: 4; fill: rgb(92,123,181); fill-rule: evenodd; opacity: 1;"  transform=" translate(-10.4022151366, -18.378676131)" d="M 8.44329 1.75684 C 11.0193 1.45324 13.3745 3.31289 13.6781 5.8881 L 16.4924 29.7657 C 16.796 32.3409 14.9372 34.6969 12.3611 35.0005 C 9.78508 35.3041 7.42991 33.4453 7.12632 30.8693 L 4.31203 6.99248 C 4.00843 4.41643 5.86725 2.06044 8.44329 1.75684 Z" stroke-linecap="round" />
</g>
<g transform="matrix(1 0 0 1 23.9968483979 18.6598383361)" id="zkytmn795oWxTUjgMR-Kk"  >
<path style="stroke: none; stroke-width: 1; stroke-dasharray: none; stroke-linecap: butt; stroke-dashoffset: 0; stroke-linejoin: miter; stroke-miterlimit: 4; fill: rgb(220,89,65); fill-rule: evenodd; opacity: 1;"  transform=" translate(-23.496848446, -18.1598384575)" d="M 25.9501 0.0427689 C 28.5204 0.390212 30.3378 2.77764 29.9904 5.34789 L 26.3489 32.2375 C 26.0006 34.8078 23.6132 36.6252 21.0429 36.2769 C 18.4727 35.9295 16.6552 33.5421 17.0035 30.9718 L 20.6442 4.08221 C 20.9924 1.51196 23.3799 -0.305501 25.9501 0.0427689 Z" stroke-linecap="round" />
</g>
<g transform="matrix(1 0 0 1 12.8064322125 51.4275146602)" id="im6TN_ADc4QFnU-97SZv6"  >
<path style="stroke: none; stroke-width: 1; stroke-dasharray: none; stroke-linecap: butt; stroke-dashoffset: 0; stroke-linejoin: miter; stroke-miterlimit: 4; fill: rgb(116,183,204); fill-rule: evenodd; opacity: 1;"  transform=" translate(-12.3064322606, -50.9275147816)" d="M 24.5968 49.9116 C 24.8103 52.4967 22.8704 54.7857 20.2861 54.9992 L 5.10444 56.2541 C 2.5193 56.4684 0.230311 54.5285 0.0160544 51.9433 C -0.197375 49.359 1.74252 47.0692 4.32683 46.8558 L 19.5084 45.6008 C 22.0936 45.3874 24.3826 47.3273 24.5968 49.9116 Z" stroke-linecap="round" />
</g>
<g transform="matrix(1 0 0 1 31.4819295007 36.326282522)" id="QTDTNd5_08abnlTwBvk74"  >
<path style="stroke: none; stroke-width: 1; stroke-dasharray: none; stroke-linecap: butt; stroke-dashoffset: 0; stroke-linejoin: miter; stroke-miterlimit: 4; fill: rgb(216,133,61); fill-rule: evenodd; opacity: 1;"  transform=" translate(-30.9819295488, -35.8262826434)" d="M 34.7323 26.163 C 37.1503 27.1011 38.3605 29.8467 37.4225 32.2648 L 33.3334 42.7998 C 32.3953 45.2178 29.6497 46.4281 27.2316 45.49 C 24.8136 44.5519 23.6033 41.8062 24.5414 39.3882 L 28.6305 28.8524 C 29.5686 26.4344 32.3142 25.2241 34.7323 26.163 Z" stroke-linecap="round" />
</g>
<g transform="matrix(1 0 0 1 39.9213499519 41.5178039312)" id="-wIBBrngsGRJ4t40ImyWZ"  >
<path style="stroke: none; stroke-width: 1; stroke-dasharray: none; stroke-linecap: butt; stroke-dashoffset: 0; stroke-linejoin: miter; stroke-miterlimit: 4; fill: rgb(229,171,52); fill-rule: evenodd; opacity: 1;"  transform=" translate(-39.42135, -41.0178040526)" d="M 43.6912 34.1824 C 45.4011 35.2503 45.9264 37.5236 44.8584 39.2343 L 40.2035 46.6862 C 39.1355 48.3961 36.8623 48.9214 35.1523 47.8534 L 35.1515 47.8534 C 33.4416 46.7846 32.9163 44.5122 33.9843 42.8014 L 38.6392 35.3496 C 39.708 33.6389 41.9804 33.1144 43.6912 34.1824 Z" stroke-linecap="round" />
</g>
<g transform="matrix(1 0 0 1 22.9858181539 52.0819718476)" id="g9U_K6aiedPXnUcCEAuUa"  >
<path style="stroke: none; stroke-width: 1; stroke-dasharray: none; stroke-linecap: butt; stroke-dashoffset: 0; stroke-linejoin: miter; stroke-miterlimit: 4; fill: rgb(58,156,102); fill-rule: evenodd; opacity: 1;"  transform=" translate(-22.485818202, -51.581971969)" d="M 34.3781 49.0918 C 33.3176 48.4291 32.5822 47.4298 32.2248 46.3139 C 30.6249 47.3165 28.5874 47.5829 26.7029 46.8516 C 23.5379 45.6231 21.9512 42.0246 23.1797 38.8596 L 23.5768 37.8371 L 11.4196 36.195 C 8.9395 35.86 6.37918 38.2921 6.86973 40.7449 L 7.74827 45.1342 L 19.3909 44.1713 C 21.0181 44.0373 22.6221 44.5568 23.8671 45.6115 C 25.1138 46.6671 25.8906 48.1644 26.0254 49.7941 C 26.1603 51.4229 25.6399 53.0261 24.5844 54.2728 C 23.5288 55.5178 22.0323 56.2938 20.4035 56.4286 L 10.1779 57.274 L 11.2136 62.4501 C 11.705 64.9029 13.2685 67 15.7643 67 L 30.749 67 C 33.2415 67 34.752 64.8789 35.2997 62.4501 L 38.1628 49.7469 C 36.9037 50.0166 35.5445 49.8206 34.3781 49.0918 Z" stroke-linecap="round" />
</g>
<g transform="matrix(1 0 0 1 105.8389999519 57.9031498786)" id="N_L0pzD9Cqt8afQxdxeHb"  >
<path style="stroke: none; stroke-width: 1; stroke-dasharray: none; stroke-linecap: butt; stroke-dashoffset: 0; stroke-linejoin: miter; stroke-miterlimit: 4; fill: rgb(43,42,41); fill-rule: nonzero; opacity: 1;"  transform=" translate(-105.339, -57.40315)" d="M 157.678 64.1183 C 157.678 64.5825 157.512 64.971 157.179 65.282 C 156.848 65.6136 156.459 65.7794 156.016 65.7794 C 155.572 65.7794 155.185 65.6136 154.852 65.282 L 154.653 65.0152 L 154.487 64.7831 C 153.467 65.4478 152.281 65.7794 150.93 65.7794 C 149.09 65.7794 147.518 65.1257 146.21 63.8183 C 144.925 62.5331 144.259 60.9605 144.215 59.0989 L 144.215 50.7211 C 144.215 50.3232 144.371 49.9348 144.68 49.5574 C 145.058 49.248 145.445 49.0932 145.844 49.0932 C 146.266 49.0932 146.664 49.248 147.041 49.5574 C 147.352 49.9348 147.507 50.3232 147.507 50.7211 L 147.507 59.0326 C 147.507 59.9847 147.838 60.7931 148.503 61.4578 C 149.168 62.1447 149.978 62.4889 150.93 62.4889 C 151.884 62.4889 152.703 62.1447 153.39 61.4578 C 153.988 60.8594 154.321 60.1284 154.388 59.2647 L 154.388 50.7211 C 154.388 50.2775 154.554 49.8906 154.885 49.5574 C 155.196 49.248 155.583 49.0932 156.049 49.0932 C 156.448 49.0932 156.835 49.248 157.212 49.5574 C 157.523 49.9348 157.678 50.3232 157.678 50.7211 L 157.678 64.1183 Z M 142.187 64.1515 C 142.187 64.6157 142.022 65.0041 141.688 65.3152 C 141.357 65.6467 140.968 65.8125 140.526 65.8125 C 140.083 65.8125 139.694 65.6467 139.361 65.3152 C 139.052 65.0041 138.897 64.6157 138.897 64.1515 L 138.897 55.7737 C 138.897 54.8437 138.564 54.0464 137.899 53.38 C 137.19 52.739 136.393 52.4169 135.505 52.4169 C 134.62 52.4169 133.822 52.739 133.112 53.38 C 132.449 54.0464 132.115 54.8437 132.115 55.7737 L 132.115 64.1515 C 132.115 64.6157 131.961 65.0041 131.65 65.3152 C 131.318 65.6467 130.93 65.8125 130.487 65.8125 C 130.044 65.8125 129.655 65.6467 129.322 65.3152 C 128.991 65.0041 128.825 64.6157 128.825 64.1515 L 128.825 55.7737 C 128.825 54.8879 128.503 54.0906 127.86 53.38 C 127.151 52.739 126.354 52.4169 125.467 52.4169 C 124.581 52.4169 123.783 52.739 123.073 53.38 C 122.408 54.0464 122.077 54.8437 122.077 55.7737 L 122.077 64.1515 C 122.077 64.6157 121.922 65.0041 121.611 65.3152 C 121.279 65.6467 120.891 65.8125 120.447 65.8125 C 119.983 65.8125 119.594 65.6467 119.283 65.3152 C 118.952 65.0041 118.786 64.6157 118.786 64.1515 L 118.786 55.7737 C 118.786 53.9564 119.44 52.3948 120.747 51.0874 C 122.054 49.7801 123.629 49.1264 125.467 49.1264 C 127.529 49.1264 129.201 49.8906 130.487 51.419 C 131.795 49.8906 133.467 49.1264 135.505 49.1264 C 137.346 49.1264 138.919 49.7801 140.226 51.0874 C 141.534 52.3948 142.187 53.9564 142.187 55.7737 C 142.187 55.84 142.176 55.8858 142.154 55.9063 C 142.176 55.93 142.187 55.9853 142.187 56.0737 L 142.187 64.1515 Z M 105.057 61.0268 C 106.009 61.9789 107.217 62.4557 108.679 62.4557 C 110.077 62.4557 111.251 61.9789 112.204 61.0268 C 113.133 60.0952 113.599 58.9315 113.599 57.5358 C 113.599 56.1179 113.133 54.91 112.204 53.9121 C 111.251 52.8937 110.077 52.3837 108.679 52.3837 C 107.284 52.3837 106.076 52.8937 105.057 53.9121 C 104.037 54.9321 103.527 56.14 103.527 57.5358 C 103.527 58.9094 104.037 60.0731 105.057 61.0268 Z M 116.857 64.052 C 116.857 64.5383 116.702 64.9378 116.392 65.2473 C 116.081 65.5583 115.683 65.7131 115.196 65.7131 C 114.885 65.7131 114.542 65.5583 114.165 65.2473 C 113.789 64.8715 113.599 64.472 113.599 64.052 C 112.226 65.1588 110.587 65.7131 108.679 65.7131 C 106.331 65.7131 104.348 64.9378 102.73 63.3857 C 101.089 61.8131 100.27 59.8631 100.27 57.5358 C 100.27 55.2084 101.089 53.2253 102.73 51.5864 C 104.37 49.9459 106.354 49.1264 108.679 49.1264 C 111.007 49.1264 112.957 49.9459 114.531 51.5864 C 116.081 53.2032 116.857 55.1863 116.857 57.5358 L 116.857 64.052 Z M 89.0012 50.6217 C 89.0012 52.0174 89.5001 53.2143 90.4964 54.2121 C 91.4722 55.1863 92.6579 55.6742 94.0537 55.6742 C 94.8953 55.6742 95.5269 55.5637 95.9484 55.3426 L 95.9484 50.6217 C 95.9484 50.2222 96.1032 49.8354 96.4142 49.458 C 96.7916 49.1485 97.1784 48.9938 97.5779 48.9938 C 97.9758 48.9938 98.3642 49.1485 98.7416 49.458 C 99.0731 49.7911 99.2389 50.178 99.2389 50.6217 L 99.2389 64.0189 C 99.2389 64.4831 99.0731 64.8715 98.7416 65.181 C 98.4084 65.5141 98.0216 65.6799 97.5779 65.6799 C 97.1342 65.6799 96.7458 65.5141 96.4142 65.181 C 96.1032 64.8715 95.9484 64.4831 95.9484 64.0189 L 95.9484 58.4673 C 95.4605 58.7989 94.829 58.9647 94.0537 58.9647 C 91.7485 58.9647 89.7875 58.1563 88.1706 56.5395 C 86.5301 54.899 85.7107 52.9269 85.7107 50.6217 C 85.7107 50.178 85.8654 49.8022 86.1764 49.4911 C 86.508 49.1596 86.8964 48.9938 87.3385 48.9938 C 87.8043 48.9938 88.2038 49.1596 88.5354 49.4911 C 88.8022 49.758 88.9569 50.1338 89.0012 50.6217 Z M 80.857 55.7405 C 80.5239 54.6321 79.8813 53.7795 78.9292 53.1811 C 78.1097 52.6269 77.145 52.3506 76.0366 52.3506 C 74.9739 52.3506 73.9871 52.6711 73.0777 53.3137 C 72.214 53.9342 71.6045 54.7442 71.2508 55.7405 L 80.857 55.7405 Z M 71.2508 59.0326 C 71.6045 60.051 72.214 60.8721 73.0777 61.491 C 73.9871 62.1352 74.9739 62.4557 76.0366 62.4557 C 76.4581 62.4557 76.6792 62.4447 76.7013 62.4226 L 76.9681 62.3894 L 77.2334 62.3562 L 77.4323 62.3231 L 77.5997 62.2899 C 78.2865 62.1352 79.0065 61.8242 79.7597 61.3584 C 80.137 61.1152 80.546 61.0821 80.9897 61.2589 C 81.4554 61.4357 81.776 61.7247 81.9544 62.1226 C 82.3523 62.9436 82.087 63.6747 81.1555 64.3173 C 80.0486 64.9599 79.0728 65.3815 78.2313 65.5804 L 77.9976 65.6136 L 77.7323 65.6467 L 77.3992 65.6799 L 77.0345 65.7131 L 76.5355 65.7462 L 76.0366 65.7462 C 73.7313 65.7462 71.7592 64.9267 70.1203 63.2862 C 68.5019 61.6694 67.6935 59.7084 67.6935 57.4031 C 67.6935 55.0758 68.5019 53.1037 70.1203 51.4853 C 71.7371 49.8685 73.7108 49.0601 76.0366 49.0601 C 78.2755 49.0601 80.1702 49.769 81.7207 51.1869 C 83.4938 52.7832 84.3796 54.8548 84.3796 57.4031 C 84.3796 57.8026 84.2249 58.1895 83.9154 58.5668 C 83.5381 58.8763 83.1402 59.0326 82.7186 59.0326 L 71.2508 59.0326 Z M 63.173 55.84 C 63.173 54.8879 62.8399 54.0795 62.1752 53.4148 C 61.4883 52.7264 60.6689 52.3837 59.7152 52.3837 C 58.7631 52.3837 57.9531 52.7264 57.2884 53.4148 C 56.6236 54.0795 56.2921 54.8879 56.2921 55.84 L 56.2921 64.1515 C 56.2921 64.5494 56.1358 64.9378 55.8263 65.3152 C 55.4489 65.6246 55.0495 65.7794 54.6295 65.7794 C 54.23 65.7794 53.8431 65.6246 53.4658 65.3152 C 53.1563 64.9378 53 64.5494 53 64.1515 L 53 55.7737 C 53.0442 53.9121 53.7089 52.3395 54.9958 51.0543 C 56.3031 49.7469 57.8757 49.0932 59.7152 49.0932 C 61.5767 49.0932 63.162 49.7469 64.4693 51.0543 C 65.7546 52.3395 66.4193 53.9121 66.4635 55.7737 L 66.4635 64.1515 C 66.4635 64.5494 66.3088 64.9378 65.9977 65.3152 C 65.6204 65.6246 65.2335 65.7794 64.8341 65.7794 C 64.3683 65.7794 63.9814 65.6246 63.6704 65.3152 C 63.3388 64.982 63.173 64.5936 63.173 64.1515 L 63.173 55.84 Z" stroke-linecap="round" />
</g>
<g transform="matrix(1 0 0 1 135.2909999519 29.2179998786)" id="AMwtIUvV4GKQ7tFNQC36T"  >
<path style="stroke: none; stroke-width: 1; stroke-dasharray: none; stroke-linecap: butt; stroke-dashoffset: 0; stroke-linejoin: miter; stroke-miterlimit: 4; fill: rgb(43,42,41); fill-rule: nonzero; opacity: 1;"  transform=" translate(-134.791, -28.718)" d="M 216.582 38.7403 C 216.582 39.2061 216.414 39.5929 216.083 39.9039 C 215.75 40.2355 215.363 40.4029 214.919 40.4029 C 214.475 40.4029 214.089 40.2355 213.755 39.9039 C 213.446 39.5929 213.29 39.2061 213.29 38.7403 L 213.29 30.3641 C 213.29 29.4325 212.958 28.6351 212.293 27.9704 C 211.584 27.3278 210.785 27.0057 209.9 27.0057 C 209.014 27.0057 208.215 27.3278 207.506 27.9704 C 206.841 28.6351 206.51 29.4325 206.51 30.3641 L 206.51 38.7403 C 206.51 39.2061 206.353 39.5929 206.044 39.9039 C 205.711 40.2355 205.324 40.4029 204.88 40.4029 C 204.437 40.4029 204.05 40.2355 203.717 39.9039 C 203.385 39.5929 203.218 39.2061 203.218 38.7403 L 203.218 30.3641 C 203.218 29.4767 202.897 28.6793 202.255 27.9704 C 201.546 27.3278 200.747 27.0057 199.861 27.0057 C 198.975 27.0057 198.176 27.3278 197.467 27.9704 C 196.802 28.6351 196.469 29.4325 196.469 30.3641 L 196.469 38.7403 C 196.469 39.2061 196.315 39.5929 196.005 39.9039 C 195.672 40.2355 195.285 40.4029 194.841 40.4029 C 194.376 40.4029 193.989 40.2355 193.678 39.9039 C 193.346 39.5929 193.179 39.2061 193.179 38.7403 L 193.179 30.3641 C 193.179 28.5467 193.833 26.9836 195.14 25.6762 C 196.449 24.3689 198.021 23.7152 199.861 23.7152 C 201.921 23.7152 203.595 24.4794 204.88 26.0094 C 206.188 24.4794 207.861 23.7152 209.9 23.7152 C 211.739 23.7152 213.312 24.3689 214.621 25.6762 C 215.928 26.9836 216.582 28.5467 216.582 30.3641 C 216.582 30.4304 216.571 30.4746 216.549 30.4967 C 216.571 30.5188 216.582 30.5741 216.582 30.6625 L 216.582 38.7403 Z M 191.118 38.6076 C 191.118 39.0734 190.953 39.4603 190.619 39.7713 C 190.288 40.1029 189.899 40.2703 189.456 40.2703 C 189.014 40.2703 188.625 40.1029 188.292 39.7713 C 187.983 39.4603 187.828 39.0734 187.828 38.6076 L 187.828 33.5551 L 180.881 33.5551 L 180.881 38.6076 C 180.881 39.0734 180.713 39.4603 180.382 39.7713 C 180.048 40.1029 179.662 40.2703 179.218 40.2703 C 178.774 40.2703 178.387 40.1029 178.054 39.7713 C 177.745 39.4603 177.589 39.0734 177.589 38.6076 L 177.589 25.2104 C 177.589 24.8125 177.745 24.4241 178.054 24.0483 C 178.432 23.7373 178.819 23.5826 179.218 23.5826 C 179.617 23.5826 180.004 23.7373 180.382 24.0483 C 180.713 24.3799 180.881 24.7683 180.881 25.2104 L 180.881 30.2646 L 187.828 30.2646 L 187.828 25.2104 C 187.828 24.8125 187.983 24.4241 188.292 24.0483 C 188.669 23.7373 189.058 23.5826 189.456 23.5826 C 189.855 23.5826 190.244 23.7373 190.619 24.0483 C 190.953 24.3799 191.118 24.7683 191.118 25.2104 L 191.118 38.6076 Z M 172.735 30.3309 C 172.403 29.2225 171.761 28.3699 170.807 27.7715 C 169.988 27.2173 169.023 26.9394 167.916 26.9394 C 166.852 26.9394 165.865 27.2615 164.957 27.9041 C 164.093 28.5246 163.484 29.333 163.129 30.3309 L 172.735 30.3309 Z M 163.129 33.6214 C 163.484 34.6414 164.093 35.4608 164.957 36.0814 C 165.865 36.724 166.852 37.0445 167.916 37.0445 C 168.336 37.0445 168.559 37.035 168.581 37.0113 L 168.846 36.9782 L 169.113 36.945 L 169.312 36.9119 L 169.478 36.8787 C 170.164 36.724 170.884 36.4129 171.639 35.9487 C 172.015 35.704 172.425 35.6708 172.869 35.8493 C 173.333 36.0261 173.655 36.3135 173.832 36.7129 C 174.232 37.5324 173.966 38.2634 173.035 38.9061 C 171.926 39.5487 170.952 39.9703 170.109 40.1692 L 169.877 40.2024 L 169.612 40.2355 L 169.279 40.2703 L 168.912 40.3034 L 168.415 40.3366 L 167.916 40.3366 C 165.611 40.3366 163.639 39.5155 161.998 37.8766 C 160.381 36.2582 159.571 34.2972 159.571 31.9919 C 159.571 29.6662 160.381 27.6925 161.998 26.0757 C 163.617 24.4573 165.589 23.6489 167.916 23.6489 C 170.153 23.6489 172.048 24.3578 173.6 25.7757 C 175.373 27.372 176.259 29.4435 176.259 31.9919 C 176.259 32.3914 176.104 32.7798 175.793 33.1556 C 175.417 33.4666 175.018 33.6214 174.596 33.6214 L 163.129 33.6214 Z M 158.343 38.6076 C 158.343 39.0734 158.176 39.4603 157.844 39.7713 C 157.511 40.1029 157.124 40.2703 156.68 40.2703 C 156.237 40.2703 155.85 40.1029 155.517 39.7713 C 155.206 39.4603 155.051 39.0734 155.051 38.6076 L 155.051 33.5551 L 148.104 33.5551 L 148.104 38.6076 C 148.104 39.0734 147.938 39.4603 147.605 39.7713 C 147.273 40.1029 146.885 40.2703 146.441 40.2703 C 145.999 40.2703 145.61 40.1029 145.279 39.7713 C 144.968 39.4603 144.813 39.0734 144.813 38.6076 L 144.813 25.2104 C 144.813 24.8125 144.968 24.4241 145.279 24.0483 C 145.655 23.7373 146.043 23.5826 146.441 23.5826 C 146.84 23.5826 147.229 23.7373 147.605 24.0483 C 147.938 24.3799 148.104 24.7683 148.104 25.2104 L 148.104 30.2646 L 155.051 30.2646 L 155.051 25.2104 C 155.051 24.8125 155.206 24.4241 155.517 24.0483 C 155.894 23.7373 156.281 23.5826 156.68 23.5826 C 157.08 23.5826 157.467 23.7373 157.844 24.0483 C 158.176 24.3799 158.343 24.7683 158.343 25.2104 L 158.343 38.6076 Z M 142.618 38.7071 C 142.618 39.1729 142.453 39.5597 142.119 39.8708 C 141.788 40.2024 141.399 40.3697 140.957 40.3697 C 140.514 40.3697 140.125 40.2024 139.794 39.8708 L 139.593 39.6055 L 139.427 39.3718 C 138.409 40.0366 137.223 40.3697 135.872 40.3697 C 134.032 40.3697 132.458 39.7161 131.151 38.4087 C 129.865 37.1234 129.201 35.5493 129.156 33.6877 L 129.156 25.3115 C 129.156 24.912 129.311 24.5236 129.622 24.1478 C 129.998 23.8368 130.386 23.682 130.784 23.682 C 131.206 23.682 131.605 23.8368 131.981 24.1478 C 132.292 24.5236 132.447 24.912 132.447 25.3115 L 132.447 33.6214 C 132.447 34.5735 132.779 35.3835 133.445 36.0482 C 134.11 36.735 134.918 37.0792 135.872 37.0792 C 136.824 37.0792 137.643 36.735 138.33 36.0482 C 138.928 35.4498 139.262 34.7187 139.328 33.8535 L 139.328 25.3115 C 139.328 24.8678 139.494 24.4794 139.827 24.1478 C 140.136 23.8368 140.525 23.682 140.991 23.682 C 141.388 23.682 141.777 23.8368 142.153 24.1478 C 142.464 24.5236 142.618 24.912 142.618 25.3115 L 142.618 38.7071 Z M 127.129 38.7403 C 127.129 39.2061 126.962 39.5929 126.63 39.9039 C 126.297 40.2355 125.91 40.4029 125.466 40.4029 C 125.023 40.4029 124.636 40.2355 124.303 39.9039 C 123.992 39.5929 123.837 39.2061 123.837 38.7403 L 123.837 30.3641 C 123.837 29.4325 123.505 28.6351 122.841 27.9704 C 122.13 27.3278 121.333 27.0057 120.447 27.0057 C 119.56 27.0057 118.762 27.3278 118.053 27.9704 C 117.389 28.6351 117.056 29.4325 117.056 30.3641 L 117.056 38.7403 C 117.056 39.2061 116.901 39.5929 116.591 39.9039 C 116.258 40.2355 115.87 40.4029 115.428 40.4029 C 114.984 40.4029 114.597 40.2355 114.264 39.9039 C 113.931 39.5929 113.765 39.2061 113.765 38.7403 L 113.765 30.3641 C 113.765 29.4767 113.445 28.6793 112.802 27.9704 C 112.091 27.3278 111.294 27.0057 110.408 27.0057 C 109.521 27.0057 108.724 27.3278 108.015 27.9704 C 107.35 28.6351 107.017 29.4325 107.017 30.3641 L 107.017 38.7403 C 107.017 39.2061 106.862 39.5929 106.553 39.9039 C 106.219 40.2355 105.831 40.4029 105.389 40.4029 C 104.923 40.4029 104.535 40.2355 104.225 39.9039 C 103.892 39.5929 103.726 39.2061 103.726 38.7403 L 103.726 30.3641 C 103.726 28.5467 104.38 26.9836 105.687 25.6762 C 106.995 24.3689 108.569 23.7152 110.408 23.7152 C 112.469 23.7152 114.142 24.4794 115.428 26.0094 C 116.735 24.4794 118.409 23.7152 120.447 23.7152 C 122.287 23.7152 123.859 24.3689 125.167 25.6762 C 126.474 26.9836 127.129 28.5467 127.129 30.3641 C 127.129 30.4304 127.116 30.4746 127.094 30.4967 C 127.116 30.5188 127.129 30.5741 127.129 30.6625 L 127.129 38.7403 Z M 101.666 38.6076 C 101.666 39.0734 101.498 39.4603 101.167 39.7713 C 100.835 40.1029 100.447 40.2703 100.003 40.2703 C 99.5594 40.2703 99.1726 40.1029 98.8395 39.7713 C 98.53 39.4603 98.3737 39.0734 98.3737 38.6076 L 98.3737 33.5551 L 91.4264 33.5551 L 91.4264 38.6076 C 91.4264 39.0734 91.2606 39.4603 90.929 39.7713 C 90.5959 40.1029 90.2075 40.2703 89.7654 40.2703 C 89.3217 40.2703 88.9333 40.1029 88.6017 39.7713 C 88.2906 39.4603 88.1359 39.0734 88.1359 38.6076 L 88.1359 25.2104 C 88.1359 24.8125 88.2906 24.4241 88.6017 24.0483 C 88.9775 23.7373 89.3659 23.5826 89.7654 23.5826 C 90.1632 23.5826 90.5517 23.7373 90.929 24.0483 C 91.2606 24.3799 91.4264 24.7683 91.4264 25.2104 L 91.4264 30.2646 L 98.3737 30.2646 L 98.3737 25.2104 C 98.3737 24.8125 98.53 24.4241 98.8395 24.0483 C 99.2168 23.7373 99.6037 23.5826 100.003 23.5826 C 100.403 23.5826 100.789 23.7373 101.167 24.0483 C 101.498 24.3799 101.666 24.7683 101.666 25.2104 L 101.666 38.6076 Z M 81.3544 28.403 C 80.3139 27.4272 79.1171 26.9394 77.7655 26.9394 C 76.3681 26.9394 75.1824 27.4272 74.2082 28.403 C 73.2103 29.3993 72.7129 30.5962 72.7129 31.9919 C 72.7129 33.3672 73.2103 34.5514 74.2082 35.5493 C 75.1824 36.5471 76.3681 37.0445 77.7655 37.0445 C 79.1613 37.0445 80.3581 36.5471 81.3544 35.5493 C 82.3302 34.5072 82.8181 33.323 82.8181 31.9919 C 82.8181 30.6404 82.3302 29.4435 81.3544 28.403 Z M 83.6817 37.8766 C 82.0412 39.5155 80.0692 40.3366 77.7655 40.3366 C 75.4824 40.3366 73.5213 39.5155 71.8808 37.8766 C 70.2419 36.2361 69.4209 34.2751 69.4209 31.9919 C 69.4209 29.6883 70.2419 27.7162 71.8808 26.0757 C 73.4992 24.4573 75.4603 23.6489 77.7655 23.6489 C 80.0913 23.6489 82.0649 24.4573 83.6817 26.0757 C 85.3001 27.6925 86.1086 29.6662 86.1086 31.9919 C 86.1086 34.2972 85.3001 36.2582 83.6817 37.8766 Z M 58.3526 30.2298 L 56.2905 32.3914 L 56.2905 38.7734 C 56.2905 39.2392 56.1358 39.6261 55.8263 39.9371 C 55.4931 40.2703 55.0937 40.436 54.6295 40.436 C 54.1858 40.436 53.7974 40.2703 53.4658 39.9371 C 53.1547 39.6261 53 39.2392 53 38.7734 L 53 18.6626 C 53 18.241 53.1547 17.8431 53.4658 17.4658 C 53.8416 17.1563 54.23 17 54.6295 17 C 55.0494 17 55.4489 17.1563 55.8263 17.4658 C 56.1358 17.8431 56.2905 18.241 56.2905 18.6626 L 56.2905 27.6704 L 65.4988 17.8321 C 65.7641 17.4768 66.1193 17.2668 66.563 17.2005 C 67.0272 17.1342 67.4377 17.2447 67.793 17.5321 C 68.1467 17.7989 68.3582 18.1526 68.4246 18.5963 C 68.4909 19.0621 68.3803 19.471 68.0914 19.8263 L 60.6452 27.8378 L 68.1909 37.744 C 68.5019 38.0976 68.6346 38.4971 68.5903 38.9392 C 68.524 39.405 68.314 39.7824 67.9588 40.0697 C 67.6477 40.3145 67.3051 40.436 66.9277 40.436 C 66.4177 40.436 65.9977 40.2355 65.6646 39.8376 L 58.3526 30.2298 Z" stroke-linecap="round" />
</g>
</svg>