<svg width="217" height="88" viewBox="0 0 217 88" fill="none" xmlns="http://www.w3.org/2000/svg">
<path fill-rule="evenodd" clip-rule="evenodd" d="M8.44329 1.75684C11.0193 1.45324 13.3745 3.31289 13.6781 5.8881L16.4924 29.7657C16.796 32.3409 14.9372 34.6969 12.3611 35.0005C9.78508 35.3041 7.42991 33.4453 7.12632 30.8693L4.31203 6.99248C4.00843 4.41643 5.86725 2.06044 8.44329 1.75684Z" fill="#4D62A9"/>
<path fill-rule="evenodd" clip-rule="evenodd" d="M25.9501 0.0427689C28.5204 0.390212 30.3378 2.77764 29.9904 5.34789L26.3489 32.2375C26.0006 34.8078 23.6132 36.6252 21.0429 36.2769C18.4727 35.9295 16.6552 33.5421 17.0035 30.9718L20.6442 4.08221C20.9924 1.51196 23.3799 -0.305501 25.9501 0.0427689Z" fill="#E31E24"/>
<path fill-rule="evenodd" clip-rule="evenodd" d="M24.5968 49.9116C24.8103 52.4967 22.8704 54.7857 20.2861 54.9992L5.10444 56.2541C2.5193 56.4684 0.230311 54.5285 0.0160544 51.9433C-0.197375 49.359 1.74252 47.0692 4.32683 46.8558L19.5084 45.6008C22.0936 45.3874 24.3826 47.3273 24.5968 49.9116Z" fill="#7D8E28"/>
<path fill-rule="evenodd" clip-rule="evenodd" d="M34.7323 26.163C37.1503 27.1011 38.3605 29.8467 37.4225 32.2648L33.3334 42.7998C32.3953 45.2178 29.6497 46.4281 27.2316 45.49C24.8136 44.5519 23.6033 41.8062 24.5414 39.3882L28.6305 28.8524C29.5686 26.4344 32.3142 25.2241 34.7323 26.163Z" fill="#FFED00"/>
<path fill-rule="evenodd" clip-rule="evenodd" d="M43.6912 34.1824C45.4011 35.2503 45.9264 37.5236 44.8584 39.2343L40.2035 46.6862C39.1355 48.3961 36.8623 48.9214 35.1523 47.8534H35.1515C33.4416 46.7846 32.9163 44.5122 33.9843 42.8014L38.6392 35.3496C39.708 33.6389 41.9804 33.1144 43.6912 34.1824Z" fill="#2B2A29"/>
<path fill-rule="evenodd" clip-rule="evenodd" d="M34.3781 49.0918C33.3176 48.4291 32.5822 47.4298 32.2248 46.3139C30.6249 47.3165 28.5874 47.5829 26.7029 46.8516C23.5379 45.6231 21.9512 42.0246 23.1797 38.8596L23.5768 37.8371L11.4196 36.195C8.9395 35.86 6.37918 38.2921 6.86973 40.7449L7.74827 45.1342L19.3909 44.1713C21.0181 44.0373 22.6221 44.5568 23.8671 45.6115C25.1138 46.6671 25.8906 48.1644 26.0254 49.7941C26.1603 51.4229 25.6399 53.0261 24.5844 54.2728C23.5288 55.5178 22.0323 56.2938 20.4035 56.4286L10.1779 57.274L11.2136 62.4501C11.705 64.9029 13.2685 67 15.7643 67H30.749C33.2415 67 34.752 64.8789 35.2997 62.4501L38.1628 49.7469C36.9037 50.0166 35.5445 49.8206 34.3781 49.0918Z" fill="#728125"/>
<path d="M157.678 64.1183C157.678 64.5825 157.512 64.971 157.179 65.282C156.848 65.6136 156.459 65.7794 156.016 65.7794C155.572 65.7794 155.185 65.6136 154.852 65.282L154.653 65.0152L154.487 64.7831C153.467 65.4478 152.281 65.7794 150.93 65.7794C149.09 65.7794 147.518 65.1257 146.21 63.8183C144.925 62.5331 144.259 60.9605 144.215 59.0989V50.7211C144.215 50.3232 144.371 49.9348 144.68 49.5574C145.058 49.248 145.445 49.0932 145.844 49.0932C146.266 49.0932 146.664 49.248 147.041 49.5574C147.352 49.9348 147.507 50.3232 147.507 50.7211V59.0326C147.507 59.9847 147.838 60.7931 148.503 61.4578C149.168 62.1447 149.978 62.4889 150.93 62.4889C151.884 62.4889 152.703 62.1447 153.39 61.4578C153.988 60.8594 154.321 60.1284 154.388 59.2647V50.7211C154.388 50.2775 154.554 49.8906 154.885 49.5574C155.196 49.248 155.583 49.0932 156.049 49.0932C156.448 49.0932 156.835 49.248 157.212 49.5574C157.523 49.9348 157.678 50.3232 157.678 50.7211V64.1183ZM142.187 64.1515C142.187 64.6157 142.022 65.0041 141.688 65.3152C141.357 65.6467 140.968 65.8125 140.526 65.8125C140.083 65.8125 139.694 65.6467 139.361 65.3152C139.052 65.0041 138.897 64.6157 138.897 64.1515V55.7737C138.897 54.8437 138.564 54.0464 137.899 53.38C137.19 52.739 136.393 52.4169 135.505 52.4169C134.62 52.4169 133.822 52.739 133.112 53.38C132.449 54.0464 132.115 54.8437 132.115 55.7737V64.1515C132.115 64.6157 131.961 65.0041 131.65 65.3152C131.318 65.6467 130.93 65.8125 130.487 65.8125C130.044 65.8125 129.655 65.6467 129.322 65.3152C128.991 65.0041 128.825 64.6157 128.825 64.1515V55.7737C128.825 54.8879 128.503 54.0906 127.86 53.38C127.151 52.739 126.354 52.4169 125.467 52.4169C124.581 52.4169 123.783 52.739 123.073 53.38C122.408 54.0464 122.077 54.8437 122.077 55.7737V64.1515C122.077 64.6157 121.922 65.0041 121.611 65.3152C121.279 65.6467 120.891 65.8125 120.447 65.8125C119.983 65.8125 119.594 65.6467 119.283 65.3152C118.952 65.0041 118.786 64.6157 118.786 64.1515V55.7737C118.786 53.9564 119.44 52.3948 120.747 51.0874C122.054 49.7801 123.629 49.1264 125.467 49.1264C127.529 49.1264 129.201 49.8906 130.487 51.419C131.795 49.8906 133.467 49.1264 135.505 49.1264C137.346 49.1264 138.919 49.7801 140.226 51.0874C141.534 52.3948 142.187 53.9564 142.187 55.7737C142.187 55.84 142.176 55.8858 142.154 55.9063C142.176 55.93 142.187 55.9853 142.187 56.0737V64.1515ZM105.057 61.0268C106.009 61.9789 107.217 62.4557 108.679 62.4557C110.077 62.4557 111.251 61.9789 112.204 61.0268C113.133 60.0952 113.599 58.9315 113.599 57.5358C113.599 56.1179 113.133 54.91 112.204 53.9121C111.251 52.8937 110.077 52.3837 108.679 52.3837C107.284 52.3837 106.076 52.8937 105.057 53.9121C104.037 54.9321 103.527 56.14 103.527 57.5358C103.527 58.9094 104.037 60.0731 105.057 61.0268ZM116.857 64.052C116.857 64.5383 116.702 64.9378 116.392 65.2473C116.081 65.5583 115.683 65.7131 115.196 65.7131C114.885 65.7131 114.542 65.5583 114.165 65.2473C113.789 64.8715 113.599 64.472 113.599 64.052C112.226 65.1588 110.587 65.7131 108.679 65.7131C106.331 65.7131 104.348 64.9378 102.73 63.3857C101.089 61.8131 100.27 59.8631 100.27 57.5358C100.27 55.2084 101.089 53.2253 102.73 51.5864C104.37 49.9459 106.354 49.1264 108.679 49.1264C111.007 49.1264 112.957 49.9459 114.531 51.5864C116.081 53.2032 116.857 55.1863 116.857 57.5358V64.052ZM89.0012 50.6217C89.0012 52.0174 89.5001 53.2143 90.4964 54.2121C91.4722 55.1863 92.6579 55.6742 94.0537 55.6742C94.8953 55.6742 95.5269 55.5637 95.9484 55.3426V50.6217C95.9484 50.2222 96.1032 49.8354 96.4142 49.458C96.7916 49.1485 97.1784 48.9938 97.5779 48.9938C97.9758 48.9938 98.3642 49.1485 98.7416 49.458C99.0731 49.7911 99.2389 50.178 99.2389 50.6217V64.0189C99.2389 64.4831 99.0731 64.8715 98.7416 65.181C98.4084 65.5141 98.0216 65.6799 97.5779 65.6799C97.1342 65.6799 96.7458 65.5141 96.4142 65.181C96.1032 64.8715 95.9484 64.4831 95.9484 64.0189V58.4673C95.4605 58.7989 94.829 58.9647 94.0537 58.9647C91.7485 58.9647 89.7875 58.1563 88.1706 56.5395C86.5301 54.899 85.7107 52.9269 85.7107 50.6217C85.7107 50.178 85.8654 49.8022 86.1764 49.4911C86.508 49.1596 86.8964 48.9938 87.3385 48.9938C87.8043 48.9938 88.2038 49.1596 88.5354 49.4911C88.8022 49.758 88.9569 50.1338 89.0012 50.6217ZM80.857 55.7405C80.5239 54.6321 79.8813 53.7795 78.9292 53.1811C78.1097 52.6269 77.145 52.3506 76.0366 52.3506C74.9739 52.3506 73.9871 52.6711 73.0777 53.3137C72.214 53.9342 71.6045 54.7442 71.2508 55.7405H80.857ZM71.2508 59.0326C71.6045 60.051 72.214 60.8721 73.0777 61.491C73.9871 62.1352 74.9739 62.4557 76.0366 62.4557C76.4581 62.4557 76.6792 62.4447 76.7013 62.4226L76.9681 62.3894L77.2334 62.3562L77.4323 62.3231L77.5997 62.2899C78.2865 62.1352 79.0065 61.8242 79.7597 61.3584C80.137 61.1152 80.546 61.0821 80.9897 61.2589C81.4554 61.4357 81.776 61.7247 81.9544 62.1226C82.3523 62.9436 82.087 63.6747 81.1555 64.3173C80.0486 64.9599 79.0728 65.3815 78.2313 65.5804L77.9976 65.6136L77.7323 65.6467L77.3992 65.6799L77.0345 65.7131L76.5355 65.7462H76.0366C73.7313 65.7462 71.7592 64.9267 70.1203 63.2862C68.5019 61.6694 67.6935 59.7084 67.6935 57.4031C67.6935 55.0758 68.5019 53.1037 70.1203 51.4853C71.7371 49.8685 73.7108 49.0601 76.0366 49.0601C78.2755 49.0601 80.1702 49.769 81.7207 51.1869C83.4938 52.7832 84.3796 54.8548 84.3796 57.4031C84.3796 57.8026 84.2249 58.1895 83.9154 58.5668C83.5381 58.8763 83.1402 59.0326 82.7186 59.0326H71.2508ZM63.173 55.84C63.173 54.8879 62.8399 54.0795 62.1752 53.4148C61.4883 52.7264 60.6689 52.3837 59.7152 52.3837C58.7631 52.3837 57.9531 52.7264 57.2884 53.4148C56.6236 54.0795 56.2921 54.8879 56.2921 55.84V64.1515C56.2921 64.5494 56.1358 64.9378 55.8263 65.3152C55.4489 65.6246 55.0495 65.7794 54.6295 65.7794C54.23 65.7794 53.8431 65.6246 53.4658 65.3152C53.1563 64.9378 53 64.5494 53 64.1515V55.7737C53.0442 53.9121 53.7089 52.3395 54.9958 51.0543C56.3031 49.7469 57.8757 49.0932 59.7152 49.0932C61.5767 49.0932 63.162 49.7469 64.4693 51.0543C65.7546 52.3395 66.4193 53.9121 66.4635 55.7737V64.1515C66.4635 64.5494 66.3088 64.9378 65.9977 65.3152C65.6204 65.6246 65.2335 65.7794 64.8341 65.7794C64.3683 65.7794 63.9814 65.6246 63.6704 65.3152C63.3388 64.982 63.173 64.5936 63.173 64.1515V55.84Z" fill="#2B2A29"/>
<path d="M216.582 38.7403C216.582 39.2061 216.414 39.5929 216.083 39.9039C215.75 40.2355 215.363 40.4029 214.919 40.4029C214.475 40.4029 214.089 40.2355 213.755 39.9039C213.446 39.5929 213.29 39.2061 213.29 38.7403V30.3641C213.29 29.4325 212.958 28.6351 212.293 27.9704C211.584 27.3278 210.785 27.0057 209.9 27.0057C209.014 27.0057 208.215 27.3278 207.506 27.9704C206.841 28.6351 206.51 29.4325 206.51 30.3641V38.7403C206.51 39.2061 206.353 39.5929 206.044 39.9039C205.711 40.2355 205.324 40.4029 204.88 40.4029C204.437 40.4029 204.05 40.2355 203.717 39.9039C203.385 39.5929 203.218 39.2061 203.218 38.7403V30.3641C203.218 29.4767 202.897 28.6793 202.255 27.9704C201.546 27.3278 200.747 27.0057 199.861 27.0057C198.975 27.0057 198.176 27.3278 197.467 27.9704C196.802 28.6351 196.469 29.4325 196.469 30.3641V38.7403C196.469 39.2061 196.315 39.5929 196.005 39.9039C195.672 40.2355 195.285 40.4029 194.841 40.4029C194.376 40.4029 193.989 40.2355 193.678 39.9039C193.346 39.5929 193.179 39.2061 193.179 38.7403V30.3641C193.179 28.5467 193.833 26.9836 195.14 25.6762C196.449 24.3689 198.021 23.7152 199.861 23.7152C201.921 23.7152 203.595 24.4794 204.88 26.0094C206.188 24.4794 207.861 23.7152 209.9 23.7152C211.739 23.7152 213.312 24.3689 214.621 25.6762C215.928 26.9836 216.582 28.5467 216.582 30.3641C216.582 30.4304 216.571 30.4746 216.549 30.4967C216.571 30.5188 216.582 30.5741 216.582 30.6625V38.7403ZM191.118 38.6076C191.118 39.0734 190.953 39.4603 190.619 39.7713C190.288 40.1029 189.899 40.2703 189.456 40.2703C189.014 40.2703 188.625 40.1029 188.292 39.7713C187.983 39.4603 187.828 39.0734 187.828 38.6076V33.5551H180.881V38.6076C180.881 39.0734 180.713 39.4603 180.382 39.7713C180.048 40.1029 179.662 40.2703 179.218 40.2703C178.774 40.2703 178.387 40.1029 178.054 39.7713C177.745 39.4603 177.589 39.0734 177.589 38.6076V25.2104C177.589 24.8125 177.745 24.4241 178.054 24.0483C178.432 23.7373 178.819 23.5826 179.218 23.5826C179.617 23.5826 180.004 23.7373 180.382 24.0483C180.713 24.3799 180.881 24.7683 180.881 25.2104V30.2646H187.828V25.2104C187.828 24.8125 187.983 24.4241 188.292 24.0483C188.669 23.7373 189.058 23.5826 189.456 23.5826C189.855 23.5826 190.244 23.7373 190.619 24.0483C190.953 24.3799 191.118 24.7683 191.118 25.2104V38.6076ZM172.735 30.3309C172.403 29.2225 171.761 28.3699 170.807 27.7715C169.988 27.2173 169.023 26.9394 167.916 26.9394C166.852 26.9394 165.865 27.2615 164.957 27.9041C164.093 28.5246 163.484 29.333 163.129 30.3309H172.735ZM163.129 33.6214C163.484 34.6414 164.093 35.4608 164.957 36.0814C165.865 36.724 166.852 37.0445 167.916 37.0445C168.336 37.0445 168.559 37.035 168.581 37.0113L168.846 36.9782L169.113 36.945L169.312 36.9119L169.478 36.8787C170.164 36.724 170.884 36.4129 171.639 35.9487C172.015 35.704 172.425 35.6708 172.869 35.8493C173.333 36.0261 173.655 36.3135 173.832 36.7129C174.232 37.5324 173.966 38.2634 173.035 38.9061C171.926 39.5487 170.952 39.9703 170.109 40.1692L169.877 40.2024L169.612 40.2355L169.279 40.2703L168.912 40.3034L168.415 40.3366H167.916C165.611 40.3366 163.639 39.5155 161.998 37.8766C160.381 36.2582 159.571 34.2972 159.571 31.9919C159.571 29.6662 160.381 27.6925 161.998 26.0757C163.617 24.4573 165.589 23.6489 167.916 23.6489C170.153 23.6489 172.048 24.3578 173.6 25.7757C175.373 27.372 176.259 29.4435 176.259 31.9919C176.259 32.3914 176.104 32.7798 175.793 33.1556C175.417 33.4666 175.018 33.6214 174.596 33.6214H163.129ZM158.343 38.6076C158.343 39.0734 158.176 39.4603 157.844 39.7713C157.511 40.1029 157.124 40.2703 156.68 40.2703C156.237 40.2703 155.85 40.1029 155.517 39.7713C155.206 39.4603 155.051 39.0734 155.051 38.6076V33.5551H148.104V38.6076C148.104 39.0734 147.938 39.4603 147.605 39.7713C147.273 40.1029 146.885 40.2703 146.441 40.2703C145.999 40.2703 145.61 40.1029 145.279 39.7713C144.968 39.4603 144.813 39.0734 144.813 38.6076V25.2104C144.813 24.8125 144.968 24.4241 145.279 24.0483C145.655 23.7373 146.043 23.5826 146.441 23.5826C146.84 23.5826 147.229 23.7373 147.605 24.0483C147.938 24.3799 148.104 24.7683 148.104 25.2104V30.2646H155.051V25.2104C155.051 24.8125 155.206 24.4241 155.517 24.0483C155.894 23.7373 156.281 23.5826 156.68 23.5826C157.08 23.5826 157.467 23.7373 157.844 24.0483C158.176 24.3799 158.343 24.7683 158.343 25.2104V38.6076ZM142.618 38.7071C142.618 39.1729 142.453 39.5597 142.119 39.8708C141.788 40.2024 141.399 40.3697 140.957 40.3697C140.514 40.3697 140.125 40.2024 139.794 39.8708L139.593 39.6055L139.427 39.3718C138.409 40.0366 137.223 40.3697 135.872 40.3697C134.032 40.3697 132.458 39.7161 131.151 38.4087C129.865 37.1234 129.201 35.5493 129.156 33.6877V25.3115C129.156 24.912 129.311 24.5236 129.622 24.1478C129.998 23.8368 130.386 23.682 130.784 23.682C131.206 23.682 131.605 23.8368 131.981 24.1478C132.292 24.5236 132.447 24.912 132.447 25.3115V33.6214C132.447 34.5735 132.779 35.3835 133.445 36.0482C134.11 36.735 134.918 37.0792 135.872 37.0792C136.824 37.0792 137.643 36.735 138.33 36.0482C138.928 35.4498 139.262 34.7187 139.328 33.8535V25.3115C139.328 24.8678 139.494 24.4794 139.827 24.1478C140.136 23.8368 140.525 23.682 140.991 23.682C141.388 23.682 141.777 23.8368 142.153 24.1478C142.464 24.5236 142.618 24.912 142.618 25.3115V38.7071ZM127.129 38.7403C127.129 39.2061 126.962 39.5929 126.63 39.9039C126.297 40.2355 125.91 40.4029 125.466 40.4029C125.023 40.4029 124.636 40.2355 124.303 39.9039C123.992 39.5929 123.837 39.2061 123.837 38.7403V30.3641C123.837 29.4325 123.505 28.6351 122.841 27.9704C122.13 27.3278 121.333 27.0057 120.447 27.0057C119.56 27.0057 118.762 27.3278 118.053 27.9704C117.389 28.6351 117.056 29.4325 117.056 30.3641V38.7403C117.056 39.2061 116.901 39.5929 116.591 39.9039C116.258 40.2355 115.87 40.4029 115.428 40.4029C114.984 40.4029 114.597 40.2355 114.264 39.9039C113.931 39.5929 113.765 39.2061 113.765 38.7403V30.3641C113.765 29.4767 113.445 28.6793 112.802 27.9704C112.091 27.3278 111.294 27.0057 110.408 27.0057C109.521 27.0057 108.724 27.3278 108.015 27.9704C107.35 28.6351 107.017 29.4325 107.017 30.3641V38.7403C107.017 39.2061 106.862 39.5929 106.553 39.9039C106.219 40.2355 105.831 40.4029 105.389 40.4029C104.923 40.4029 104.535 40.2355 104.225 39.9039C103.892 39.5929 103.726 39.2061 103.726 38.7403V30.3641C103.726 28.5467 104.38 26.9836 105.687 25.6762C106.995 24.3689 108.569 23.7152 110.408 23.7152C112.469 23.7152 114.142 24.4794 115.428 26.0094C116.735 24.4794 118.409 23.7152 120.447 23.7152C122.287 23.7152 123.859 24.3689 125.167 25.6762C126.474 26.9836 127.129 28.5467 127.129 30.3641C127.129 30.4304 127.116 30.4746 127.094 30.4967C127.116 30.5188 127.129 30.5741 127.129 30.6625V38.7403ZM101.666 38.6076C101.666 39.0734 101.498 39.4603 101.167 39.7713C100.835 40.1029 100.447 40.2703 100.003 40.2703C99.5594 40.2703 99.1726 40.1029 98.8395 39.7713C98.53 39.4603 98.3737 39.0734 98.3737 38.6076V33.5551H91.4264V38.6076C91.4264 39.0734 91.2606 39.4603 90.929 39.7713C90.5959 40.1029 90.2075 40.2703 89.7654 40.2703C89.3217 40.2703 88.9333 40.1029 88.6017 39.7713C88.2906 39.4603 88.1359 39.0734 88.1359 38.6076V25.2104C88.1359 24.8125 88.2906 24.4241 88.6017 24.0483C88.9775 23.7373 89.3659 23.5826 89.7654 23.5826C90.1632 23.5826 90.5517 23.7373 90.929 24.0483C91.2606 24.3799 91.4264 24.7683 91.4264 25.2104V30.2646H98.3737V25.2104C98.3737 24.8125 98.53 24.4241 98.8395 24.0483C99.2168 23.7373 99.6037 23.5826 100.003 23.5826C100.403 23.5826 100.789 23.7373 101.167 24.0483C101.498 24.3799 101.666 24.7683 101.666 25.2104V38.6076ZM81.3544 28.403C80.3139 27.4272 79.1171 26.9394 77.7655 26.9394C76.3681 26.9394 75.1824 27.4272 74.2082 28.403C73.2103 29.3993 72.7129 30.5962 72.7129 31.9919C72.7129 33.3672 73.2103 34.5514 74.2082 35.5493C75.1824 36.5471 76.3681 37.0445 77.7655 37.0445C79.1613 37.0445 80.3581 36.5471 81.3544 35.5493C82.3302 34.5072 82.8181 33.323 82.8181 31.9919C82.8181 30.6404 82.3302 29.4435 81.3544 28.403ZM83.6817 37.8766C82.0412 39.5155 80.0692 40.3366 77.7655 40.3366C75.4824 40.3366 73.5213 39.5155 71.8808 37.8766C70.2419 36.2361 69.4209 34.2751 69.4209 31.9919C69.4209 29.6883 70.2419 27.7162 71.8808 26.0757C73.4992 24.4573 75.4603 23.6489 77.7655 23.6489C80.0913 23.6489 82.0649 24.4573 83.6817 26.0757C85.3001 27.6925 86.1086 29.6662 86.1086 31.9919C86.1086 34.2972 85.3001 36.2582 83.6817 37.8766ZM58.3526 30.2298L56.2905 32.3914V38.7734C56.2905 39.2392 56.1358 39.6261 55.8263 39.9371C55.4931 40.2703 55.0937 40.436 54.6295 40.436C54.1858 40.436 53.7974 40.2703 53.4658 39.9371C53.1547 39.6261 53 39.2392 53 38.7734V18.6626C53 18.241 53.1547 17.8431 53.4658 17.4658C53.8416 17.1563 54.23 17 54.6295 17C55.0494 17 55.4489 17.1563 55.8263 17.4658C56.1358 17.8431 56.2905 18.241 56.2905 18.6626V27.6704L65.4988 17.8321C65.7641 17.4768 66.1193 17.2668 66.563 17.2005C67.0272 17.1342 67.4377 17.2447 67.793 17.5321C68.1467 17.7989 68.3582 18.1526 68.4246 18.5963C68.4909 19.0621 68.3803 19.471 68.0914 19.8263L60.6452 27.8378L68.1909 37.744C68.5019 38.0976 68.6346 38.4971 68.5903 38.9392C68.524 39.405 68.314 39.7824 67.9588 40.0697C67.6477 40.3145 67.3051 40.436 66.9277 40.436C66.4177 40.436 65.9977 40.2355 65.6646 39.8376L58.3526 30.2298Z" fill="#2B2A29"/>
<path d="M215.856 78.3792H214.234C213.553 78.3792 213.117 78.5134 212.92 78.7795C212.724 79.0477 212.626 79.3586 212.626 79.7077C212.626 80.2165 212.772 80.587 213.062 80.8211C213.353 81.0532 213.864 81.1703 214.595 81.1703H215.856V78.3792ZM217 77.1956V85.6156H215.856V82.3391H215.192C214.806 82.3391 214.513 82.4008 214.313 82.5286C214.11 82.6542 213.822 83.0736 213.44 83.7825L212.44 85.6156H211.018L212.254 83.3525C212.63 82.6606 213.008 82.271 213.382 82.1816C212.728 82.0666 212.244 81.7686 211.927 81.2959C211.607 80.8212 211.448 80.2761 211.448 79.6566C211.448 78.8838 211.663 78.2792 212.089 77.847C212.517 77.4127 213.108 77.1956 213.864 77.1956H217ZM204.239 77.1956H205.385V83.5994L208.586 77.1956H209.824V85.6156H208.678V79.2138L205.477 85.6156H204.239V77.1956ZM196.917 77.1956H198.061V80.6998H201.26V77.1956H202.406V85.6156H201.26V81.8835H198.061V85.6156H196.917V77.1956ZM193.86 81.3981C193.441 81.6089 192.816 81.7877 191.985 81.9325C191.503 82.0155 191.167 82.1134 190.975 82.222C190.781 82.3306 190.633 82.4839 190.528 82.6819C190.422 82.8799 190.369 83.1098 190.369 83.3695C190.369 83.7698 190.491 84.0912 190.735 84.3318C190.979 84.5724 191.315 84.6916 191.745 84.6916C192.155 84.6916 192.526 84.583 192.86 84.3659C193.194 84.1508 193.447 83.8613 193.612 83.4994C193.779 83.1396 193.86 82.6116 193.86 81.9197V81.3981ZM193.948 84.5809C193.564 84.9875 193.165 85.2941 192.752 85.4985C192.336 85.7071 191.906 85.8093 191.461 85.8093C190.756 85.8093 190.194 85.5943 189.774 85.1578C189.353 84.7256 189.144 84.1423 189.144 83.4057C189.144 82.9203 189.242 82.4903 189.44 82.1134C189.637 81.7387 189.906 81.4428 190.248 81.232C190.591 81.0213 191.111 80.8659 191.806 80.7658C192.739 80.6296 193.426 80.4678 193.86 80.2783L193.869 79.9121C193.869 79.3352 193.769 78.9285 193.566 78.6943C193.282 78.3558 192.846 78.1855 192.257 78.1855C191.722 78.1855 191.326 78.2984 191.061 78.524C190.798 78.7476 190.603 79.1712 190.48 79.7907L189.334 79.58C189.497 78.6858 189.82 78.0365 190.309 77.6277C190.802 77.2211 191.503 77.0167 192.416 77.0167C193.125 77.0167 193.683 77.153 194.088 77.4255C194.491 77.6959 194.75 78.0344 194.854 78.4346C194.961 78.837 195.013 79.4203 195.013 80.191V82.0922C195.013 83.4228 195.038 84.2615 195.088 84.6064C195.136 84.9513 195.234 85.2877 195.38 85.6156H194.186C194.065 85.326 193.986 84.979 193.948 84.5809ZM182.383 77.1956H187.728V85.6156H186.582V78.3792H183.528V85.6156H182.383V77.1956ZM173.305 77.1956H175.066L176.876 83.9273L178.849 77.1956H180.496V85.6156H179.35V78.8348L177.348 85.6156H176.327L174.418 78.5091V85.6156H173.305V77.1956ZM166.629 81.4087C166.629 82.5009 166.823 83.312 167.209 83.8443C167.597 84.3765 168.078 84.6426 168.65 84.6426C169.186 84.6426 169.648 84.3744 170.032 83.8358C170.416 83.2993 170.606 82.4903 170.606 81.4087C170.606 80.3251 170.412 79.5161 170.025 78.9839C169.639 78.4495 169.159 78.1855 168.587 78.1855C168.044 78.1855 167.583 78.4538 167.203 78.9881C166.821 79.5204 166.629 80.3294 166.629 81.4087ZM165.451 81.413C165.451 79.9611 165.752 78.8668 166.347 78.1259C166.944 77.3872 167.704 77.0167 168.618 77.0167C169.518 77.0167 170.27 77.3872 170.877 78.1259C171.481 78.8668 171.783 79.9312 171.783 81.3278C171.783 82.8351 171.487 83.9614 170.89 84.7023C170.297 85.4389 169.537 85.8093 168.618 85.8093C167.714 85.8093 166.958 85.4389 166.355 84.6959C165.754 83.955 165.451 82.8607 165.451 81.413ZM160.075 77.1956H161.221V80.8297C161.586 80.8297 161.843 80.7403 161.991 80.5657C162.138 80.3869 162.355 79.8844 162.639 79.0477C162.86 78.3771 163.042 77.9364 163.186 77.7235C163.326 77.5085 163.488 77.3659 163.666 77.2999C163.843 77.2318 164.152 77.1956 164.599 77.1956H164.768V78.3644L164.432 78.3558C164.19 78.3558 164.019 78.4027 163.914 78.4963C163.814 78.59 163.726 78.7646 163.651 79.0094C163.39 79.8589 163.186 80.406 163.033 80.6487C162.883 80.8914 162.645 81.1043 162.317 81.2917C162.812 81.4577 163.294 82.0283 163.764 83.0055L165.023 85.6156H163.747L162.513 83.0204C162.271 82.4839 162.058 82.1347 161.875 81.9708C161.689 81.8069 161.472 81.7217 161.221 81.7217V85.6156H160.075V77.1956ZM153.442 78.3792H151.819C151.141 78.3792 150.702 78.5134 150.506 78.7795C150.31 79.0477 150.212 79.3586 150.212 79.7077C150.212 80.2165 150.358 80.587 150.65 80.8211C150.938 81.0532 151.45 81.1703 152.183 81.1703H153.442V78.3792ZM154.588 77.1956V85.6156H153.442V82.3391H152.778C152.392 82.3391 152.099 82.4008 151.899 82.5286C151.696 82.6542 151.408 83.0736 151.026 83.7825L150.026 85.6156H148.604L149.84 83.3525C150.218 82.6606 150.594 82.271 150.968 82.1816C150.316 82.0666 149.83 81.7686 149.512 81.2959C149.193 80.8212 149.034 80.2761 149.034 79.6566C149.034 78.8838 149.249 78.2792 149.677 77.847C150.103 77.4127 150.694 77.1956 151.45 77.1956H154.588ZM146.186 81.3981C145.767 81.6089 145.14 81.7877 144.312 81.9325C143.827 82.0155 143.491 82.1134 143.301 82.222C143.107 82.3306 142.959 82.4839 142.852 82.6819C142.746 82.8799 142.693 83.1098 142.693 83.3695C142.693 83.7698 142.815 84.0912 143.059 84.3318C143.303 84.5724 143.639 84.6916 144.069 84.6916C144.481 84.6916 144.852 84.583 145.186 84.3659C145.52 84.1508 145.771 83.8613 145.936 83.4994C146.103 83.1396 146.186 82.6116 146.186 81.9197V81.3981ZM146.272 84.5809C145.888 84.9875 145.491 85.2941 145.078 85.4985C144.66 85.7071 144.232 85.8093 143.785 85.8093C143.08 85.8093 142.518 85.5943 142.098 85.1578C141.677 84.7256 141.468 84.1423 141.468 83.4057C141.468 82.9203 141.566 82.4903 141.764 82.1134C141.961 81.7387 142.232 81.4428 142.574 81.232C142.917 81.0213 143.437 80.8659 144.13 80.7658C145.063 80.6296 145.75 80.4678 146.186 80.2783L146.193 79.9121C146.193 79.3352 146.092 78.9285 145.892 78.6943C145.608 78.3558 145.17 78.1855 144.581 78.1855C144.048 78.1855 143.65 78.2984 143.385 78.524C143.124 78.7476 142.929 79.1712 142.804 79.7907L141.66 79.58C141.821 78.6858 142.144 78.0365 142.635 77.6277C143.126 77.2211 143.827 77.0167 144.74 77.0167C145.452 77.0167 146.007 77.153 146.414 77.4255C146.817 77.6959 147.074 78.0344 147.18 78.4346C147.287 78.837 147.339 79.4203 147.339 80.191V82.0922C147.339 83.4228 147.362 84.2615 147.412 84.6064C147.46 84.9513 147.558 85.2877 147.704 85.6156H146.512C146.389 85.326 146.31 84.979 146.272 84.5809ZM136.06 77.1956H137.204V80.8297C137.572 80.8297 137.829 80.7403 137.977 80.5657C138.123 80.3869 138.34 79.8844 138.624 79.0477C138.843 78.3771 139.027 77.9364 139.169 77.7235C139.311 77.5085 139.472 77.3659 139.649 77.2999C139.827 77.2318 140.138 77.1956 140.583 77.1956H140.752V78.3644L140.416 78.3558C140.176 78.3558 140.002 78.4027 139.9 78.4963C139.798 78.59 139.71 78.7646 139.637 79.0094C139.374 79.8589 139.169 80.406 139.019 80.6487C138.869 80.8914 138.628 81.1043 138.303 81.2917C138.795 81.4577 139.278 82.0283 139.748 83.0055L141.009 85.6156H139.733L138.499 83.0204C138.255 82.4839 138.044 82.1347 137.86 81.9708C137.674 81.8069 137.457 81.7217 137.204 81.7217V85.6156H136.06V77.1956ZM133.365 82.5499L134.511 82.7287C134.382 83.7293 134.056 84.4936 133.536 85.0216C133.014 85.5474 132.388 85.8093 131.659 85.8093C130.77 85.8093 130.041 85.4389 129.469 84.6959C128.895 83.955 128.609 82.8586 128.609 81.4045C128.609 79.9419 128.899 78.8455 129.475 78.1153C130.058 77.3829 130.799 77.0167 131.705 77.0167C132.409 77.0167 132.997 77.2381 133.478 77.6831C133.958 78.1259 134.265 78.7923 134.401 79.6779L133.286 79.8887C133.177 79.3181 132.989 78.8902 132.72 78.6092C132.448 78.326 132.125 78.1855 131.745 78.1855C131.181 78.1855 130.713 78.4389 130.344 78.9498C129.972 79.4608 129.786 80.274 129.786 81.3811C129.786 82.5307 129.964 83.361 130.317 83.872C130.67 84.385 131.121 84.6426 131.672 84.6426C132.106 84.6426 132.476 84.4723 132.782 84.1338C133.087 83.7932 133.284 83.2652 133.365 82.5499ZM123.172 84.4468H124.375C125.249 84.4468 125.807 84.3041 126.043 84.0167C126.281 83.7314 126.4 83.4142 126.4 83.0693C126.4 82.6159 126.262 82.2688 125.991 82.024C125.713 81.7792 125.229 81.6578 124.529 81.6578H123.172V84.4468ZM122.026 77.1956H123.172V80.489H124.629C125.673 80.489 126.427 80.7403 126.888 81.2406C127.348 81.743 127.577 82.3519 127.577 83.0629C127.577 83.74 127.369 84.3339 126.953 84.847C126.536 85.358 125.849 85.6156 124.892 85.6156H122.026V77.1956ZM114.873 77.1956H120.218V85.6156H119.074V78.3792H116.019V82.569C116.019 83.5228 115.994 84.1657 115.944 84.4936C115.896 84.8215 115.754 85.0961 115.518 85.3239C115.282 85.5517 114.944 85.6645 114.51 85.6645C114.238 85.6645 113.938 85.6475 113.601 85.6156V84.4148C114.14 84.4106 114.462 84.3914 114.56 84.3616C114.658 84.3297 114.735 84.2467 114.791 84.1168C114.846 83.9869 114.873 83.5313 114.873 82.7436V77.1956ZM107.772 80.6019H111.555C111.501 79.8738 111.351 79.3288 111.096 78.969C110.726 78.4474 110.257 78.1855 109.687 78.1855C109.173 78.1855 108.735 78.4048 108.371 78.8391C108.008 79.2755 107.81 79.861 107.772 80.6019ZM111.555 82.9224L112.731 83.1013C112.534 83.9954 112.177 84.6724 111.664 85.1259C111.146 85.5836 110.507 85.8093 109.745 85.8093C108.787 85.8093 108.012 85.4389 107.417 84.6959C106.824 83.955 106.526 82.8841 106.526 81.4833C106.526 80.0313 106.826 78.9264 107.426 78.1621C108.025 77.3978 108.781 77.0167 109.701 77.0167C110.576 77.0167 111.307 77.3914 111.894 78.1387C112.476 78.8881 112.77 79.9738 112.77 81.3917L112.764 81.7707H107.703C107.751 82.7202 107.966 83.4355 108.35 83.9167C108.735 84.4021 109.202 84.6426 109.753 84.6426C110.616 84.6426 111.217 84.0678 111.555 82.9224ZM100.225 77.1956H105.73V78.3792H103.55V85.6156H102.404V78.3792H100.225V77.1956ZM97.7734 81.3981C97.3537 81.6089 96.7295 81.7877 95.8985 81.9325C95.4162 82.0155 95.0801 82.1134 94.888 82.222C94.6938 82.3306 94.5456 82.4839 94.4412 82.6819C94.3347 82.8799 94.2804 83.1098 94.2804 83.3695C94.2804 83.7698 94.4036 84.0912 94.6479 84.3318C94.8901 84.5724 95.2283 84.6916 95.6563 84.6916C96.0676 84.6916 96.4393 84.583 96.7733 84.3659C97.1074 84.1508 97.36 83.8613 97.5249 83.4994C97.692 83.1396 97.7734 82.6116 97.7734 81.9197V81.3981ZM97.8611 84.5809C97.4769 84.9875 97.0781 85.2941 96.6647 85.4985C96.2493 85.7071 95.8192 85.8093 95.3745 85.8093C94.6688 85.8093 94.1071 85.5943 93.6875 85.1578C93.2657 84.7256 93.0549 84.1423 93.0549 83.4057C93.0549 82.9203 93.1551 82.4903 93.3534 82.1134C93.5497 81.7387 93.819 81.4428 94.1614 81.232C94.5038 81.0213 95.0237 80.8659 95.7189 80.7658C96.6522 80.6296 97.3391 80.4678 97.7734 80.2783L97.7817 79.9121C97.7817 79.3352 97.6815 78.9285 97.479 78.6943C97.1951 78.3558 96.7587 78.1855 96.1699 78.1855C95.6354 78.1855 95.2387 78.2984 94.9736 78.524C94.7105 78.7476 94.5163 79.1712 94.3932 79.7907L93.2469 79.58C93.4098 78.6858 93.7313 78.0365 94.222 77.6277C94.7126 77.2211 95.4162 77.0167 96.3286 77.0167C97.0385 77.0167 97.5959 77.153 98.001 77.4255C98.4039 77.6959 98.6628 78.0344 98.7672 78.4346C98.8737 78.837 98.9259 79.4203 98.9259 80.191V82.0922C98.9259 83.4228 98.9509 84.2615 99.001 84.6064C99.0491 84.9513 99.1472 85.2877 99.2933 85.6156H98.0991C97.978 85.326 97.8987 84.979 97.8611 84.5809ZM87.6056 78.3792C87.5241 81.1192 87.1838 83.1417 86.5867 84.4468H90.1987V78.3792H87.6056ZM86.6514 77.1956H91.3449V84.4468H92.0757V88H91.1382V85.6156H85.8392V88H84.8851V84.4468H85.4906C86.2798 83.1034 86.666 80.687 86.6514 77.1956ZM81.1604 81.8026V80.6998C81.6385 80.6956 81.9642 80.67 82.1333 80.6296C82.3024 80.587 82.4653 80.4592 82.6198 80.2506C82.7701 80.042 82.8474 79.778 82.8474 79.4544C82.8474 79.0648 82.7451 78.754 82.5446 78.5262C82.34 78.2984 82.077 78.1855 81.7575 78.1855C81.1144 78.1855 80.6697 78.656 80.4129 79.597L79.3314 79.3756C79.6759 77.8044 80.4923 77.0167 81.7784 77.0167C82.4883 77.0167 83.0478 77.2616 83.457 77.7512C83.8683 78.2366 84.0708 78.8242 84.0708 79.5076C84.0708 80.1676 83.8036 80.7147 83.2691 81.1469C83.9518 81.6067 84.2942 82.3114 84.2942 83.2631C84.2942 84.021 84.075 84.6341 83.6366 85.1046C83.2002 85.5751 82.5864 85.8093 81.7993 85.8093C80.2668 85.8093 79.3753 84.9534 79.1247 83.2418L80.1895 82.9544C80.2877 83.4909 80.486 83.9103 80.7846 84.2083C81.0831 84.5085 81.4235 84.6575 81.8055 84.6575C82.198 84.6575 82.5175 84.5213 82.7701 84.2467C83.0227 83.9741 83.1501 83.6271 83.1501 83.2035C83.1501 82.8628 83.0687 82.5754 82.91 82.3412C82.7513 82.1028 82.5822 81.9538 82.4068 81.8899C82.2294 81.8281 81.9371 81.7941 81.532 81.7941L81.1604 81.8026ZM72.2181 77.1956H73.3623V83.5994L76.5629 77.1956H77.801V85.6156H76.6569V79.2138L73.4562 85.6156H72.2181V77.1956ZM67.3242 82.1283V80.6998H70.8401V82.1283H67.3242ZM61.1254 81.4087C61.1254 82.5009 61.3196 83.312 61.7058 83.8443C62.0921 84.3765 62.5723 84.6426 63.1464 84.6426C63.6809 84.6426 64.1423 84.3744 64.5265 83.8358C64.9107 83.2993 65.1027 82.4903 65.1027 81.4087C65.1027 80.3251 64.9086 79.5161 64.5223 78.9839C64.134 78.4495 63.6559 78.1855 63.0817 78.1855C62.5409 78.1855 62.0795 78.4538 61.6975 78.9881C61.3154 79.5204 61.1254 80.3294 61.1254 81.4087ZM59.9478 81.413C59.9478 79.9611 60.2485 78.8668 60.8435 78.1259C61.4407 77.3872 62.1985 77.0167 63.113 77.0167C64.015 77.0167 64.7666 77.3872 65.3742 78.1259C65.9775 78.8668 66.2803 79.9312 66.2803 81.3278C66.2803 82.8351 65.9838 83.9614 65.3867 84.7023C64.7916 85.4389 64.0338 85.8093 63.113 85.8093C62.209 85.8093 61.4532 85.4389 60.8519 84.6959C60.2506 83.955 59.9478 82.8607 59.9478 81.413ZM53.0538 77.1956H54.2V80.6998H57.3986V77.1956H58.5427V85.6156H57.3986V81.8835H54.2V85.6156H53.0538V77.1956ZM44.0092 77.1956H45.7693L47.5794 83.9273L49.5524 77.1956H51.1998V85.6156H50.0535V78.8348L48.0513 85.6156H47.0303L45.122 78.5091V85.6156H44.0092V77.1956ZM40.9046 81.3981C40.4849 81.6089 39.8606 81.7877 39.0297 81.9325C38.5474 82.0155 38.2112 82.1134 38.0192 82.222C37.825 82.3306 37.6768 82.4839 37.5703 82.6819C37.4659 82.8799 37.4116 83.1098 37.4116 83.3695C37.4116 83.7698 37.5348 84.0912 37.777 84.3318C38.0213 84.5724 38.3595 84.6916 38.7875 84.6916C39.1988 84.6916 39.5704 84.583 39.9045 84.3659C40.2386 84.1508 40.4912 83.8613 40.6561 83.4994C40.8211 83.1396 40.9046 82.6116 40.9046 81.9197V81.3981ZM40.9923 84.5809C40.6081 84.9875 40.2093 85.2941 39.7959 85.4985C39.3804 85.7071 38.9503 85.8093 38.5035 85.8093C37.7999 85.8093 37.2383 85.5943 36.8187 85.1578C36.3969 84.7256 36.186 84.1423 36.186 83.4057C36.186 82.9203 36.2863 82.4903 36.4846 82.1134C36.6809 81.7387 36.9502 81.4428 37.2926 81.232C37.635 81.0213 38.1549 80.8659 38.8501 80.7658C39.7834 80.6296 40.4703 80.4678 40.9046 80.2783L40.9129 79.9121C40.9129 79.3352 40.8106 78.9285 40.6102 78.6943C40.3262 78.3558 39.8878 78.1855 39.3011 78.1855C38.7666 78.1855 38.3699 78.2984 38.1048 78.524C37.8417 78.7476 37.6475 79.1712 37.5243 79.7907L36.3781 79.58C36.5389 78.6858 36.8625 78.0365 37.3531 77.6277C37.8438 77.2211 38.5474 77.0167 39.4598 77.0167C40.1697 77.0167 40.7271 77.153 41.1321 77.4255C41.5351 77.6959 41.7919 78.0344 41.8984 78.4346C42.0049 78.837 42.0571 79.4203 42.0571 80.191V82.0922C42.0571 83.4228 42.0821 84.2615 42.1322 84.6064C42.1803 84.9513 42.2784 85.2877 42.4245 85.6156H41.2303C41.1092 85.326 41.0298 84.979 40.9923 84.5809ZM29.4318 77.1956H34.7767V85.6156H33.6326V78.3792H30.5781V82.569C30.5781 83.5228 30.553 84.1657 30.5029 84.4936C30.4549 84.8215 30.3129 85.0961 30.077 85.3239C29.8411 85.5517 29.5028 85.6645 29.0686 85.6645C28.7971 85.6645 28.4965 85.6475 28.1603 85.6156V84.4148C28.699 84.4106 29.0205 84.3914 29.1187 84.3616C29.2168 84.3297 29.294 84.2467 29.3504 84.1168C29.4047 83.9869 29.4318 83.5313 29.4318 82.7436V77.1956ZM23.0535 77.1956H24.1976V80.8297C24.5651 80.8297 24.8219 80.7403 24.9701 80.5657C25.1163 80.3869 25.3334 79.8844 25.6173 79.0477C25.8366 78.3771 26.0203 77.9364 26.1623 77.7235C26.3042 77.5085 26.465 77.3659 26.6425 77.2999C26.8199 77.2318 27.131 77.1956 27.5757 77.1956H27.747V78.3644L27.4087 78.3558C27.1686 78.3558 26.9953 78.4027 26.893 78.4963C26.7928 78.59 26.7051 78.7646 26.63 79.0094C26.3669 79.8589 26.1623 80.406 26.0119 80.6487C25.8616 80.8914 25.6215 81.1043 25.2958 81.2917C25.7885 81.4577 26.2729 82.0283 26.7406 83.0055L28.0017 85.6156H26.726L25.4921 83.0204C25.2478 82.4839 25.0369 82.1347 24.8532 81.9708C24.6674 81.8069 24.4502 81.7217 24.1976 81.7217V85.6156H23.0535V77.1956ZM16.5101 80.6019H20.2912C20.239 79.8738 20.0866 79.3288 19.8319 78.969C19.4645 78.4474 18.9947 78.1855 18.4247 78.1855C17.909 78.1855 17.4726 78.4048 17.1094 78.8391C16.7461 79.2755 16.5477 79.861 16.5101 80.6019ZM20.2912 82.9224L21.4688 83.1013C21.2725 83.9954 20.9134 84.6724 20.3998 85.1259C19.882 85.5836 19.2431 85.8093 18.4832 85.8093C17.5228 85.8093 16.7482 85.4389 16.1552 84.6959C15.5602 83.955 15.2637 82.8841 15.2637 81.4833C15.2637 80.0313 15.5644 78.9264 16.1636 78.1621C16.7607 77.3978 17.5165 77.0167 18.4372 77.0167C19.312 77.0167 20.0449 77.3914 20.6295 78.1387C21.2141 78.8881 21.5085 79.9738 21.5085 81.3917L21.5001 81.7707H16.4413C16.4893 82.7202 16.7043 83.4355 17.0885 83.9167C17.4726 84.4021 17.9382 84.6426 18.4915 84.6426C19.3517 84.6426 19.9551 84.0678 20.2912 82.9224ZM8.24018 79.5161H10.6558C11.4179 79.5161 11.9753 79.3394 12.3261 78.9881C12.6789 78.6368 12.8543 78.1067 12.8543 77.3978C12.8543 76.9379 12.7666 76.5462 12.5954 76.2205C12.4201 75.8905 12.2092 75.6648 11.967 75.5435C11.7206 75.4221 11.2738 75.3625 10.6329 75.3625H8.24018V79.5161ZM7 85.6156V74H10.5201C11.3511 74 11.9607 74.0724 12.3553 74.2214C12.894 74.4215 13.3241 74.792 13.6456 75.3349C13.9651 75.8799 14.1279 76.5462 14.1279 77.3361C14.1279 78.3792 13.8648 79.2308 13.3429 79.8887C12.8188 80.5486 11.9148 80.8786 10.6329 80.8786H8.24018V85.6156H7Z" fill="#5B5B5B"/>
</svg>
