<svg version="1.2" xmlns="http://www.w3.org/2000/svg" viewBox="0 0 500 500" width="500" height="500">
	<title>5197431-ai</title>
	<style>
		.s0 { fill: #a6afb4 } 
		.s1 { fill: #ddcabc } 
		.s2 { fill: #2f3044 } 
		.s3 { fill: #3e6665 } 
		.s4 { fill: #92a1ad } 
		.s5 { fill: #5f7889 } 
		.s6 { fill: #ffffff } 
		.s7 { fill: #f4e7b0 } 
		.s8 { fill: #46baeb } 
		.s9 { fill: #ff998b } 
		.s10 { fill: #f27e72 } 
		.s11 { fill: #c15833 } 
		.s12 { fill: #fffdf5 } 
		.s13 { fill: #45667c } 
		.s14 { fill: #de7a51 } 
	</style>
	<g id="Objects">
		<g id="&lt;Group&gt;">
			<g id="&lt;Group&gt;">
				<g id="&lt;Group&gt;">
					<g id="&lt;Group&gt;">
						<path id="&lt;Path&gt;" class="s0" d="m500 393.1c0 20.5-107.5 37.1-240 37.1-132.6 0-239.7-16.6-240.1-37.1-0.6-37.5 107.5-37.1 240.1-37.1 132.5 0 240 16.6 240 37.1z"/>
					</g>
					<g id="&lt;Group&gt;">
						<path id="&lt;Path&gt;" class="s1" d="m419.7 189.4c-5.3-3.7-11.1-6.6-17.4-8.6-22.6-6.9-47.5-0.4-70.4-6.2-29.4-7.4-50.1-33.3-76.9-47.3-30.3-15.9-66.7-15.7-100.4-9.4-40.8 7.6-82.2 25.3-105.7 59.4-15.5 22.4-21.6 49.4-24.4 76.8v125.2h423.3v-134.3c0-21.9-10.1-43-28.1-55.6z"/>
					</g>
				</g>
				<g id="&lt;Group&gt;">
					<g id="&lt;Group&gt;">
						<g id="&lt;Group&gt;">
							<g id="&lt;Group&gt;">
								<path id="&lt;Path&gt;" class="s2" d="m99.4 295.4h-82.2v-41.4c0-8.7 7.1-15.8 15.8-15.8h66.4z"/>
							</g>
							<g id="&lt;Group&gt;">
								<path id="&lt;Path&gt;" class="s3" d="m99.4 274.3v-36.1h-66.4c-8.7 0-15.8 7.1-15.8 15.8v20.3z"/>
							</g>
							<g id="&lt;Group&gt;">
								<path id="&lt;Path&gt;" class="s2" d="m0 290.4h82.2v8.3h-82.2z"/>
							</g>
						</g>
						<g id="&lt;Group&gt;">
							<g id="&lt;Group&gt;">
								<path id="&lt;Path&gt;" class="s2" d="m86.6 106.6h35.1v289.2h-35.1z"/>
							</g>
							<g id="&lt;Group&gt;">
								<path id="&lt;Path&gt;" class="s3" d="m87.8 395.8h-35.1v-279.9c0-5.1 4.2-9.3 9.3-9.3h25.8z"/>
							</g>
						</g>
						<g id="&lt;Group&gt;">
							<g id="&lt;Group&gt;">
								<path id="&lt;Path&gt;" class="s2" d="m123.1 156.4h16.6v116.6h-16.6z"/>
							</g>
							<g id="&lt;Group&gt;">
								<path id="&lt;Path&gt;" class="s2" d="m88.3 206.5h144.6v2.8h-144.6z"/>
							</g>
							<g id="&lt;Group&gt;">
								<g id="&lt;Group&gt;">
									<g id="&lt;Group&gt;">
										<path id="&lt;Path&gt;" class="s4" d="m180.6 119.5c-8.6 0-34.7 0-43.3 0-16.2 0-29.3 13.1-29.3 29.3 0 16.2 13.1 29.3 29.3 29.3 8.6 0 34.7 0 43.3 0 16.2 0 29.3-13.1 29.3-29.3 0-16.2-13.1-29.3-29.3-29.3z"/>
									</g>
									<g id="&lt;Group&gt;">
										<path id="&lt;Path&gt;" class="s5" d="m152.3 164.1l-32.7 40.5h-19.5l32.7-40.5z"/>
									</g>
									<g id="&lt;Group&gt;">
										<path id="&lt;Path&gt;" class="s5" d="m108.1 151.4c1.3 15 13.9 26.7 29.2 26.7h43.3c15.3 0 27.9-11.7 29.2-26.7z"/>
									</g>
									<g id="&lt;Group&gt;">
										<g id="&lt;Group&gt;">
											<path id="&lt;Path&gt;" class="s6" d="m137.3 178.1c-16.2 0-29.3-13.1-29.3-29.3 0-16.2 13.1-29.3 29.3-29.3 16.2 0 29.3 13.1 29.3 29.3 0 16.2-13.1 29.3-29.3 29.3z"/>
										</g>
										<g id="&lt;Group&gt;">
											<path id="&lt;Path&gt;" class="s2" d="m136.8 159.9c-5.8 0-10.5-4.7-10.5-10.6 0-5.8 4.7-10.5 10.5-10.5 5.9 0 10.6 4.7 10.6 10.5 0 5.9-4.7 10.6-10.6 10.6z"/>
										</g>
									</g>
								</g>
								<g id="&lt;Group&gt;">
									<g id="&lt;Group&gt;">
										<path id="&lt;Path&gt;" class="s4" d="m180.6 253.3c-8.6 0-34.7 0-43.3 0-16.2 0-29.3 13.1-29.3 29.3 0 16.2 13.1 29.3 29.3 29.3 8.6 0 34.7 0 43.3 0 16.2 0 29.3-13.1 29.3-29.3 0-16.2-13.1-29.3-29.3-29.3z"/>
									</g>
									<g id="&lt;Group&gt;">
										<g id="&lt;Group&gt;">
											<path id="&lt;Path&gt;" class="s6" d="m137.3 311.9c-16.2 0-29.3-13.1-29.3-29.3 0-16.2 13.1-29.3 29.3-29.3 16.2 0 29.3 13.1 29.3 29.3 0 16.2-13.1 29.3-29.3 29.3z"/>
										</g>
										<g id="&lt;Group&gt;">
											<path id="&lt;Path&gt;" class="s2" d="m136.8 293.7c-5.8 0-10.5-4.7-10.5-10.6 0-5.8 4.7-10.5 10.5-10.5 5.9 0 10.6 4.7 10.6 10.5 0 5.9-4.7 10.6-10.6 10.6z"/>
										</g>
									</g>
								</g>
								<g id="&lt;Group&gt;">
									<g id="&lt;Group&gt;">
										<path id="&lt;Path&gt;" class="s4" d="m136.8 196.1c-3.5 0-30.9 0-34.5 0-6.6 0-11.9 5.3-11.9 12 0 6.6 5.3 11.9 11.9 11.9 3.6 0 31 0 34.5 0 6.7 0 12-5.3 12-11.9 0-6.7-5.3-12-12-12z"/>
									</g>
									<g id="&lt;Group&gt;">
										<g id="&lt;Group&gt;">
											<path id="&lt;Path&gt;" class="s6" d="m102.3 220c-6.6 0-11.9-5.3-11.9-11.9 0-6.7 5.3-12 11.9-12 6.7 0 12 5.3 12 12 0 6.6-5.3 11.9-12 11.9z"/>
										</g>
										<g id="&lt;Group&gt;">
											<path id="&lt;Path&gt;" class="s2" d="m102.2 212.6c-2.4 0-4.3-1.9-4.3-4.3 0-2.4 1.9-4.3 4.3-4.3 2.3 0 4.3 1.9 4.3 4.3 0 2.4-2 4.3-4.3 4.3z"/>
										</g>
									</g>
								</g>
								<g id="&lt;Group&gt;">
									<g id="&lt;Group&gt;">
										<path id="&lt;Path&gt;" class="s4" d="m165.7 213.3c-3.5 0-31 0-34.5 0-6.6 0-12 5.4-12 12 0 6.6 5.4 11.9 12 11.9 3.5 0 31 0 34.5 0 6.6 0 12-5.3 12-11.9 0-6.6-5.4-12-12-12z"/>
									</g>
									<g id="&lt;Group&gt;">
										<path id="&lt;Path&gt;" class="s4" d="m144.6 221.6l32.7 40.5h19.5l-32.7-40.5z"/>
									</g>
									<g id="&lt;Group&gt;">
										<g id="&lt;Group&gt;">
											<path id="&lt;Path&gt;" class="s6" d="m131.2 237.2c-6.6 0-12-5.3-12-11.9 0-6.7 5.4-12 12-12 6.6 0 12 5.3 12 12 0 6.6-5.4 11.9-12 11.9z"/>
										</g>
										<g id="&lt;Group&gt;">
											<path id="&lt;Path&gt;" class="s2" d="m131 229.8c-2.3 0-4.3-1.9-4.3-4.3 0-2.4 2-4.3 4.3-4.3 2.4 0 4.3 1.9 4.3 4.3 0 2.4-1.9 4.3-4.3 4.3z"/>
										</g>
									</g>
								</g>
								<g id="&lt;Group&gt;">
									<g id="&lt;Group&gt;">
										<path id="&lt;Path&gt;" class="s7" d="m219.6 165.2q-3.2 1.4-6 3.4c-6.1-4.3-13.5-6.9-21.6-6.9-20.7 0-37.6 16.8-37.6 37.5 0 20.8 16.9 37.6 37.6 37.6 8.1 0 15.5-2.6 21.6-7q2.8 2 6 3.5z"/>
									</g>
									<g id="&lt;Group&gt;">
										<path id="&lt;Path&gt;" class="s4" d="m180.7 128.5l32.7 40.5h19.5l-32.7-40.5z"/>
									</g>
									<g id="&lt;Group&gt;">
										<path id="&lt;Path&gt;" class="s6" d="m220.1 174.4c-6.9-7.8-16.9-12.7-28.1-12.7-20.7 0-37.6 16.8-37.6 37.5 0 20.8 16.9 37.6 37.6 37.6 11.2 0 21.2-5 28.1-12.8z"/>
									</g>
									<g id="&lt;Group&gt;">
										<g id="&lt;Group&gt;">
											<path id="&lt;Path&gt;" class="s2" d="m192 207.3c-4.5 0-8.1-3.6-8.1-8.1 0-4.5 3.6-8.1 8.1-8.1 4.5 0 8.1 3.6 8.1 8.1 0 4.5-3.6 8.1-8.1 8.1z"/>
										</g>
									</g>
								</g>
							</g>
							<g id="&lt;Group&gt;">
								<path id="&lt;Path&gt;" class="s2" d="m90.5 241.2h132.7v3.8h-132.7z"/>
							</g>
							<g id="&lt;Group&gt;">
								<g id="&lt;Group&gt;">
									<path id="&lt;Path&gt;" class="s2" d="m207.3 131.1h-24.7c-3.8 0-6.9-3.1-6.9-7v-16.5h38.5v16.5c0 3.9-3.1 7-6.9 7z"/>
								</g>
								<g id="&lt;Group&gt;">
									<path id="&lt;Path&gt;" class="s3" d="m180.6 122.1h6.4v4.6h-6.4z"/>
								</g>
								<g id="&lt;Group&gt;">
									<path id="&lt;Path&gt;" class="s3" d="m191.1 122.1h6.3v4.6h-6.3z"/>
								</g>
							</g>
							<g id="&lt;Group&gt;">
								<path id="&lt;Path&gt;" class="s2" d="m203.5 281.3h3.9v54.2h-3.9z"/>
							</g>
							<g id="&lt;Group&gt;">
								<path id="&lt;Path&gt;" class="s2" d="m89.1 279.7h130.8v6h-130.8z"/>
							</g>
						</g>
						<g id="&lt;Group&gt;">
							<path id="&lt;Path&gt;" class="s2" d="m88.3 149.3h144.6v2.8h-144.6z"/>
						</g>
						<g id="&lt;Group&gt;">
							<path id="&lt;Path&gt;" class="s2" d="m45 381.7h329.7v13.7h-329.7z"/>
						</g>
						<g id="&lt;Group&gt;">
							<path id="&lt;Path&gt;" class="s4" d="m110.6 347.9h184v9.7h-184z"/>
						</g>
						<g id="&lt;Group&gt;">
							<g id="&lt;Group&gt;">
								<path id="&lt;Path&gt;" class="s2" d="m96.7 332.8h184v36.9h-184z"/>
							</g>
							<g id="&lt;Group&gt;">
								<path id="&lt;Path&gt;" class="s4" d="m110.6 332.8h184v9.7h-184z"/>
							</g>
							<g id="&lt;Group&gt;">
								<g id="&lt;Group&gt;">
									<path id="&lt;Path&gt;" class="s4" d="m96.7 347.9h184v9.7h-184z"/>
								</g>
							</g>
						</g>
						<g id="&lt;Group&gt;">
							<path id="&lt;Path&gt;" class="s2" d="m322.6 312.6h77.2v7.4h-77.2z"/>
						</g>
						<g id="&lt;Group&gt;">
							<g id="&lt;Group&gt;">
								<path id="&lt;Path&gt;" class="s2" d="m285.4 119.7h-174.8v-38.9c0-5.7 4.6-10.2 10.2-10.2h154.4c5.6 0 10.2 4.5 10.2 10.2z"/>
							</g>
							<g id="&lt;Group&gt;">
								<path id="&lt;Path&gt;" class="s3" d="m242.1 119.7h-174.8v-38.9c0-5.7 4.6-10.2 10.2-10.2h154.4c5.6 0 10.2 4.5 10.2 10.2z"/>
							</g>
							<g id="&lt;Group&gt;">
								<g id="&lt;Group&gt;">
									<path id="&lt;Path&gt;" class="s2" d="m74.9 79.8h2.6v15.5h-2.6z"/>
								</g>
								<g id="&lt;Group&gt;">
									<path id="&lt;Path&gt;" class="s2" d="m80.8 79.8h2.6v15.5h-2.6z"/>
								</g>
								<g id="&lt;Group&gt;">
									<path id="&lt;Path&gt;" class="s2" d="m86.6 79.8h2.6v15.5h-2.6z"/>
								</g>
								<g id="&lt;Group&gt;">
									<path id="&lt;Path&gt;" class="s2" d="m92.4 79.8h2.6v15.5h-2.6z"/>
								</g>
								<g id="&lt;Group&gt;">
									<path id="&lt;Path&gt;" class="s2" d="m98.3 79.8h2.6v15.5h-2.6z"/>
								</g>
								<g id="&lt;Group&gt;">
									<path id="&lt;Path&gt;" class="s2" d="m104.1 79.8h2.6v15.5h-2.6z"/>
								</g>
							</g>
						</g>
						<g id="&lt;Group&gt;">
							<g id="&lt;Group&gt;">
								<path id="&lt;Path&gt;" class="s2" d="m307.8 106.6h-45v286.8h100.9v-156.4c0-1.4-0.3-2.8-0.9-4z"/>
							</g>
							<g id="&lt;Group&gt;">
								<path id="&lt;Path&gt;" class="s4" d="m325 246.2h33.3v50.7h-33.3z"/>
							</g>
							<g id="&lt;Group&gt;">
								<path id="&lt;Path&gt;" class="s2" d="m323.5 260h51.5v7.4h-51.5z"/>
							</g>
							<g id="&lt;Group&gt;">
								<path id="&lt;Path&gt;" class="s3" d="m264.5 106.6h-45v286.8h100.9v-156.4c0-1.4-0.3-2.8-0.9-4z"/>
							</g>
							<g id="&lt;Group&gt;">
								<path id="&lt;Path&gt;" class="s3" d="m45 391.4h329.7v5.9h-329.7z"/>
							</g>
							<g id="&lt;Group&gt;">
								<g id="&lt;Group&gt;">
									<path id="&lt;Compound Path&gt;" fill-rule="evenodd" class="s2" d="m259.2 280.6c-18.4 0-33.3-14.9-33.3-33.3 0-18.4 14.9-33.2 33.3-33.2 18.4 0 33.2 14.8 33.2 33.2 0 18.4-14.8 33.3-33.2 33.3zm30.9-33.3c0-17.1-13.8-30.9-30.9-30.9-17.1 0-30.9 13.8-30.9 30.9 0 17.1 13.8 31 30.9 31 17.1 0 30.9-13.9 30.9-31z"/>
								</g>
								<g id="&lt;Group&gt;">
									<path id="&lt;Compound Path&gt;" fill-rule="evenodd" class="s2" d="m272.9 202.5c-5.4 0-9.9-4.4-9.9-9.9 0-5.4 4.5-9.8 9.9-9.8 5.5 0 9.9 4.4 9.9 9.8 0 5.5-4.4 9.9-9.9 9.9zm7.5-9.9c0-4.1-3.3-7.5-7.5-7.5-4.2 0-7.5 3.4-7.5 7.5 0 4.2 3.3 7.6 7.5 7.6 4.2 0 7.5-3.4 7.5-7.6z"/>
								</g>
								<g id="&lt;Group&gt;">
									<path id="&lt;Compound Path&gt;" fill-rule="evenodd" class="s2" d="m234.2 127.5c-3.7 0-6.7-3-6.7-6.8 0-3.7 3-6.7 6.7-6.7 3.8 0 6.8 3 6.8 6.7 0 3.8-3 6.8-6.8 6.8zm4.5-6.8c0-2.4-2-4.4-4.5-4.4-2.4 0-4.4 2-4.4 4.4 0 2.5 2 4.5 4.4 4.5 2.5 0 4.5-2 4.5-4.5z"/>
								</g>
								<g id="&lt;Group&gt;">
									<path id="&lt;Compound Path&gt;" fill-rule="evenodd" class="s2" d="m258.6 125.6c-3.3 0-6-2.7-6-6 0-3.3 2.7-6 6-6 3.3 0 6 2.7 6 6 0 3.3-2.7 6-6 6zm3.7-6c0-2.1-1.7-3.7-3.7-3.7-2 0-3.7 1.6-3.7 3.7 0 2 1.7 3.7 3.7 3.7 2 0 3.7-1.7 3.7-3.7z"/>
								</g>
								<g id="&lt;Group&gt;">
									<path id="&lt;Compound Path&gt;" fill-rule="evenodd" class="s2" d="m237.5 344.4c-3 0-5.4-2.5-5.4-5.5 0-2.9 2.4-5.4 5.4-5.4 3 0 5.4 2.5 5.4 5.4 0 3-2.4 5.5-5.4 5.5zm3.1-5.5c0-1.7-1.4-3-3.1-3-1.7 0-3.1 1.3-3.1 3 0 1.8 1.4 3.1 3.1 3.1 1.7 0 3.1-1.3 3.1-3.1z"/>
								</g>
								<g id="&lt;Group&gt;">
									<path id="&lt;Compound Path&gt;" fill-rule="evenodd" class="s2" d="m237.5 358.3c-3 0-5.4-2.4-5.4-5.4 0-3 2.4-5.5 5.4-5.5 3 0 5.4 2.5 5.4 5.5 0 3-2.4 5.4-5.4 5.4zm3.1-5.4c0-1.7-1.4-3.1-3.1-3.1-1.7 0-3.1 1.4-3.1 3.1 0 1.7 1.4 3.1 3.1 3.1 1.7 0 3.1-1.4 3.1-3.1z"/>
								</g>
							</g>
						</g>
						<g id="&lt;Group&gt;">
							<g id="&lt;Group&gt;">
								<path id="&lt;Path&gt;" class="s2" d="m364.3 189.7l-31.3-71.9h-30.8l32.7 75.3 26.9-0.2z"/>
							</g>
							<g id="&lt;Group&gt;">
								<path id="&lt;Path&gt;" class="s8" d="m361.7 186.7l-28.7-65.9h-28.2l28.7 65.9z"/>
							</g>
							<g id="&lt;Group&gt;">
								<path id="&lt;Path&gt;" class="s2" d="m333.6 125.6c-0.7-0.1-1.4-0.1-1.9 0.2-0.6 0.3-0.9 1.1-0.4 1.6-0.8-0.1-1.3 0.8-1.3 1.5 0.1 0.7 0.5 1.4 0.9 2 2.2 3.5 3 7.6 4.9 11.3 3.5 7 10.2 11.9 15 18.1-3.5-11.3-8-22.3-13.3-32.9-0.2-0.5-0.4-1-0.8-1.3-0.4-0.4-1-0.5-1.5-0.4z"/>
							</g>
						</g>
					</g>
					<g id="&lt;Group&gt;">
						<g id="&lt;Group&gt;">
							<g id="&lt;Group&gt;">
								<g id="&lt;Group&gt;">
									<path id="&lt;Path&gt;" class="s9" d="m446.8 183.9c-5.9 2.2-11.5 4.7-16.9 7.8q0.8 1.6 1.6 3.1c1.3 2.7 2.7 5.7 2.5 8.8-0.2 1.9-1 3.8-1.7 5.5q-5.3 12.1-11.2 23.7 2.2 2.2 4.5 4.5c7.1-7.5 13.3-16.1 18.2-25.6 2.8-5.3 5.3-11.2 5.1-17.5-0.1-3.1-0.9-6.2-1.8-9.3q-0.2-0.5-0.3-1z"/>
								</g>
								<g id="&lt;Group&gt;">
									<path id="&lt;Path&gt;" class="s10" d="m439.9 184.8c0.8 3.4 1.6 7 1.5 10.5-0.1 2.4-0.6 4.8-1.1 7.1q-1.6 7.5-3.3 15-1.7-16.1-3.3-32.1 2.3-0.8 4.7-1.5z"/>
								</g>
							</g>
							<g id="&lt;Group&gt;">
								<path id="&lt;Path&gt;" class="s11" d="m435 160.2c-1.3-1.7-2.9-3.5-4.8-4-3-0.8-6.2 1.5-7.5 4.7-1.3 3.2-1.2 7-0.6 10.4 1.2 7.5 4.5 14.3 7.8 21 5.4-3.1 11.6-5.9 17.4-8.1-2.8-8.8-7-16.9-12.3-24z"/>
							</g>
							<g id="&lt;Group&gt;">
								<path id="&lt;Path&gt;" class="s2" d="m434.9 163.2c0.6 12.4 1.5 38.2 2.1 50.6 1.1-12.6 5.1-50.9-2.1-50.6z"/>
							</g>
						</g>
						<g id="&lt;Group&gt;">
							<g id="&lt;Group&gt;">
								<g id="&lt;Group&gt;">
									<g id="&lt;Group&gt;">
										<g id="&lt;Group&gt;">
											<path id="&lt;Path&gt;" class="s12" d="m449.8 378.8q-0.1-0.2-0.2-0.3c-1.9-4-2.4-6.9-3.3-11.2-0.3-1.9-0.5-4.2-0.8-6.3h-8.9c0.7 2.5 1.6 5.1 2.1 7.7 0.5 2.4 0.6 5-0.1 7.1 4 1.6 7.6 4.5 11.2 3z"/>
										</g>
									</g>
									<g id="&lt;Group&gt;">
										<g id="&lt;Group&gt;">
											<path id="&lt;Path&gt;" class="s2" d="m438 375.4c-0.3 0.9-0.9 2-1.5 2.6-1.4 1.6-2.6 2.4-4.7 2.9-2 0.4-4.1 0.8-5.8 2-1.7 1.2-3.1 2.5-2.5 4.9 2.8 1.1 8.2 0.5 12.2 0.3 1.4-0.1 2.8-0.2 4-0.8 0.7-0.3 1.3-0.9 2.1-1 1.2-0.2 2.6 0.5 3.8 0.8 2.3 0.6 4.5 0 6.5-0.6 0.2-2.5-0.9-5.9-2.1-8.4-3.6 1.5-8.1-1.1-12-2.7z"/>
										</g>
									</g>
								</g>
								<g id="&lt;Group&gt;">
									<g id="&lt;Group&gt;">
										<path id="&lt;Path&gt;" class="s2" d="m436.2 230.3h-33.6c0.9 21 3.4 47.6 6.5 63.4 3.5 18.1 7.5 36.2 14 53.3q4.8 12.7 9.7 25.4h16.2c-24.9-109-10.1-113.6-12.8-142.1z"/>
									</g>
								</g>
							</g>
							<g id="&lt;Group&gt;">
								<g id="&lt;Group&gt;">
									<g id="&lt;Group&gt;">
										<g id="&lt;Group&gt;">
											<path id="&lt;Path&gt;" class="s12" d="m411 387.5q-0.1-0.1-0.1-0.3c-1.6-4-1.7-6.9-2-11.2-0.1-1.9 0.1-4.2 0.1-6.3h-10c0.4 2.6 1 5.1 1.2 7.7 0.2 2.4-0.2 5-1.3 7.1 4.2 1.6 7.8 4.5 12.1 3z"/>
										</g>
									</g>
									<g id="&lt;Group&gt;">
										<g id="&lt;Group&gt;">
											<path id="&lt;Path&gt;" class="s2" d="m398.3 384.1c-0.5 0.9-1.3 2-2.1 2.6-1.8 1.6-3.3 2.4-5.6 2.9-2.4 0.4-4.8 0.8-6.9 2-2.1 1.2-3.9 2.5-3.6 4.9 3 1.1 9.1 0.5 13.6 0.3 1.6-0.1 3.2-0.2 4.7-0.8 0.8-0.3 1.6-0.9 2.5-1 1.4-0.2 2.7 0.5 4.1 0.8 2.5 0.6 5 0 7.4-0.6 0.6-2.5-0.1-5.9-1.1-8.4-4.3 1.5-8.8-1.1-13-2.7z"/>
										</g>
									</g>
								</g>
								<g id="&lt;Group&gt;">
									<g id="&lt;Group&gt;">
										<path id="&lt;Path&gt;" class="s2" d="m389.4 230.3c-5.4 49.1-1.3 103.7 3.9 150.8h17c-1.1-29.9-1.7-56.2 3.5-85.4 4.6-25.8 7.7-36.2 11.7-52.4 1.2-4.7 2.4-8.8 3.1-13z"/>
									</g>
								</g>
								<g id="&lt;Group&gt;">
									<g id="&lt;Group&gt;">
										<path id="&lt;Path&gt;" class="s6" d="m413 304.2h-0.6c1-12.8 3.7-25.5 8.3-37.5q0.9-2.4 1.8-4.8c2.1-5.4 4.3-10.9 5.2-16.6l0.6 0.1c-0.9 5.8-3.1 11.3-5.2 16.7q-1 2.4-1.9 4.8c-4.5 12-7.2 24.6-8.2 37.3z"/>
									</g>
								</g>
							</g>
						</g>
						<g id="&lt;Group&gt;">
							<g id="&lt;Group&gt;">
								<g id="&lt;Group&gt;">
									<g id="&lt;Group&gt;">
										<path id="&lt;Path&gt;" class="s9" d="m427.6 123.3c-2.7-3.3-7.5-4-12.8-3.2l-4.4 1.1c-0.2 0.7-1.6 2.7-2.3 5.5-0.2 0.6 0.6 2.6 0.2 3.2-2.9 5.2-3 11.4-3.8 15.2-0.2 0.5-0.3 1-0.2 1.5 0.3 1.1 1.5 1.7 2.5 2 4.7 1.4 10 0.8 14.3-1.6 4.2-2.4 7.5-6.6 8.7-11.4 1.1-4.2 0.5-8.9-2.2-12.3z"/>
									</g>
								</g>
								<g id="&lt;Group&gt;">
									<g id="&lt;Group&gt;">
										<path id="&lt;Path&gt;" class="s10" d="m404.9 147.6c0.5 0.5 1.2 0.8 1.9 1 4.7 1.4 10 0.8 14.3-1.6 2.3-1.3 4.3-3.2 5.9-5.4-7.4-0.6-16.5 1.2-22.1 6z"/>
									</g>
								</g>
								<g id="&lt;Group&gt;">
									<g id="&lt;Group&gt;">
										<path id="&lt;Path&gt;" class="s9" d="m411.4 146.6c-1.3 4.6-3.2 9.1-5.5 13.3q10.7 1.3 21.4 2.6c-1.2-6.6-1.6-13.3-1.2-20-3.4-8.4-6.7-4.1-11.9 0-1.4 1-2.4 2.4-2.8 4.1z"/>
									</g>
								</g>
								<g id="&lt;Group&gt;">
									<g id="&lt;Group&gt;">
										<path id="&lt;Path&gt;" class="s10" d="m412.4 127.9c1.3 1.6 1.6 3.9 1.7 5.9 0.1 2.1 0 4.3 1 6.1 0.7 1.5 1.8 2.6 3 3.7q2.8 2.6 5.7 5.3c2.1-3.9 3.4-8.3 3.6-12.8 0.2-2.2 0-4.4-0.8-6.5-0.9-2.5-2.8-4.5-4.9-6.1-2.1-1.6-4.6-2.8-7.3-2.9-1.2-0.1-2.4 0-3.4 0.7-1 0.6-1.7 1.8-1.5 2.9 0.3 1.6 1.9 2.5 2.9 3.7z"/>
									</g>
								</g>
							</g>
							<g id="&lt;Group&gt;">
								<g id="&lt;Group&gt;">
									<path id="&lt;Path&gt;" class="s2" d="m430.9 131c0.5-1.8 0.6-3.7 0.2-5.5-0.7-2.7-2.6-5-5-6.4-4.6-2.5-10.6-1.1-15.4-3.3q0 0.6 0.1 1.2c-1.1-0.2-2-1.2-2.1-2.3-0.6 1.3-0.9 2.7-0.9 4.2l-0.3-1.7c-0.7 1.9 0 4.1 1.3 5.7 1.3 1.6 3.2 2.6 5.1 3.3q0.9 0.4 1.8 0.6c-0.6 1.2-0.8 2.5-1.2 3.8q-0.4 1.4-1.1 2.6c-0.1 0.2-0.3 0.4-0.3 0.6 0 0.2 0.1 0.4 0.1 0.6q0.5 1.3 0.7 2.6c0.3-0.8 0.6-1.7 0.9-2.5q0.5-1 1.2-1.9 0.3 0.8 0.7 1.5c1.1 2.3 2.9 4.1 4.6 6 1.6 1.9 3.3 3.9 4.2 6.3 0.7-2.1 2.2-3.9 3.4-5.7 1.3-1.8 2.5-3.8 2.7-6 0.1-1.3-0.2-2.5-0.7-3.7z"/>
								</g>
								<g id="&lt;Group&gt;">
									<path id="&lt;Path&gt;" class="s9" d="m414.6 135.1c0.2-0.8 0.4-1.6 0.9-2.2 0.5-0.7 1.3-1.2 2-1 1 0.2 1.5 1.1 1.7 2 0.6 2.5-0.5 5.3-2.7 6.5-0.5 0.3-1.1 0.6-1.6 0.5-0.6-0.1-1.1-0.7-1-1.2z"/>
								</g>
								<g id="&lt;Group&gt;">
									<path id="&lt;Path&gt;" class="s13" d="m412.1 122.2q0.2 0 0.3 0c0.1 0 0.2-0.1 0.2-0.3 0-0.1-0.2-0.1-0.3-0.2-1.4-0.6-2.6-2-3-3.5 0 0.9 0.2 1.8 0.7 2.5 0.5 0.7 1.2 1.3 2.1 1.5z"/>
								</g>
								<g id="&lt;Group&gt;">
									<path id="&lt;Path&gt;" class="s13" d="m418.3 122.5c0.7-0.2 1.4-0.9 2.1-0.7 0.6 0.1 1 0.6 1.6 0.7 0.4 0.1 0.9 0 1.3 0 0.7-0.1 1.3 0.3 1.7 0.8 0.5 0.4 0.8 1 1.1 1.6 0.3-0.5 1.1-0.5 1.6-0.2 0.5 0.4 0.7 1 0.9 1.6 0.2 0.5 0.5 1.1 1 1.5-0.3-1.3-0.6-2.6-1.2-3.7-0.6-1.2-1.7-2.1-2.9-2.3-0.6-0.1-1.1-0.1-1.6-0.1-0.6-0.1-1.3-0.2-1.8-0.5-2.1-1.5-4.1-1.7-10.2-2 0.5 1.5 1.7 2.8 3.2 3.5q0-0.6 0-1.2c0.9 0.6 2.1 1.3 3.2 1z"/>
								</g>
							</g>
						</g>
						<g id="&lt;Group&gt;">
							<g id="&lt;Group&gt;">
								<g id="&lt;Group&gt;">
									<path id="&lt;Path&gt;" class="s13" d="m408.6 155.5c7.1-0.6 14.3-1.2 21.3 0.3-0.8-1.8-1.1-3.9-1-5.9-3.6-0.2-7.3-0.2-10.8 0.5-3.6 0.8-7 2.4-9.5 5.1z"/>
								</g>
							</g>
							<g id="&lt;Group&gt;">
								<g id="&lt;Group&gt;">
									<g id="&lt;Group&gt;">
										<path id="&lt;Path&gt;" class="s14" d="m438.4 234.8c-1.1-14.7-2.7-44.4-0.8-67.8 0.4-5-3.1-10.8-7.9-12.4-7.7-2.6-15.8-1.6-23.7 0.6l-0.1 0.1c-8.1 3.1-14.3 11-15 19.6-0.6 8.8-2.7 44.2-4.2 62.9-0.1 1.5 1.1 2.8 2.7 2.7l46.3-2.6c1.6-0.1 2.8-1.5 2.7-3.1z"/>
									</g>
								</g>
							</g>
							<g id="&lt;Group&gt;">
								<g id="&lt;Group&gt;">
									<g id="&lt;Group&gt;">
										<path id="&lt;Path&gt;" class="s11" d="m407.5 154.8q-0.7 0.2-1.5 0.4l-0.1 0.1c-8.1 3.1-14.3 11-15 19.6-0.6 8.8-2.7 44.3-4.2 62.9-0.1 1.5 1.1 2.8 2.6 2.7l17.7-1c-1-64 20.9-71.2 0.5-84.7z"/>
									</g>
								</g>
							</g>
							<g id="&lt;Group&gt;">
								<path id="&lt;Path&gt;" class="s2" d="m404 240.3c-0.9-10.1 0.3-20.3 1.5-30.2l3.4-28.8 0.6 0.1-3.4 28.8c-1.2 9.8-2.4 20-1.5 30z"/>
							</g>
						</g>
						<g id="&lt;Group&gt;">
							<path id="&lt;Path&gt;" class="s2" d="m416.3 172c-1.1 3.7-2.7 7.5-5.9 9.4-2.8 1.7-6.2 1.6-9.4 1-3.1-0.5-6.3-1.5-9.5-1.5q0.3-1.6 0.6-3.2c4.6 0.5 9.3 0.9 13.8-0.2 4.6-1 8.9-3.6 11-7.7z"/>
						</g>
						<g id="&lt;Group&gt;">
							<g id="&lt;Group&gt;">
								<path id="&lt;Path&gt;" class="s9" d="m386.6 154.9c-13.2-2.3-27.7-6.7-39.5-13.1-0.5-0.3-1.1-0.7-1.4-1.2-0.2-0.4-0.3-0.9-0.4-1.4-0.2-3.2-0.2-6.4 0.2-9.5 0-0.3 0.1-0.5 0-0.7-0.4-0.6-1.3 0-1.7 0.6q-0.9 1.8-1.3 3.8c-1.6-2.7-3.5-5.2-5.6-7.5-0.3-0.4-0.6-0.7-1.1-0.7-0.4-0.1-0.8 0.3-0.7 0.7-0.4-0.4-0.9-0.7-1.4-0.7-0.5 0-0.9 0.8-0.5 1.1-0.6-0.3-1.8-0.4-1.7 0.3 0 0.2 0.1 0.4 0.2 0.6 0.9 1.2 1.9 2.4 3 3.5-1-1-2.4-1.9-3.6-2.7-0.5 0.3-0.6 1.1-0.3 1.6 0.3 0.6 0.8 1 1.3 1.4 3.1 3 2.7 8.1 5 11.8 1.2 1.9 3.1 3.3 4.9 4.7 3.2 2.6 5.1 5.5 8 8.4 9.2 9.5 21.8 14.4 33.2 18.6 3.2-6.9 3.9-12 3.4-19.6z"/>
							</g>
							<g id="&lt;Group&gt;">
								<path id="&lt;Path&gt;" class="s10" d="m342 147.5c3.2 2.6 5.1 5.5 8 8.4 9.2 9.5 21.8 14.4 33.2 18.6 1.1-2.5 2-4.8 2.6-7-17.4-3.9-33.8-11.6-47.8-23.6 1.1 1.4 2.6 2.5 4 3.6z"/>
							</g>
							<g id="&lt;Group&gt;">
								<path id="&lt;Path&gt;" class="s14" d="m417.8 159c-2.3-3.4-7.1-3.6-11.2-3.6-7.2 0-14.9-0.8-21.8-1.9 0.5 7.6-1.4 15.5-4.6 22.5 5.7 2 12.7 3.4 18.8 4.6 3.5 0.6 7.4 1 10.6-0.6 3.6-1.9 5.6-5.9 7.2-9.7 1.6-3.6 3.2-8 1-11.3z"/>
							</g>
							<g id="&lt;Group&gt;">
								<path id="&lt;Path&gt;" class="s11" d="m382.4 170.2q-0.9 3-2.2 5.8c5.7 2 12.7 3.4 18.8 4.6 3.5 0.6 7.4 1 10.6-0.6 3.5-1.8 5.4-5.6 7-9.2-11.6 4.9-23.1 3.4-34.2-0.6z"/>
							</g>
							<g id="&lt;Group&gt;">
								<path id="&lt;Path&gt;" class="s2" d="m381.6 176.3l-0.5-0.3c4.3-6.5 6.2-14.4 5.4-22.1l0.6-0.1c0.8 7.9-1.1 15.9-5.5 22.5z"/>
							</g>
						</g>
					</g>
				</g>
			</g>
		</g>
	</g>
</svg>