<svg version="1.2" xmlns="http://www.w3.org/2000/svg" viewBox="0 0 500 500" width="500" height="500">
	<title>5197431-ai</title>
	<style>
		.s0 { fill: #a6afb4 } 
		.s1 { fill: #ddcabc } 
		.s2 { fill: #2f3044 } 
		.s3 { fill: #de7a51 } 
		.s4 { fill: #c15833 } 
		.s5 { fill: #eaa180 } 
		.s6 { fill: #dc8456 } 
		.s7 { fill: #45667c } 
		.s8 { fill: #3e6665 } 
		.s9 { fill: #e8e9eb } 
		.s10 { fill: #da4e8d } 
		.s11 { fill: #46baeb } 
		.s12 { fill: #fdd633 } 
		.s13 { fill: #daa520 } 
		.s14 { fill: #a4b0bc } 
		.s15 { fill: #91bfbf } 
		.s16 { fill: #ff998b } 
	</style>
	<g id="Objects">
		<g id="&lt;Group&gt;">
			<g id="&lt;Group&gt;">
				<g id="&lt;Group&gt;">
					<g id="&lt;Group&gt;">
						<path id="&lt;Path&gt;" class="s0" d="m250 415.8c-138.3 0-250-17.3-250-38.7 0-21.3 111.8-38.6 250-38.6 138.3 0 250 17.3 250 38.6 0 21.4-111.7 38.7-250 38.7z"/>
					</g>
					<g id="&lt;Group&gt;">
						<path id="&lt;Path&gt;" class="s1" d="m448.4 163c-5.5-3.9-11.6-6.9-18.2-9-23.5-7.2-49.4-0.4-73.3-6.4-30.5-7.7-52.1-34.7-80-49.3-31.6-16.6-69.5-16.3-104.6-9.8-42.5 8-85.6 26.3-110.1 61.9-16.1 23.3-22.5 51.4-25.3 79.9v130.5h440.8v-139.9c0-22.9-10.6-44.8-29.3-57.9z"/>
					</g>
				</g>
				<g id="&lt;Group&gt;">
					<g id="&lt;Group&gt;">
						<g id="&lt;Group&gt;">
							<g id="&lt;Group&gt;">
								<g id="&lt;Group&gt;">
									<g id="&lt;Group&gt;">
										<path id="&lt;Path&gt;" class="s2" d="m53.5 367.2c-3.1 0-5.7-2.6-5.7-5.8 0-3.1 2.6-5.7 5.7-5.7 3.2 0 5.8 2.6 5.8 5.7 0 3.2-2.6 5.8-5.8 5.8z"/>
									</g>
								</g>
							</g>
							<g id="&lt;Group&gt;">
								<g id="&lt;Group&gt;">
									<g id="&lt;Group&gt;">
										<path id="&lt;Path&gt;" class="s2" d="m158.2 367.2c-3.2 0-5.7-2.6-5.7-5.8 0-3.1 2.5-5.7 5.7-5.7 3.2 0 5.7 2.6 5.7 5.7 0 3.2-2.5 5.8-5.7 5.8z"/>
									</g>
								</g>
							</g>
							<g id="&lt;Group&gt;">
								<g id="&lt;Group&gt;">
									<g id="&lt;Group&gt;">
										<path id="&lt;Path&gt;" class="s2" d="m97.2 357.1c3.7-0.5 7.3-2.2 10.1-4.6l52.7 4.2v-1.3c0-1.3-0.9-2.4-2.2-2.5-6.8-0.5-26.7-2.2-34.3-3.1-9.3-1.1-13.1-6-13.1-6h-1.2v-31.6h-1.2v-45.5h-4.6v45.5h-1.2v31.6h-1.2c0 0-3.8 4.9-13.1 6-7.6 0.9-27.5 2.6-34.3 3.1-1.3 0.1-2.3 1.2-2.3 2.5v1.3l47.7-3.8q-1.3 1.1-2.7 2.1c-0.8 0.5-1.6 1-2.2 1.8q-0.4 0.5-0.6 1.2h-2.8v10.6h9.4v-10.6h-3q0.1-0.5 0.1-0.9z"/>
									</g>
								</g>
							</g>
						</g>
						<g id="&lt;Group&gt;">
							<path id="&lt;Path&gt;" class="s3" d="m152.6 278.1c4-4.6 0.5-10.6-3.5-15.3-3.9-4.6-9.5-7.7-13.8-12-9.9-10-11.7-25.1-15.8-38.5-1.4-4.6-3.3-9.4-7.1-12.4-4.3-3.4-10.1-4-15.6-4.1q-8.9-0.2-17.7 0.7c-3.2 0.3-6.6 0.8-9.2 2.8-2.7 2.1-4 5.6-4.4 9-0.4 3.4 0 6.8 0.2 10.2 0.5 9.1-0.7 18.2-0.4 27.3 0.2 9 2.1 18.5 7.9 25.5 4.9 5.9 12.2 9.5 19.7 11.3 7.4 1.8 15.2 2 22.9 2 8.1 0.1 17.3-2 25.3-2.9 4-0.4 8.8-0.6 11.5-3.6z"/>
						</g>
						<g id="&lt;Group&gt;">
							<path id="&lt;Path&gt;" class="s4" d="m148.2 271.8c3.6-4.1 0.5-9.5-3.1-13.7-3.5-4.2-8.5-6.9-12.4-10.8-8.9-9-10.5-22.5-14.2-34.6-1.3-4.1-3-8.4-6.4-11.1-3.8-3.1-9-3.6-13.9-3.7q-8-0.2-16 0.6c-2.9 0.3-5.9 0.8-8.2 2.6-2.5 1.9-3.7 5-4 8-0.4 3.1 0 6.1 0.2 9.2 0.5 8.1-0.6 16.3-0.4 24.5 0.2 8.1 1.9 16.6 7.1 22.9 4.4 5.4 11 8.6 17.7 10.2 6.7 1.6 13.7 1.7 20.6 1.8 7.2 0 15.5-1.8 22.7-2.6 3.6-0.4 7.9-0.5 10.3-3.3z"/>
						</g>
					</g>
					<g id="&lt;Group&gt;">
						<g id="&lt;Group&gt;">
							<g id="&lt;Group&gt;">
								<g id="&lt;Group&gt;">
									<path id="&lt;Path&gt;" class="s5" d="m153 137.6c-8.3-8.5-6.1-12.4-6.8-18.8l-11.6-2.8c-0.9 9.8-4.1 18.5-5 27.5 6.1-2.9 17.4-3.1 23.4-5.9z"/>
								</g>
							</g>
							<g id="&lt;Group&gt;">
								<g id="&lt;Group&gt;">
									<path id="&lt;Path&gt;" class="s6" d="m146.8 128.8c-0.9-3.1-0.2-7-0.6-10l-10.8-1.2q0.3 1.9 0.4 3.7c2.9 4.2 6.2 7 11 7.5z"/>
								</g>
							</g>
						</g>
						<g id="&lt;Group&gt;">
							<g id="&lt;Group&gt;">
								<g id="&lt;Group&gt;">
									<path id="&lt;Path&gt;" class="s5" d="m138 100.6c1.3-1.9 2.8-3.7 4.8-4.7 1.9-1 4.2-1.2 6.3-0.8 2.1 0.4 4.1 1.3 5.9 2.4 2.3 1.5 5.1 3.1 5.6 5.8 0.8 3.4 1.4 4.7-0.3 7.3-0.2 0.5-0.6 1.4-0.6 1.9-0.1 0.6-0.2 1.1 0 1.6 0.5 1.4 0 2.6-1.1 4.7-0.6 1.2-0.4 0.9-1.8 3.1-0.6 1-0.7 1.3-1 2.1-0.3 0.8-0.7 1.6-1.5 2-0.7 0.4-1.6 0.3-2.5 0.1-5.7-1.2-10.6-5.1-13.7-10-1.9-2.9-3.2-6.4-2.6-9.9 0.4-2 1.4-3.9 2.5-5.6z"/>
								</g>
							</g>
							<g id="&lt;Group&gt;">
								<g id="&lt;Group&gt;">
									<path id="&lt;Path&gt;" class="s6" d="m161.4 107.8c0-1.3-0.3-2.5-0.8-4.5-0.5-2.7-3.3-4.3-5.6-5.8-1.8-1.1-3.8-2-5.9-2.4-2.1-0.4-4.4-0.2-6.3 0.8-2 1-3.5 2.8-4.8 4.7-1.1 1.7-2.1 3.6-2.5 5.6-0.6 3.5 0.7 7 2.6 9.9 2.1 3.3 5 6.2 8.5 8 2.6-7.1 7-13.2 14.8-16.3z"/>
								</g>
							</g>
							<g id="&lt;Group&gt;">
								<g id="&lt;Group&gt;">
									<path id="&lt;Path&gt;" class="s2" d="m143.6 125.3c2.6-2.5 3.3-6.5 3.5-10.2q0-0.7 0.1-1.5 0.9-0.1 1.9-0.3c6.1-1.2 11.7-5.1 14.6-10.6 0.9-1.8 0.9-0.9 1.3-5.4-6.8-2.3-11.2-4-18-6.2-1.5-0.5-3.1-1-4.7-1.2 0 0-1.2-0.1-1.6 0.1-2.7 0.2-5 2-6.7 4.1q-1.7 1.3-3.2 2.9l-7.1 19.3c3.7 5.3 15 5.5 19.9 9z"/>
								</g>
							</g>
							<g id="&lt;Group&gt;">
								<path id="&lt;Path&gt;" class="s7" d="m154.8 98.7c2.3 0.8 4.8 1.5 7.1 1-0.8 2.7-2.8 5.1-5.4 6.5 0.9-1.3 1.6-2.6 1.9-4.1-0.7 0.8-1.6 1.5-2.6 1.9q0.4-1 0.8-2c-0.8-0.2-1.7 0-2.4 0.3 0.1-0.7-0.5-1.4-1.3-1.7-0.7-0.2-1.5 0-2.3 0.1 0.6-0.2 0.5-1.2 0-1.5-0.6-0.4-1.3-0.3-1.9-0.2-0.6 0.1-1.3 0.2-1.8-0.2-0.4-0.1-0.6-0.5-0.9-0.7-0.9-0.7-2.2-0.5-3.3-0.3 0.2-0.1 0.2-0.5-0.1-0.7-0.2-0.2-0.6-0.2-0.9-0.2q-2.2 0.1-4.3 0.1 1.9-1.4 3.8-2.9c1.2 1.2 3.1 1.6 4.6 0.8 0.5 1 1.7 1.5 2.7 1.8q3.2 1 6.3 2z"/>
							</g>
						</g>
					</g>
					<g id="&lt;Group&gt;">
						<g id="&lt;Group&gt;">
							<g id="&lt;Group&gt;">
								<path id="&lt;Compound Path&gt;" fill-rule="evenodd" class="s2" d="m339.6 335.5l-0.3-1.2c6.9-2 10.7-9.2 11.5-15.3 0.9-7.1-1.3-14.2-3.6-20.2q-0.8-2.2-1.7-4.5c-2-4.9-4.1-10.1-5.1-15.5-0.1-0.6-0.2-1.4-0.2-2.2-3.3-1.2-6.2-4.2-7.6-8.1-1.5-4.3-1.1-9.1-0.6-12.8 1.3-9.8 4.4-19.3 9.1-28q0.6-1.1 1.2-2.2c2.6-4.5 5.2-9.2 5-14.2-0.2-6.7-5.3-11.9-9.9-14.6-5.5-3.2-11.8-4.4-18-5.6l0.3-1.2c6.2 1.2 12.6 2.4 18.3 5.7 6.3 3.7 10.3 9.7 10.5 15.6 0.2 5.4-2.5 10.2-5.1 14.9q-0.6 1.1-1.2 2.2c-4.7 8.6-7.7 17.9-9 27.6-0.5 3.8-0.8 8.2 0.6 12.3 1.2 3.4 3.6 6 6.4 7.2 0.1-1 0.4-2 1.1-2.8 0.8-1.1 2.4-1.6 3.8-1.2 1.1 0.2 1.8 1 2 2 0.2 0.8 0 1.6-0.7 2.3-1 1.1-2.8 1.6-4.4 1.4q-0.3-0.1-0.6-0.1 0.1 0.8 0.2 1.6c1 5.3 3 10.4 5 15.3q0.9 2.2 1.8 4.5c2.3 6.1 4.5 13.4 3.6 20.7-0.8 6.6-5 14.2-12.4 16.4zm1.8-59.8q0.4 0.1 0.8 0.2c1.2 0.2 2.6-0.3 3.3-1q0.6-0.6 0.5-1.3c-0.2-0.7-0.8-1-1.2-1-0.9-0.3-2 0.1-2.6 0.7-0.5 0.7-0.7 1.6-0.8 2.4z"/>
							</g>
							<g id="&lt;Group&gt;">
								<path id="&lt;Path&gt;" class="s2" d="m344.1 350.2l-0.5-1.1c5.6-2.2 10.8-4.6 13.2-9.3 2.4-4.6 1.3-10 0.2-15.3-4.3-21.7-5.9-43.8-4.9-65.9 0.1-3.3 0.3-6.6 0.5-10 0.6-8.5 1.1-17.3 0.6-26-0.8-13.8-4.4-25.1-10.7-33.5l0.9-0.8c6.5 8.7 10.2 20.2 11 34.3 0.5 8.7 0 17.5-0.6 26.1q-0.3 5-0.5 10c-1 21.9 0.6 44 4.9 65.5 1 5.3 2.2 11.2-0.3 16.2-2.6 5.1-8 7.5-13.8 9.8z"/>
							</g>
							<g id="&lt;Group&gt;">
								<g id="&lt;Group&gt;">
									<path id="&lt;Path&gt;" class="s8" d="m310.4 291.5c0-3.7 3-6.7 6.7-6.7h27c3.7 0 6.7 3 6.7 6.7v73.5c0 3.7-3 6.7-6.7 6.7h-27c-3.7 0-6.7-3-6.7-6.7z"/>
								</g>
								<g id="&lt;Group&gt;">
									<g id="&lt;Group&gt;">
										<path id="&lt;Path&gt;" class="s2" d="m331.1 341.2c-1.5 0-2.7-1.2-2.7-2.6 0-1.5 1.2-2.7 2.7-2.7 1.5 0 2.7 1.2 2.7 2.7 0 1.4-1.2 2.6-2.7 2.6z"/>
									</g>
									<g id="&lt;Group&gt;">
										<path id="&lt;Path&gt;" class="s2" d="m331.1 352.6c-1.5 0-2.7-1.2-2.7-2.7 0-1.5 1.2-2.7 2.7-2.7 1.5 0 2.7 1.2 2.7 2.7 0 1.5-1.2 2.7-2.7 2.7z"/>
									</g>
									<g id="&lt;Group&gt;">
										<path id="&lt;Path&gt;" class="s2" d="m331.1 363.9c-1.5 0-2.7-1.2-2.7-2.7 0-1.5 1.2-2.7 2.7-2.7 1.5 0 2.7 1.2 2.7 2.7 0 1.5-1.2 2.7-2.7 2.7z"/>
									</g>
								</g>
								<g id="&lt;Group&gt;">
									<path id="&lt;Path&gt;" class="s2" d="m315 307.9h32.6v8.9h-32.6z"/>
								</g>
								<g id="&lt;Group&gt;">
									<path id="&lt;Path&gt;" class="s2" d="m315 322h32.6v8.8h-32.6z"/>
								</g>
							</g>
						</g>
						<g id="&lt;Group&gt;">
							<g id="&lt;Group&gt;">
								<path id="&lt;Path&gt;" class="s2" d="m267.1 214.7h104.7v5.6h-104.7z"/>
							</g>
							<g id="&lt;Group&gt;">
								<g id="&lt;Group&gt;">
									<g id="&lt;Group&gt;">
										<path id="&lt;Path&gt;" class="s2" d="m231.1 128.5h127.2v69.6h-127.2z"/>
									</g>
									<g id="&lt;Group&gt;">
										<path id="&lt;Path&gt;" class="s2" d="m292.5 196.6h4.7v19.6h-4.7z"/>
									</g>
									<g id="&lt;Group&gt;">
										<path id="&lt;Path&gt;" class="s0" d="m234.4 132.8h120.6v60.9h-120.6z"/>
									</g>
								</g>
								<g id="&lt;Group&gt;">
									<g id="&lt;Group&gt;">
										<g id="&lt;Group&gt;">
											<g id="&lt;Group&gt;">
												<g id="&lt;Group&gt;">
													<path id="&lt;Path&gt;" class="s9" d="m242 161h97.8v28.2h-97.8z"/>
												</g>
												<g id="&lt;Group&gt;">
													<path id="&lt;Path&gt;" class="s2" d="m321.3 168.3c0-1.8 1.4-3.2 3.2-3.2h8.1c1.7 0 3.1 1.4 3.1 3.2v13.7c0 1.7-1.4 3.1-3.1 3.1h-8.1c-1.8 0-3.2-1.4-3.2-3.1z"/>
												</g>
											</g>
											<g id="&lt;Group&gt;">
												<g id="&lt;Group&gt;">
													<path id="&lt;Path&gt;" class="s10" d="m244.6 163.7h5.2v4h-5.2z"/>
												</g>
												<g id="&lt;Group&gt;">
													<path id="&lt;Path&gt;" class="s10" d="m251.5 163.7h5.2v4h-5.2z"/>
												</g>
												<g id="&lt;Group&gt;">
													<path id="&lt;Path&gt;" class="s10" d="m258.4 163.7h5.2v4h-5.2z"/>
												</g>
												<g id="&lt;Group&gt;">
													<path id="&lt;Path&gt;" class="s10" d="m265.3 163.7h5.2v4h-5.2z"/>
												</g>
												<g id="&lt;Group&gt;">
													<path id="&lt;Path&gt;" class="s10" d="m272.2 163.7h5.2v4h-5.2z"/>
												</g>
												<g id="&lt;Group&gt;">
													<path id="&lt;Path&gt;" class="s10" d="m279.1 163.7h5.2v4h-5.2z"/>
												</g>
												<g id="&lt;Group&gt;">
													<path id="&lt;Path&gt;" class="s10" d="m286 163.7h5.2v4h-5.2z"/>
												</g>
												<g id="&lt;Group&gt;">
													<path id="&lt;Path&gt;" class="s10" d="m292.9 163.7h5.2v4h-5.2z"/>
												</g>
												<g id="&lt;Group&gt;">
													<path id="&lt;Path&gt;" class="s10" d="m299.8 163.7h5.2v4h-5.2z"/>
												</g>
												<g id="&lt;Group&gt;">
													<path id="&lt;Path&gt;" class="s10" d="m306.7 163.7h5.2v4h-5.2z"/>
												</g>
											</g>
											<g id="&lt;Group&gt;">
												<g id="&lt;Group&gt;">
													<path id="&lt;Path&gt;" class="s11" d="m244.6 169.5h5.2v4.1h-5.2z"/>
												</g>
												<g id="&lt;Group&gt;">
													<path id="&lt;Path&gt;" class="s11" d="m251.5 169.5h5.2v4.1h-5.2z"/>
												</g>
												<g id="&lt;Group&gt;">
													<path id="&lt;Path&gt;" class="s11" d="m258.4 169.5h5.2v4.1h-5.2z"/>
												</g>
												<g id="&lt;Group&gt;">
													<path id="&lt;Path&gt;" class="s11" d="m265.3 169.5h5.2v4.1h-5.2z"/>
												</g>
												<g id="&lt;Group&gt;">
													<path id="&lt;Path&gt;" class="s11" d="m272.2 169.5h5.2v4.1h-5.2z"/>
												</g>
												<g id="&lt;Group&gt;">
													<path id="&lt;Path&gt;" class="s11" d="m279.1 169.5h5.2v4.1h-5.2z"/>
												</g>
												<g id="&lt;Group&gt;">
													<path id="&lt;Path&gt;" class="s11" d="m286 169.5h5.2v4.1h-5.2z"/>
												</g>
												<g id="&lt;Group&gt;">
													<path id="&lt;Path&gt;" class="s11" d="m292.9 169.5h5.2v4.1h-5.2z"/>
												</g>
												<g id="&lt;Group&gt;">
													<path id="&lt;Path&gt;" class="s11" d="m299.8 169.5h5.2v4.1h-5.2z"/>
												</g>
												<g id="&lt;Group&gt;">
													<path id="&lt;Path&gt;" class="s11" d="m306.7 169.5h5.2v4.1h-5.2z"/>
												</g>
											</g>
											<g id="&lt;Group&gt;">
												<g id="&lt;Group&gt;">
													<path id="&lt;Path&gt;" class="s12" d="m244.6 175.4h5.2v4h-5.2z"/>
												</g>
												<g id="&lt;Group&gt;">
													<path id="&lt;Path&gt;" class="s12" d="m251.5 175.4h5.2v4h-5.2z"/>
												</g>
												<g id="&lt;Group&gt;">
													<path id="&lt;Path&gt;" class="s12" d="m258.4 175.4h5.2v4h-5.2z"/>
												</g>
												<g id="&lt;Group&gt;">
													<path id="&lt;Path&gt;" class="s12" d="m265.3 175.4h5.2v4h-5.2z"/>
												</g>
												<g id="&lt;Group&gt;">
													<path id="&lt;Path&gt;" class="s12" d="m272.2 175.4h5.2v4h-5.2z"/>
												</g>
												<g id="&lt;Group&gt;">
													<path id="&lt;Path&gt;" class="s12" d="m279.1 175.4h5.2v4h-5.2z"/>
												</g>
												<g id="&lt;Group&gt;">
													<path id="&lt;Path&gt;" class="s12" d="m286 175.4h5.2v4h-5.2z"/>
												</g>
												<g id="&lt;Group&gt;">
													<path id="&lt;Path&gt;" class="s12" d="m292.9 175.4h5.2v4h-5.2z"/>
												</g>
												<g id="&lt;Group&gt;">
													<path id="&lt;Path&gt;" class="s12" d="m299.8 175.4h5.2v4h-5.2z"/>
												</g>
												<g id="&lt;Group&gt;">
													<path id="&lt;Path&gt;" class="s12" d="m306.7 175.4h5.2v4h-5.2z"/>
												</g>
											</g>
											<g id="&lt;Group&gt;">
												<g id="&lt;Group&gt;">
													<path id="&lt;Path&gt;" class="s2" d="m244.6 181.2h5.2v4.1h-5.2z"/>
												</g>
												<g id="&lt;Group&gt;">
													<path id="&lt;Path&gt;" class="s2" d="m251.5 181.2h5.2v4.1h-5.2z"/>
												</g>
												<g id="&lt;Group&gt;">
													<path id="&lt;Path&gt;" class="s2" d="m258.4 181.2h5.2v4.1h-5.2z"/>
												</g>
												<g id="&lt;Group&gt;">
													<path id="&lt;Path&gt;" class="s2" d="m265.3 181.2h5.2v4.1h-5.2z"/>
												</g>
												<g id="&lt;Group&gt;">
													<path id="&lt;Path&gt;" class="s2" d="m272.2 181.2h5.2v4.1h-5.2z"/>
												</g>
												<g id="&lt;Group&gt;">
													<path id="&lt;Path&gt;" class="s2" d="m279.1 181.2h5.2v4.1h-5.2z"/>
												</g>
												<g id="&lt;Group&gt;">
													<path id="&lt;Path&gt;" class="s2" d="m286 181.2h5.2v4.1h-5.2z"/>
												</g>
												<g id="&lt;Group&gt;">
													<path id="&lt;Path&gt;" class="s2" d="m292.9 181.2h5.2v4.1h-5.2z"/>
												</g>
												<g id="&lt;Group&gt;">
													<path id="&lt;Path&gt;" class="s2" d="m299.8 181.2h5.2v4.1h-5.2z"/>
												</g>
												<g id="&lt;Group&gt;">
													<path id="&lt;Path&gt;" class="s2" d="m306.7 181.2h5.2v4.1h-5.2z"/>
												</g>
											</g>
										</g>
										<g id="&lt;Group&gt;">
											<path id="&lt;Path&gt;" class="s9" d="m328.6 172.8c-1.7 0-3-1.4-3-3 0-1.7 1.3-3 3-3 1.7 0 3 1.3 3 3 0 1.6-1.3 3-3 3z"/>
										</g>
									</g>
									<g id="&lt;Group&gt;">
										<g id="&lt;Group&gt;">
											<path id="&lt;Path&gt;" class="s9" d="m314.1 135.8h24.9v19.7h-24.9z"/>
										</g>
										<g id="&lt;Group&gt;">
											<path id="&lt;Path&gt;" class="s3" d="m314.1 135.8h24.9v2.7h-24.9z"/>
										</g>
										<g id="&lt;Group&gt;">
											<g id="&lt;Group&gt;">
												<g id="&lt;Group&gt;">
													<g id="&lt;Group&gt;">
														<path id="&lt;Path&gt;" class="s13" d="m317.5 141.4h13.6v0.8h-13.6z"/>
													</g>
												</g>
											</g>
											<g id="&lt;Group&gt;">
												<g id="&lt;Group&gt;">
													<g id="&lt;Group&gt;">
														<path id="&lt;Path&gt;" class="s14" d="m317.5 143.6h18.3v0.8h-18.3z"/>
													</g>
												</g>
											</g>
											<g id="&lt;Group&gt;">
												<g id="&lt;Group&gt;">
													<g id="&lt;Group&gt;">
														<path id="&lt;Path&gt;" class="s14" d="m323.8 145.8h13.2v0.8h-13.2z"/>
													</g>
												</g>
											</g>
											<g id="&lt;Group&gt;">
												<g id="&lt;Group&gt;">
													<g id="&lt;Group&gt;">
														<path id="&lt;Path&gt;" class="s15" d="m322.3 145.8h-4.8v0.8h4.8z"/>
													</g>
												</g>
											</g>
											<g id="&lt;Group&gt;">
												<g id="&lt;Group&gt;">
													<g id="&lt;Group&gt;">
														<path id="&lt;Path&gt;" class="s14" d="m317.5 148h19.5v0.9h-19.5z"/>
													</g>
												</g>
											</g>
											<g id="&lt;Group&gt;">
												<g id="&lt;Group&gt;">
													<g id="&lt;Group&gt;">
														<path id="&lt;Path&gt;" class="s14" d="m317.5 150.2h19.5v0.9h-19.5z"/>
													</g>
												</g>
											</g>
										</g>
									</g>
									<g id="&lt;Group&gt;">
										<g id="&lt;Group&gt;">
											<path id="&lt;Path&gt;" class="s9" d="m246.1 136h63.6v13.8h-63.6z"/>
										</g>
										<g id="&lt;Group&gt;">
											<path id="&lt;Path&gt;" class="s3" d="m246.1 133.9h63.6v2.1h-63.6z"/>
										</g>
										<g id="&lt;Group&gt;">
											<g id="&lt;Group&gt;">
												<path id="&lt;Compound Path&gt;" fill-rule="evenodd" class="s8" d="m249.7 137.9h10v10h-10zm0.6 9.4h8.8v-8.8h-8.8z"/>
											</g>
											<g id="&lt;Group&gt;">
												<g id="&lt;Group&gt;">
													<path id="&lt;Compound Path&gt;" fill-rule="evenodd" class="s8" d="m262.1 137.9h27.8v3.3h-27.8zm0.6 2.7h26.6v-2.1h-26.6z"/>
												</g>
												<g id="&lt;Group&gt;">
													<path id="&lt;Compound Path&gt;" fill-rule="evenodd" class="s8" d="m262.1 141.3h27.8v3.2h-27.8zm0.6 2.7h26.6v-2.1h-26.6z"/>
												</g>
												<g id="&lt;Group&gt;">
													<path id="&lt;Compound Path&gt;" fill-rule="evenodd" class="s8" d="m262.1 144.6h27.8v3.3h-27.8zm0.6 2.7h26.6v-2.1h-26.6z"/>
												</g>
											</g>
										</g>
									</g>
									<g id="&lt;Group&gt;">
										<g id="&lt;Group&gt;">
											<g id="&lt;Group&gt;">
												<path id="&lt;Path&gt;" class="s9" d="m342 136.3h10.7v47.7h-10.7z"/>
											</g>
											<g id="&lt;Group&gt;">
												<path id="&lt;Path&gt;" class="s3" d="m342 136.3h10.7v2.6h-10.7z"/>
											</g>
										</g>
										<g id="&lt;Group&gt;">
											<g id="&lt;Group&gt;">
												<g id="&lt;Group&gt;">
													<path id="&lt;Compound Path&gt;" fill-rule="evenodd" class="s8" d="m343.1 140h3.5v3.6h-3.5zm0.6 2.9h2.3v-2.3h-2.3z"/>
												</g>
												<g id="&lt;Group&gt;">
													<path id="&lt;Compound Path&gt;" fill-rule="evenodd" class="s8" d="m343.1 144.7h3.5v3.5h-3.5zm0.6 2.9h2.3v-2.3h-2.3z"/>
												</g>
												<g id="&lt;Group&gt;">
													<path id="&lt;Compound Path&gt;" fill-rule="evenodd" class="s8" d="m343.1 149.3h3.5v3.5h-3.5zm0.6 2.9h2.3v-2.3h-2.3z"/>
												</g>
												<g id="&lt;Group&gt;">
													<path id="&lt;Compound Path&gt;" fill-rule="evenodd" class="s8" d="m343.1 154h3.5v3.5h-3.5zm0.6 2.9h2.3v-2.3h-2.3z"/>
												</g>
												<g id="&lt;Group&gt;">
													<path id="&lt;Compound Path&gt;" fill-rule="evenodd" class="s8" d="m343.1 158.6h3.5v3.5h-3.5zm0.6 2.9h2.3v-2.3h-2.3z"/>
												</g>
												<g id="&lt;Group&gt;">
													<path id="&lt;Compound Path&gt;" fill-rule="evenodd" class="s8" d="m343.1 163.2h3.5v3.5h-3.5zm0.6 3h2.3v-2.3h-2.3z"/>
												</g>
											</g>
											<g id="&lt;Group&gt;">
												<g id="&lt;Group&gt;">
													<path id="&lt;Compound Path&gt;" fill-rule="evenodd" class="s8" d="m347.9 140h3.6v3.6h-3.6zm0.6 2.9h2.4v-2.3h-2.4z"/>
												</g>
												<g id="&lt;Group&gt;">
													<path id="&lt;Compound Path&gt;" fill-rule="evenodd" class="s8" d="m347.9 144.7h3.6v3.5h-3.6zm0.6 2.9h2.4v-2.3h-2.4z"/>
												</g>
												<g id="&lt;Group&gt;">
													<path id="&lt;Compound Path&gt;" fill-rule="evenodd" class="s8" d="m347.9 149.3h3.6v3.5h-3.6zm0.6 2.9h2.4v-2.3h-2.4z"/>
												</g>
												<g id="&lt;Group&gt;">
													<path id="&lt;Compound Path&gt;" fill-rule="evenodd" class="s8" d="m347.9 154h3.6v3.5h-3.6zm0.6 2.9h2.4v-2.3h-2.4z"/>
												</g>
												<g id="&lt;Group&gt;">
													<path id="&lt;Compound Path&gt;" fill-rule="evenodd" class="s8" d="m347.9 158.6h3.6v3.5h-3.6zm0.6 2.9h2.4v-2.3h-2.4z"/>
												</g>
												<g id="&lt;Group&gt;">
													<path id="&lt;Compound Path&gt;" fill-rule="evenodd" class="s8" d="m347.9 163.2h3.6v3.5h-3.6zm0.6 3h2.4v-2.3h-2.4z"/>
												</g>
											</g>
										</g>
									</g>
								</g>
							</g>
						</g>
						<g id="&lt;Group&gt;">
							<g id="&lt;Group&gt;">
								<path id="&lt;Path&gt;" class="s2" d="m188.8 221.5h196.9v14.4h-196.9z"/>
							</g>
							<g id="&lt;Group&gt;">
								<path id="&lt;Path&gt;" class="s13" d="m185.2 219.3h206.5v5.3h-206.5z"/>
							</g>
							<g id="&lt;Group&gt;">
								<g id="&lt;Group&gt;">
									<path id="&lt;Path&gt;" class="s2" d="m194.2 229h2.5v158.6h-2.5z"/>
								</g>
								<g id="&lt;Group&gt;">
									<path id="&lt;Path&gt;" class="s2" d="m376.6 229h2.4v158.6h-2.4z"/>
								</g>
							</g>
							<g id="&lt;Group&gt;">
								<g id="&lt;Group&gt;">
									<path id="&lt;Path&gt;" class="s2" d="m205.5 229h2.1v139.3h-2.1z"/>
								</g>
								<g id="&lt;Group&gt;">
									<path id="&lt;Path&gt;" class="s2" d="m365.6 229h2.2v139.3h-2.2z"/>
								</g>
							</g>
						</g>
					</g>
					<g id="&lt;Group&gt;">
						<g id="&lt;Group&gt;">
							<path id="&lt;Path&gt;" class="s2" d="m243.6 219c-1.2-3.7-3.5-4.7-7.4-6-4.2-1.3-10.2-2.9-13.5 0-1.8 1.5-3.2 3.6-3.4 6z"/>
						</g>
						<g id="&lt;Group&gt;">
							<path id="&lt;Path&gt;" class="s3" d="m229.9 213.6c-1.9-0.1-3.8-0.1-5.6 0.6-1.8 0.7-3.4 2.2-3.6 4q11-0.1 22.1-0.2c-0.4-1.1-1.3-2-2.4-2.5-1-0.6-2.2-0.8-3.3-1.1q-3.6-0.6-7.2-0.8z"/>
						</g>
					</g>
					<g id="&lt;Group&gt;">
						<g id="&lt;Group&gt;">
							<g id="&lt;Group&gt;">
								<g id="&lt;Group&gt;">
									<g id="&lt;Group&gt;">
										<path id="&lt;Path&gt;" class="s16" d="m177.9 375.6c-3.5-0.7-7.1-1.6-9.8-3.4-4.2-2.8-5.8-8.2-6.4-13.3-3.5 0.3-7.5 1-11 1.3 1.4 4.6 3.2 9.7 2.7 14.5 7.9 2.8 17 4.7 24.5 0.9z"/>
									</g>
								</g>
								<g id="&lt;Group&gt;">
									<g id="&lt;Group&gt;">
										<path id="&lt;Path&gt;" class="s2" d="m185.7 377.4c-0.6-0.5-1.4-0.6-2.1-0.8-1.8-0.3-3.8-0.6-5.7-1-7.5 3.8-16.6 1.9-24.5-0.9q-0.1 1.1-0.4 2.3c-0.4 1.6 0 3.4 1.1 4.4 1.2 1 3.1 0.6 4.7 0.6 8.6 0.2 17.8 2.6 26-1.4 0.6-0.3 1.3-0.6 1.5-1.2 0.4-0.8 0-1.6-0.6-2z"/>
									</g>
								</g>
							</g>
							<g id="&lt;Group&gt;">
								<g id="&lt;Group&gt;">
									<path id="&lt;Path&gt;" class="s7" d="m159.4 210.4h-35c-1.4 2.5-2.4 5.2-3.1 7.9-2.4 9-2.2 18.2-0.5 27 1.9 9.2 11 18.6 17.4 46.9 1.5 6.7 1.5 14.4 2.8 23.4 2.6 18.8 9.3 35.1 8.5 54.7 5.1-1.8 11.9-3.2 17.2-3-4.4-27.1-4.3-52-5.2-78.1-0.6-16.7-3.5-34.3-2.4-52.1 0.5-8.9 1.2-18 0.3-26.7z"/>
								</g>
							</g>
							<g id="&lt;Group&gt;">
								<path id="&lt;Path&gt;" class="s2" d="m156 368c-2-25.1-6-50.2-11.8-74.6l0.6-0.2c5.8 24.5 9.8 49.7 11.8 74.7z"/>
							</g>
							<g id="&lt;Group&gt;">
								<g id="&lt;Group&gt;">
									<path id="&lt;Path&gt;" class="s2" d="m159.1 237.1c0.5-8.9 1.2-18 0.3-26.7h-35c-1.4 2.5-2.4 5.2-3.1 7.9-2.4 9-2.2 18.2-0.5 27 1.9 9.2 11 18.6 17.4 46.9 1.4 6.3 1.5 13.4 2.5 21.7 3.4-22.2 10.7-39.6 15.4-59.6 0.9-3 2.5-9 3-17.2z"/>
								</g>
							</g>
							<g id="&lt;Group&gt;">
								<g id="&lt;Group&gt;">
									<path id="&lt;Path&gt;" class="s2" d="m166.7 367.3c-4.4-27.1-4.3-52-5.2-78.1-0.6-16.7-3.5-34.3-2.4-52.1 0.5-8.9 1.2-18 0.3-26.7h-5.1c-0.5 52.8 9.1 104.4 7.6 156.9 2.8-0.4 2.4-0.1 4.8 0z"/>
								</g>
							</g>
						</g>
						<g id="&lt;Group&gt;">
							<g id="&lt;Group&gt;">
								<g id="&lt;Group&gt;">
									<g id="&lt;Group&gt;">
										<path id="&lt;Path&gt;" class="s16" d="m118.3 385.8c-2.6-3.1-4.1-7.2-4.5-11.3-0.5-5.6 2.7-10.8 4.5-16.2-3.2-0.7-7.6-2.4-10.9-3.1-0.6 6.8-3.5 13.8-7 19.7 1.4 3.7 2.8 5.2 5.5 7.9 4.2 2.8 8.4 3.6 12.4 3z"/>
									</g>
								</g>
								<g id="&lt;Group&gt;">
									<g id="&lt;Group&gt;">
										<path id="&lt;Path&gt;" class="s2" d="m121.6 388.8c-1.2-0.9-2.3-1.9-3.3-3-4 0.6-8.2-0.2-12.4-3-2.7-2.7-4.1-4.2-5.5-7.9q-0.4 0.7-0.9 1.3c-0.9 1.5-2 3.1-1.6 4.8 0.4 1.9 2.4 3 3.8 4.4 1.7 1.7 2.5 4 4.1 5.8 1.8 2 4.6 2.9 7.3 3.1 2.7 0.2 5.4-0.3 8.1-0.9 1.1-0.2 2.4-0.5 2.6-1.6 0.4-1.3-1.1-2.3-2.2-3z"/>
									</g>
								</g>
							</g>
							<g id="&lt;Group&gt;">
								<g id="&lt;Group&gt;">
									<path id="&lt;Path&gt;" class="s7" d="m126.6 205.8c0.7 5.9-6.5 19-6.3 24.8 1.8 49-2.9 88.8-16 136.4 4.6 4.3 10.5 4.3 15.6 5.3 13.3-39.7 30.4-82.3 37.2-123.6 2.2-13.8 0.9-23.4-0.4-39.7z"/>
								</g>
							</g>
							<g id="&lt;Group&gt;">
								<path id="&lt;Path&gt;" class="s2" d="m107.8 368.6l-0.6-0.2c15.1-45.4 24.6-92.7 28.4-140.4l0.6 0.1c-3.8 47.7-13.3 95-28.4 140.5z"/>
							</g>
							<g id="&lt;Group&gt;">
								<g id="&lt;Group&gt;">
									<path id="&lt;Path&gt;" class="s2" d="m158 225.3c-0.3-4.9-0.8-10.1-1.3-16.3l-30.1-3.2c0.6 4.9-4.4 15-5.9 21.5 12.8 2.9 25.5 2 37.3-2z"/>
								</g>
							</g>
							<g id="&lt;Group&gt;">
								<g id="&lt;Group&gt;">
									<path id="&lt;Path&gt;" class="s2" d="m156.7 209l-2.5-0.3c-2.8 55.2-17.8 111.1-40.5 162.6 2.1 0.4 4.2 0.6 6.2 1 13.3-39.7 30.4-82.3 37.2-123.6 2.2-13.8 0.9-23.4-0.4-39.7z"/>
								</g>
							</g>
						</g>
						<g id="&lt;Group&gt;">
							<g id="&lt;Group&gt;">
								<path id="&lt;Path&gt;" class="s6" d="m194.9 218c2.6 1 5.5 1.1 8.3 1.3-1.2 1.1-2.8 1.5-4.5 1.6-1.6 0-3.2-0.3-4.8-0.6-1.6-0.3-3.2-0.5-4.8-0.2q1.2-0.7 2.4-1.3z"/>
							</g>
							<g id="&lt;Group&gt;">
								<path id="&lt;Path&gt;" class="s5" d="m201.1 217.5c-0.4-0.3-1-0.3-1.5-0.4-6-0.3-12.1-1.6-16.9-5.1-0.9-1.2-2.6-3.6-3.4-4.8-1.7 2.5-3 4.3-5.7 5.6 2.1 1.4 4.3 3 5.6 4.6 0.2 0.8 1.5 1.7 2 2.5 1.1 1.5 2 1.7 3.8 1.2 3-0.8 3.9-0.5 5.7-0.9 3.1-0.6 4.3-1.7 7.4-1.3 0.6 0.1 3.6 0 3.9-0.4 0.3-0.5-0.4-0.7-0.9-1z"/>
							</g>
							<g id="&lt;Group&gt;">
								<path id="&lt;Path&gt;" class="s6" d="m186.4 220.5c-0.8 0.2-1.7 0.3-2.5 0.3-0.8 0-1.7-0.3-2.3-0.9 0.5 0.2 1 0.1 1.4-0.1 0.5-0.3 0.9-0.6 1.3-0.8 1.3-0.8 2.9-0.7 4.4-0.4 1.4 0.2 2.9 0.7 4.4 0.5q-3.4 0.7-6.7 1.4z"/>
							</g>
							<g id="&lt;Group&gt;">
								<path id="&lt;Path&gt;" class="s3" d="m179.9 207.7c-11.2-15.6-19.1-33.5-22.7-52.3-0.7-3.5-1.2-7.2-2.5-10.6-1.3-3.4-3.4-6.6-6.5-8.5-3.2-1.8-7.4-2-10.3 0.2-2.6 2.1-3.6 5.5-4 8.8-0.7 6 0.3 12.1 1.9 17.9 5.5 20.3 19.2 33.4 34.2 47.7 0.8 0.7 2.2 1.7 3.2 2.5 2.8-1.3 4.9-3.2 6.7-5.7z"/>
							</g>
							<g id="&lt;Group&gt;">
								<path id="&lt;Path&gt;" class="s4" d="m137.9 136.5c-2.6 2.1-3.6 5.5-4 8.8-0.7 6 0.3 12.1 1.9 17.9 5.5 20.3 19.2 33.4 34.2 47.7 0.8 0.7 2.2 1.7 3.2 2.5 0.9-0.5 1.7-1 2.6-1.6-19.3-21.3-29.4-48.1-35.3-76.5-0.9 0.2-1.8 0.6-2.6 1.2z"/>
							</g>
							<g id="&lt;Group&gt;">
								<path id="&lt;Path&gt;" class="s2" d="m172.1 212.8l-0.2-0.5c2.8-1.2 5.3-3.3 7.1-5.9l0.5 0.3c-1.8 2.7-4.4 4.9-7.4 6.1z"/>
							</g>
						</g>
						<g id="&lt;Group&gt;">
							<g id="&lt;Group&gt;">
								<g id="&lt;Group&gt;">
									<path id="&lt;Path&gt;" class="s3" d="m141.3 128.1c-1.1-0.1-2.3-0.1-3.6 0.1-3.6 0.3-6 2.3-8.3 5-2.3 2.8-6.6 13.4-6 16.9 2.2 12.1 3.5 19.9 3.2 32.2-0.3 12.3-8 16.3-10.9 40.7 11.1 5.8 30.4 3.6 45.2-2.4-0.7-22-3.9-29.7 2.2-43.2 2.1-4.8 4.9-9.6 4.7-14.7-0.2-7.6-6.5-13.6-9.9-20.6-6-4.1-11.6-8.7-16.6-14z"/>
								</g>
							</g>
							<g id="&lt;Group&gt;">
								<g id="&lt;Group&gt;">
									<path id="&lt;Path&gt;" class="s4" d="m133.8 143.1c-1.2 18.6 13.6 32.8 25.8 48.1 0.2-4.5 1.2-8.8 3.5-13.8 2.1-4.8 4.9-9.6 4.7-14.7-0.1-7.3-5.9-13.1-9.4-19.6z"/>
								</g>
							</g>
							<g id="&lt;Group&gt;">
								<path id="&lt;Path&gt;" class="s2" d="m133.7 150.3c1.7 5.2 6.1 8.3 9.9 12.3 5.5 5.8 9 9.9 16.8 17.4 0.6-1.7 0.9-2 1.6-3.6-11-9.1-21.2-19.1-30.4-30q0.6 1 1.3 1.9z"/>
							</g>
							<g id="&lt;Group&gt;">
								<path id="&lt;Path&gt;" class="s2" d="m130 226.8c-1.9-4.1-1.7-8.7-1.3-12.4 0.8-8.1 3.1-16.1 5.3-23.9q0.9-3 1.7-6c2.6-9.5 4.9-19.8 3.7-30.1l0.6-0.1c1.2 10.4-1.1 20.8-3.7 30.4q-0.8 3-1.7 6c-2.2 7.7-4.5 15.7-5.3 23.8-0.4 3.5-0.6 8.1 1.3 12z"/>
							</g>
							<g id="&lt;Group&gt;">
								<g id="&lt;Group&gt;">
									<path id="&lt;Path&gt;" class="s4" d="m157.4 141.8c4.1 6.8 8.2 13.6 6.6 18.3-8.9 27.2-5.2 39.6-6.1 61.5q1.5-0.4 3-1c-0.7-22-3.9-29.7 2.2-43.2 2.1-4.8 4.9-9.6 4.7-14.7-0.2-7.6-6.5-13.6-9.9-20.6q-0.2-0.2-0.5-0.3z"/>
								</g>
							</g>
						</g>
						<g id="&lt;Group&gt;">
							<g id="&lt;Group&gt;">
								<g id="&lt;Group&gt;">
									<g id="&lt;Group&gt;">
										<path id="&lt;Path&gt;" class="s6" d="m215.3 210.9q1 1 2.1 1.9c0.3 0.3 0.7 0.7 0.6 1.1-0.2 0.2-0.5 0.4-0.8 0.4-0.3 0-0.5-0.2-0.8-0.3-2.4-1-5-1.4-7.6-1.1 1.6-1.2 4.5-1.6 6.5-2z"/>
									</g>
								</g>
								<g id="&lt;Group&gt;">
									<g id="&lt;Group&gt;">
										<path id="&lt;Path&gt;" class="s6" d="m210.1 210c0.1-0.2 0.2-0.3 0.3-0.4 1.5-1.2 3.5-1.6 5.4-1.4 1.9 0.3 3.6 1 5.3 1.8 1.8 0.8 3.5 1.6 5.3 2-0.3 1.1-1.9 0.8-2.9 0.7-1-0.1-2-0.5-3-0.8-2.8-0.9-5.8-1.5-8.7-1.1-0.4 0.1-0.8 0.2-1.1 0-0.4-0.1-0.7-0.5-0.6-0.8z"/>
									</g>
								</g>
								<g id="&lt;Group&gt;">
									<g id="&lt;Group&gt;">
										<path id="&lt;Path&gt;" class="s5" d="m228.3 209.4c0 1.9-5.4 0.7-8.5 1.3-4.6 0.8-5.8 2.3-11.3 2.9-2.1 0.3-4-1-4.9-2.8-2.2-4.3-6.3-7.5-10.4-10.2-5-3.2-10.4-6.6-12.9-12 4.7-1.3 9.8-1.9 13.6 1.3 3.8 3.1 7.9 8.4 11.6 11.6 6.7 6 16.6 6.1 22.8 7.9z"/>
									</g>
								</g>
								<g id="&lt;Group&gt;">
									<g id="&lt;Group&gt;">
										<path id="&lt;Path&gt;" class="s3" d="m201.3 196.2c-1.8 1.8-5 4.9-6 7.2-23.9-14.7-44.6-34.1-63.1-55.2-1.7-1.8-3.4-3.8-3.8-6.3-0.4-2.9 1.1-5.9 3.4-7.7 2.3-1.8 5.3-2.6 8.2-2.9 2.5-0.3 5.2-0.2 7.5 0.9 3.2 1.5 5.2 4.5 7.2 7.5 13.5 20.1 29.3 39.3 46.6 56.5z"/>
									</g>
								</g>
								<g id="&lt;Group&gt;">
									<g id="&lt;Group&gt;">
										<path id="&lt;Path&gt;" class="s4" d="m200.9 196.6q0.2-0.2 0.4-0.4c-17.3-17.2-33.1-36.4-46.6-56.5-2-3-4-6-7.2-7.5-0.9-0.4-1.8-0.6-2.8-0.8q4.1 5.3 8 10.9c13.4 20.2 28 40 48.2 54.3z"/>
									</g>
								</g>
							</g>
							<path id="&lt;Path&gt;" class="s2" d="m194.3 202.6l-0.4-0.3c1.8-2.6 4-5.1 6.2-7.4l0.4 0.5c-2.2 2.2-4.3 4.7-6.2 7.2z"/>
						</g>
					</g>
					<g id="&lt;Group&gt;">
						<g id="&lt;Group&gt;">
							<path id="&lt;Path&gt;" class="s9" d="m224.6 218.5h96.3v34.2h-96.3z"/>
						</g>
						<g id="&lt;Group&gt;">
							<path id="&lt;Path&gt;" class="s2" d="m232.1 218.5h2.8v23.8h-2.8z"/>
						</g>
						<g id="&lt;Group&gt;">
							<path id="&lt;Path&gt;" class="s12" d="m239.9 218.5h2.9v23.8h-2.9z"/>
						</g>
						<g id="&lt;Group&gt;">
							<path id="&lt;Path&gt;" class="s11" d="m247.8 218.5h2.8v23.8h-2.8z"/>
						</g>
						<g id="&lt;Group&gt;">
							<path id="&lt;Path&gt;" class="s10" d="m255.6 218.5h2.9v23.8h-2.9z"/>
						</g>
						<g id="&lt;Group&gt;">
							<g id="&lt;Group&gt;">
								<path id="&lt;Path&gt;" class="s2" d="m277.4 219.9h6.2v5.3h-6.2z"/>
							</g>
							<g id="&lt;Group&gt;">
								<path id="&lt;Path&gt;" class="s12" d="m287.7 219.9h6.3v5.3h-6.3z"/>
							</g>
							<g id="&lt;Group&gt;">
								<path id="&lt;Path&gt;" class="s11" d="m298.1 219.9h6.2v5.3h-6.2z"/>
							</g>
							<g id="&lt;Group&gt;">
								<path id="&lt;Path&gt;" class="s10" d="m308.5 219.9h6.2v5.3h-6.2z"/>
							</g>
						</g>
						<g id="&lt;Group&gt;">
							<path id="&lt;Path&gt;" class="s2" d="m317.8 243.7h-46.5v-25.6h1.2v24.4h44.1v-24.4h1.2z"/>
						</g>
					</g>
				</g>
			</g>
		</g>
	</g>
</svg>