<svg version="1.2" xmlns="http://www.w3.org/2000/svg" viewBox="0 0 500 500" width="500" height="500">
	<title>5197431-ai</title>
	<style>
		.s0 { fill: #a6afb4 } 
		.s1 { fill: #ddcabc } 
		.s2 { fill: #3e6665 } 
		.s3 { fill: #2f3044 } 
		.s4 { fill: #daa520 } 
		.s5 { fill: #f4e7b0 } 
		.s6 { fill: #46baeb } 
		.s7 { fill: #e8e9eb } 
		.s8 { fill: #dc8456 } 
		.s9 { fill: #e0cc75 } 
		.s10 { fill: #ff998b } 
		.s11 { fill: #f27e72 } 
		.s12 { fill: #ffffff } 
		.s13 { fill: #45667c } 
		.s14 { fill: #00a0b3 } 
		.s15 { fill: #fffdf5 } 
	</style>
	<g id="Objects">
		<g id="&lt;Group&gt;">
			<g id="&lt;Group&gt;">
				<g id="&lt;Group&gt;">
					<g id="&lt;Group&gt;">
						<path id="&lt;Path&gt;" class="s0" d="m264.3 409.3c-130.4 0-235.7-16.3-235.7-36.4 0-20.2 105.3-36.5 235.7-36.5 130.3 0 235.7 16.3 235.7 36.5 0 20.1-105.4 36.4-235.7 36.4z"/>
					</g>
					<g id="&lt;Group&gt;">
						<path id="&lt;Path&gt;" class="s1" d="m442.3 165.8c-5.2-3.7-10.9-6.5-17.1-8.4-22.2-6.9-46.6-0.4-69.1-6.1-28.9-7.3-49.2-32.7-75.5-46.5-29.8-15.7-65.5-15.4-98.6-9.2-40.1 7.5-80.7 24.8-103.8 58.3-15.2 22-21.2 48.5-23.9 75.4v123h415.6v-131.9c0-21.6-9.9-42.3-27.6-54.6z"/>
					</g>
				</g>
				<g id="&lt;Group&gt;">
					<g id="&lt;Group&gt;">
						<g id="&lt;Group&gt;">
							<g id="&lt;Group&gt;">
								<g id="&lt;Group&gt;">
									<path id="&lt;Path&gt;" class="s2" d="m15.2 200.1h4.9v167h-4.9z"/>
								</g>
								<g id="&lt;Group&gt;">
									<path id="&lt;Path&gt;" class="s3" d="m5.3 362.5h33.8v5.7h-33.8z"/>
								</g>
							</g>
							<g id="&lt;Group&gt;">
								<g id="&lt;Group&gt;">
									<path id="&lt;Path&gt;" class="s3" d="m149.9 362.5h33.8v5.7h-33.8z"/>
								</g>
								<path id="&lt;Path&gt;" class="s2" d="m170.4 200.1h5v167h-5z"/>
							</g>
							<g id="&lt;Group&gt;">
								<g id="&lt;Group&gt;">
									<path id="&lt;Path&gt;" class="s3" d="m25.6 253.4h140.1v12h-140.1z"/>
								</g>
								<g id="&lt;Group&gt;">
									<path id="&lt;Path&gt;" class="s3" d="m19.4 258h152.5v2.8h-152.5z"/>
								</g>
							</g>
							<g id="&lt;Group&gt;">
								<g id="&lt;Group&gt;">
									<path id="&lt;Path&gt;" class="s3" d="m19.4 286.4h152.5v2.9h-152.5z"/>
								</g>
								<g id="&lt;Group&gt;">
									<path id="&lt;Path&gt;" class="s3" d="m25.6 281.5h140.1v12h-140.1z"/>
								</g>
							</g>
							<g id="&lt;Group&gt;">
								<g id="&lt;Group&gt;">
									<path id="&lt;Path&gt;" class="s3" d="m19.4 229.8h152.5v2.8h-152.5z"/>
								</g>
								<g id="&lt;Group&gt;">
									<path id="&lt;Path&gt;" class="s2" d="m165.7 247.1h-140.1c-3.2-10-3.6-19.5 0-28.4h140.1c3.1 8.8 2.9 18.3 0 28.4z"/>
								</g>
								<g id="&lt;Group&gt;">
									<path id="&lt;Path&gt;" class="s3" d="m145.7 218.7h-96.6c2.9 9.2 2.8 18.8 1.5 28.4h96.3c0.8-9.4 0.8-18.8-1.2-28.4z"/>
								</g>
							</g>
						</g>
						<g id="&lt;Group&gt;">
							<g id="&lt;Group&gt;">
								<g id="&lt;Group&gt;">
									<path id="&lt;Path&gt;" class="s3" d="m3.8 177.5h182.6v27.9h-182.6z"/>
								</g>
								<g id="&lt;Group&gt;">
									<path id="&lt;Path&gt;" class="s4" d="m3.8 198.8h182.6v6.6h-182.6z"/>
								</g>
								<g id="&lt;Group&gt;">
									<path id="&lt;Path&gt;" class="s2" d="m0 169h8.7v42.1h-8.7z"/>
								</g>
								<g id="&lt;Group&gt;">
									<path id="&lt;Path&gt;" class="s2" d="m181.8 169h8.7v42.1h-8.7z"/>
								</g>
								<g id="&lt;Group&gt;">
									<path id="&lt;Path&gt;" class="s4" d="m12.5 160.8h165.1v27.9h-165.1z"/>
								</g>
								<g id="&lt;Group&gt;">
									<path id="&lt;Path&gt;" class="s5" d="m12.5 160.8h165.1v8.9h-165.1z"/>
								</g>
								<g id="&lt;Group&gt;">
									<path id="&lt;Path&gt;" class="s5" d="m12.5 185.7h165.1v3h-165.1z"/>
								</g>
							</g>
							<g id="&lt;Group&gt;">
								<g id="&lt;Group&gt;">
									<path id="&lt;Path&gt;" class="s3" d="m171.6 164.7c0.9 4.9-2.2 8.8-7.1 8.8h-26.7c-4.9 0-9.7-3.9-10.6-8.8-1-4.9 2.1-8.8 7-8.8h26.8c4.8 0 9.6 3.9 10.6 8.8z"/>
								</g>
								<g id="&lt;Group&gt;">
									<path id="&lt;Path&gt;" class="s6" d="m166.7 169.9h-31.7l-2.2-11.2h31.7z"/>
								</g>
							</g>
						</g>
						<g id="&lt;Group&gt;">
							<g id="&lt;Group&gt;">
								<path id="&lt;Path&gt;" class="s7" d="m58.4 233.9c-1.1 16.1-4.1 32.3-2.2 48.3 0.8 6.4 2.4 12.9 6 18.3 2.1 3.1 4.9 5.9 8.2 7.8h85.8c-3.3-1.9-6.1-4.7-8.2-7.8-3.6-5.4-5.2-11.9-6-18.3-2-16 1.1-32.2 2.1-48.3 1-14.3 0-29.4-6.7-41.8h-85.8c6.7 12.4 7.7 27.5 6.8 41.8z"/>
							</g>
						</g>
					</g>
					<g id="&lt;Group&gt;">
						<g id="&lt;Group&gt;">
							<g id="&lt;Group&gt;">
								<g id="&lt;Group&gt;">
									<g id="&lt;Group&gt;">
										<g id="&lt;Group&gt;">
											<path id="&lt;Path&gt;" class="s3" d="m395.4 350.9c-2.8 0-5-2.3-5-5.1 0-2.7 2.2-5 5-5 2.8 0 5 2.3 5 5 0 2.8-2.2 5.1-5 5.1z"/>
										</g>
									</g>
								</g>
								<g id="&lt;Group&gt;">
									<g id="&lt;Group&gt;">
										<g id="&lt;Group&gt;">
											<path id="&lt;Path&gt;" class="s3" d="m303.8 350.9c-2.8 0-5-2.3-5-5.1 0-2.7 2.2-5 5-5 2.8 0 5 2.3 5 5 0 2.8-2.2 5.1-5 5.1z"/>
										</g>
									</g>
								</g>
								<g id="&lt;Group&gt;">
									<g id="&lt;Group&gt;">
										<g id="&lt;Group&gt;">
											<path id="&lt;Path&gt;" class="s3" d="m357.2 342.1c-3.3-0.5-6.4-1.9-8.8-4.1l-46.2 3.7v-1.1c0-1.2 0.8-2.1 2-2.2 5.9-0.5 23.3-1.9 30-2.7 8.1-1 11.4-5.3 11.4-5.3h1.1v-27.7h1v-39.8h4v39.8h1.1v27.7h1.1c0 0 3.3 4.3 11.4 5.3 6.7 0.8 24.1 2.2 30 2.7 1.2 0.1 2 1 2 2.2v1.1l-41.7-3.3q1.2 1 2.4 1.8c0.7 0.4 1.4 0.9 1.9 1.6q0.4 0.5 0.5 1h2.5v9.3h-8.2v-9.3h2.5q0-0.4 0-0.7z"/>
										</g>
									</g>
								</g>
							</g>
							<g id="&lt;Group&gt;">
								<g id="&lt;Group&gt;">
									<g id="&lt;Group&gt;">
										<path id="&lt;Path&gt;" class="s8" d="m371.2 263.8h-48.3c-5.6-2.3-9.9-7.1-10.4-12.9-0.6-6 2.3-12.1 5.6-17.7 3.4-5.6 7.3-11.1 9.1-17.2 1.9-6.6 1.3-14 5.9-19.7 4.2-5.1 12.3-7.4 18.3-5.2l5.2 0.2 11.1-0.2c6.5-2.2 14 0.1 17 5.2 3.4 5.7 2.2 10.3 1.6 19.7-0.4 6.1-1.2 11.1-0.6 17.2 0.7 7.1 1.8 12-0.2 18-1.9 5.7-8.1 10.3-14.3 12.6z"/>
									</g>
								</g>
							</g>
							<g id="&lt;Group&gt;">
								<g id="&lt;Group&gt;">
									<g id="&lt;Group&gt;">
										<path id="&lt;Path&gt;" class="s3" d="m369 258.8h-43.2c-5.1-2.2-8.9-6.6-9.4-12-0.6-5.6 2-11.3 5-16.6 3-5.2 6.5-10.3 8.1-15.9 1.8-6.2 1.2-13.1 5.4-18.4 3.7-4.8 10.9-6.9 16.3-4.9l4.7 0.3 9.9-0.3c5.8-2 12.6 0.1 15.2 4.9 3 5.3 1.9 9.6 1.4 18.4-0.3 5.7-1.1 10.3-0.5 15.9 0.6 6.7 1.6 11.2-0.2 16.8-1.6 5.4-7.2 9.6-12.7 11.8z"/>
									</g>
								</g>
							</g>
						</g>
						<g id="&lt;Group&gt;">
							<g id="&lt;Group&gt;">
								<g id="&lt;Group&gt;">
									<g id="&lt;Group&gt;">
										<g id="&lt;Group&gt;">
											<path id="&lt;Path&gt;" class="s9" d="m330.9 168.1q5.7-5.8 11-11.9c0.5-0.6 1.1-1.2 1.8-1.5 1.5-0.7 3.3 0.2 4.5 1.4 3.5 3.4 4.3 9.3 1.9 13.5-1.6 2.7-4.2 4.5-6.7 6.4q-0.9 0.7-1.7 1.5c-2.5-4.3-6.1-7.7-10.8-9.4z"/>
										</g>
									</g>
								</g>
								<g id="&lt;Group&gt;">
									<g id="&lt;Group&gt;">
										<g id="&lt;Group&gt;">
											<path id="&lt;Path&gt;" class="s10" d="m316 183.3c1.1-2 2.8-3.5 4.5-5.1 3.6-3.3 7.8-6.9 11.2-10.4 4.7 1.7 7.5 5.4 10 9.7q-4.7 3.8-8.8 8.1c-1.6 1.8-3.2 3.6-5.1 5-1.8 1.5-4.1 2.6-6.5 2.6-2.4 0-4.8-1.2-5.9-3.3-1-2.1-0.6-4.6 0.6-6.6z"/>
										</g>
									</g>
								</g>
								<g id="&lt;Group&gt;">
									<g id="&lt;Group&gt;">
										<g id="&lt;Group&gt;">
											<path id="&lt;Path&gt;" class="s3" d="m330.8 168.7q0.5-0.5 0.9-0.9c4.7 1.7 7.5 5.4 10 9.7q-4.7 3.8-8.8 8.1c-1.2 1.3-2.3 2.6-3.6 3.8 3.8-5.8 4.7-14.1 1.5-20.7z"/>
										</g>
									</g>
								</g>
								<g id="&lt;Group&gt;">
									<g id="&lt;Group&gt;">
										<path id="&lt;Path&gt;" class="s10" d="m331.9 134.2c-0.2-0.3-0.8-0.4-1.2-0.4-1.3 0.1-2.6 1.1-3 2.4-0.1 0.4-0.2 0.9-0.4 1.4-2.2-1.6-1.4-2.3-1.7-3.5 1.2-0.8 2.5-1.8 3.7-2.5 1.9-1.3 1.3-2.3 1.2-3.7-2.9 1.9-6 3.5-9.3 4.7-0.4 0.1-0.8 0.2-1.1 0.5-0.3 0.2-0.5 0.5-0.6 0.8q-0.4 1-1.4 1.4c-0.5 0.2-0.8 0.7-0.8 1.3 0.1 1.1-0.5 2.3-1.4 3-0.6 0.5-0.8 1.2-0.7 1.9q0.9 5.1 1.9 10.1c0.3 5.7-1 11.4-2.1 17-1.2 6-2.2 12.3-0.7 18.2 0.6 2.4 1.8 4.8 3.9 5.8 2.1 1.1 4.8 0.4 6.6-1.2 1.8-1.6 2.8-4 3.2-6.5 0.3-2.5 0.2-5 0-7.4-0.5-7.8-1.9-15.6-2.4-23.4l0.2-2.7c1-0.9 1.9-1.8 2.1-3.1 0.2-1.5-0.2-2.7-0.4-4.1 0.3-1 0.3-2.1 0.9-2.9 0.7-0.8 1.5-1.6 1.9-2.6 0.3-0.7 0.4-1.5 0.8-2.2 0.2-0.4 0.5-0.7 0.7-1.1 0.2-0.3 0.3-0.8 0.1-1.2z"/>
									</g>
								</g>
								<g id="&lt;Group&gt;">
									<g id="&lt;Group&gt;">
										<path id="&lt;Path&gt;" class="s11" d="m325.6 154.1l0.2-2.7c0.8-0.7 1.5-1.5 1.9-2.4-1.5 1.3-3.2 3.1-5.6 3.1 2.8 13.8 2.6 26.7-4.3 39.2q-0.2 0.4-0.4 0.8 0.3 0.3 0.8 0.5c2.1 1.1 4.8 0.4 6.6-1.2 1.8-1.6 2.8-4 3.2-6.5 0.3-2.5 0.2-5 0-7.4-0.5-7.8-1.9-15.6-2.4-23.4z"/>
									</g>
								</g>
								<g id="&lt;Group&gt;">
									<g id="&lt;Group&gt;">
										<path id="&lt;Path&gt;" class="s11" d="m319.7 146.5c-0.1-1.4-0.8-2.7-1.9-3.7 0.9 0.4 1.8 0.6 2.8 0.6-0.2 0.5-0.3 1-0.2 1.5 0.2 0.5 0.6 1 1.1 1 0.6 0 1.1-0.4 1-1 0.5 0.4 1.1 0.4 1.6 0.1 0.5-0.3 0.8-0.8 0.7-1.4 1.2-0.6 1.8-2.1 1.4-3.4 0.6 1.6 0.8 3.4 0.3 5.1-0.5 1.7-1.7 3.2-3.3 3.9-0.6 0.2-1.2 0.3-1.8 0.2-0.6-0.1-1.2-0.4-1.4-1-0.3-0.6-0.3-1.2-0.3-1.9z"/>
									</g>
								</g>
							</g>
							<g id="&lt;Group&gt;">
								<g id="&lt;Group&gt;">
									<g id="&lt;Group&gt;">
										<g id="&lt;Group&gt;">
											<g id="&lt;Group&gt;">
												<path id="&lt;Path&gt;" class="s5" d="m352.5 150.5c-5.1 0.9-10.9 5.6-12.7 10.4-2.1 5.5-5.3 9.6-6.3 18.7-0.4 3.8 0.5 7.5 2 11 2.9 6.6-1.4 22.4-5.3 29.4 12.8 0.2 30.3 1.1 43.1 1.3 2.6-18.9 14.7-41.8 13.5-61.4-0.1-2.5-1.7-4.8-4-5.7-9.7-3.7-20.7-5.3-30.3-3.7z"/>
											</g>
										</g>
									</g>
									<g id="&lt;Group&gt;">
										<g id="&lt;Group&gt;">
											<g id="&lt;Group&gt;">
												<path id="&lt;Path&gt;" class="s9" d="m362.5 177.5c-2.7 9.6-8.9 16.9-15.8 23.8-6.3 8-7 13.3-14.8 18.8 12.6 0.2 29.1 1.1 41.4 1.2 2.6-18.9 14.4-41.7 13.5-61.4 0-1.2-18.8 2-24.3 17.6z"/>
											</g>
										</g>
									</g>
									<g id="&lt;Group&gt;">
										<path id="&lt;Path&gt;" class="s3" d="m365.7 218.4h-0.6c0.1-4.5 0.8-9 2.2-13.2l0.5 0.1c-1.3 4.3-2 8.6-2.1 13.1z"/>
									</g>
									<g id="&lt;Group&gt;">
										<path id="&lt;Path&gt;" class="s3" d="m371.2 203.6c-4 3.3-7.8 4.4-12.6 6.3-8.3 3.3-18.7 6.9-27.6 6.9-0.6 0-1.2 0-1.5-0.5-0.3-0.8 0.6-1.5 1.5-1.7 3.8-1.2 7.8-2 11.7-3.1 16.8-4.7 31.7-16 40.7-31-3 8.3-5.4 17.5-12.2 23.1z"/>
									</g>
									<g id="&lt;Group&gt;">
										<path id="&lt;Path&gt;" class="s3" d="m366.5 189.6c1.3-2.3 1.6-5 1.8-7.6 0.5-5.1 1.1-8.5 1.6-13.6-4.1 6.9-3.8 13.9-8 20.7-2.2 3.6-5.5 6.3-8.8 8.9 2.6-0.8 5.2-1.6 7.6-2.9 2.4-1.2 4.6-3.1 5.8-5.5z"/>
									</g>
								</g>
								<g id="&lt;Group&gt;">
									<g id="&lt;Group&gt;">
										<path id="&lt;Path&gt;" class="s12" d="m350.8 162.8c-1.8 0-3.9-0.3-5.6-1.6-1.2-0.8-2.1-2.3-2.2-3.9-0.1-1.2 0.2-2.3 0.9-3.1 0.2-0.1 0.4-0.1 0.5 0 0.2 0.1 0.2 0.3 0 0.5-0.6 0.6-0.8 1.6-0.7 2.6 0.1 1.3 0.8 2.6 1.9 3.4 1.6 1.1 3.8 1.6 7 1.3 6.8-0.6 13.1-3.3 18.4-5.8 1-0.5 1.9-0.9 2.6-1.7 0.5-0.7 0.8-1.8 0.3-2.6-0.1-0.1 0-0.3 0.1-0.4 0.2-0.1 0.4-0.1 0.5 0.1 0.7 1.1 0.3 2.5-0.4 3.4-0.7 0.8-1.7 1.3-2.8 1.8-5.3 2.6-11.7 5.3-18.6 5.9q-0.9 0.1-1.9 0.1z"/>
									</g>
								</g>
							</g>
							<g id="&lt;Group&gt;">
								<g id="&lt;Group&gt;">
									<g id="&lt;Group&gt;">
										<g id="&lt;Group&gt;">
											<path id="&lt;Path&gt;" class="s3" d="m290 235.4c15.4-8.1 33.4-10.7 48.3-19.6h14.4c3.1 1.4 5.7 4.3 6.8 7.6 1.7 5.3 2.9 6.6 1.5 11.9-1 3.2-4 7.4-6.7 9.3-2.7 2.1-11.4 3.8-14.8 3.7-7.3 0-26.3 4.9-37.9 8.2-4.6 1.3-9.6 0.1-13-3.3-6.1-6-5.7-11.4 1.4-17.8z"/>
										</g>
									</g>
								</g>
								<g id="&lt;Group&gt;">
									<g id="&lt;Group&gt;">
										<g id="&lt;Group&gt;">
											<g id="&lt;Group&gt;">
												<g id="&lt;Group&gt;">
													<path id="&lt;Path&gt;" class="s10" d="m306.6 330.9c4.4 0.4 9 0.3 13.5-0.7-1.7 7.2-3.2 14.4-3.4 22.3q-6.3 0.3-12.6 0.6c1.7-7.3 2.4-14.7 2.5-22.2z"/>
												</g>
											</g>
										</g>
										<g id="&lt;Group&gt;">
											<g id="&lt;Group&gt;">
												<g id="&lt;Group&gt;">
													<g id="&lt;Group&gt;">
														<path id="&lt;Path&gt;" class="s12" d="m290.1 351.1c4-1.4 8.3-2 11.9-4q1.8-1 3.2-2.4c4.1 1.8 3.9 5 7.3 6.3 0.7 0.3 3.8-0.6 4.4-0.5-0.2 2.7 0.7 6.2 0.3 8.9h-31.1q-2.1-0.1-4.3-0.3c0.5-3.8 4.4-6.6 8.3-8z"/>
													</g>
												</g>
											</g>
										</g>
										<g id="&lt;Group&gt;">
											<g id="&lt;Group&gt;">
												<g id="&lt;Group&gt;">
													<path id="&lt;Path&gt;" class="s3" d="m281.4 358.4h36.4v2.2h-36.4z"/>
												</g>
											</g>
										</g>
									</g>
									<g id="&lt;Group&gt;">
										<g id="&lt;Group&gt;">
											<g id="&lt;Group&gt;">
												<g id="&lt;Group&gt;">
													<path id="&lt;Path&gt;" class="s13" d="m302.9 271.6c1.3-3.9 3.7-7.3 6.3-10.6 6.1-7.6 13.1-14.5 19-22.3 5.2-6.8 9.6-14.5 11.3-22.9h31.9c2.5 11.4-0.2 23.8-7.1 33.2-10.4 13.9-26.2 18.2-40.5 28.2 6.1 21.2 1.5 37.4-2.4 53.9-5.3 1.1-10.6 1.2-15.8 0.8 0.1-14.5-1.7-29.1-3.3-43.6-0.6-5.6-1.2-11.4 0.6-16.7z"/>
												</g>
											</g>
										</g>
										<g id="&lt;Group&gt;">
											<g id="&lt;Group&gt;">
												<path id="&lt;Path&gt;" class="s0" d="m317.6 331.5l-0.7-0.1 5.7-49.8c0.2-1.5 0.4-3.1 1-4.6 1.3-3.1 4.1-5.1 7.1-7l2.2-1.4c8.2-5.2 16.7-10.6 23.5-17.8 8.2-8.6 12.5-19.1 11.8-28.6h0.7c0.7 9.7-3.7 20.3-12 29.1-6.8 7.2-15.4 12.6-23.6 17.9l-2.2 1.4c-2.9 1.9-5.7 3.8-6.9 6.7-0.6 1.4-0.7 2.9-0.9 4.4z"/>
											</g>
										</g>
										<g id="&lt;Group&gt;">
											<g id="&lt;Group&gt;">
												<g id="&lt;Group&gt;">
													<path id="&lt;Path&gt;" class="s3" d="m302.9 271.6c1.3-3.9 3.7-7.3 6.3-10.6 3-3.7 6.2-7.3 9.4-10.8 5 4.5 12.3 5.5 16.3 12.5 1.3 2 2 4.2 2.3 6.4-4.4 2.5-9 5-13.4 8.1 1.2 4.2 2 8.2 2.5 12.1-0.3 0-0.5 0.2-0.7 0.2 0.2 0 0.4-0.2 0.7-0.2q0.3 3.1 0.4 6.1c-5-10.8-12.8-20.7-24.3-22.2q0.2-0.8 0.5-1.6z"/>
												</g>
											</g>
										</g>
									</g>
								</g>
								<g id="&lt;Group&gt;">
									<g id="&lt;Group&gt;">
										<g id="&lt;Group&gt;">
											<g id="&lt;Group&gt;">
												<g id="&lt;Group&gt;">
													<path id="&lt;Path&gt;" class="s10" d="m333.4 273.4c3.3 6 7.4 10.2 12.8 14.2-2.3 3-5.8 7.8-8.1 10.8-5.3-6.2-10.5-11.6-15.8-16.7 2.9-3.4 6.9-6.5 11.1-8.3z"/>
												</g>
											</g>
										</g>
										<g id="&lt;Group&gt;">
											<g id="&lt;Group&gt;">
												<g id="&lt;Group&gt;">
													<path id="&lt;Path&gt;" class="s13" d="m314.5 245.6c2.6 2.9 5 6 7.1 8.9 1.1 1.6 11.9 18.8 11.8 18.9-4.2 1.8-8.2 4.9-11.1 8.3-9.9-9.6-20.3-17.8-33-26.4-1.5-1.1-3.2-2.3-4-4-1.1-2.2-2.8-5.2-1.6-9.5 0.6-2.4 2.8-4.5 4.9-5.7q0.7-0.4 1.4-0.7c1.9-1 6.5-0.1 8.5 0.3 2.6 0.5 5 1.4 7.3 2.7 3.1 1.8 6 4.4 8.7 7.2z"/>
												</g>
											</g>
										</g>
										<g id="&lt;Group&gt;">
											<g id="&lt;Group&gt;">
												<path id="&lt;Path&gt;" class="s0" d="m330.8 273.4c-9.1-15.6-22.2-28.7-37.8-37.9l0.4-0.6c15.7 9.2 28.8 22.4 38 38.2z"/>
											</g>
										</g>
									</g>
									<g id="&lt;Group&gt;">
										<g id="&lt;Group&gt;">
											<g id="&lt;Group&gt;">
												<path id="&lt;Path&gt;" class="s3" d="m354.7 296.1c-3.5 8.5-9 16.3-16.2 22.1-0.5 0.4-1 0.7-1.6 0.8-1.2 0.2-2.2-0.8-3-1.7 8-7.4 14.5-16.3 19.1-26.2 1-0.2 2.1 0.7 2.3 1.8 0.2 1.1-0.2 2.2-0.6 3.2z"/>
											</g>
										</g>
									</g>
									<g id="&lt;Group&gt;">
										<g id="&lt;Group&gt;">
											<g id="&lt;Group&gt;">
												<path id="&lt;Path&gt;" class="s12" d="m344.6 289.8c-0.8 1.9-6.9-1.7-8.7-0.6-2.4 1.4-4.5 2.2-4.4 5 0 1.6 1 3.1 1.5 4.6 0.7 2.2 0.4 4.6-0.1 6.8-0.5 2.2-1.1 4.4-1 6.7 0.2 2.3 1.3 4.6 3.4 5.5 8.5-7 15.2-16.2 19.1-26.5-7.7-6.2-8.6-4.7-9.8-1.5z"/>
											</g>
										</g>
									</g>
								</g>
							</g>
						</g>
						<g id="&lt;Group&gt;">
							<g id="&lt;Group&gt;">
								<g id="&lt;Group&gt;">
									<path id="&lt;Path&gt;" class="s0" d="m280.4 205.9h-0.4z"/>
								</g>
							</g>
						</g>
						<g id="&lt;Group&gt;">
							<g id="&lt;Group&gt;">
								<g id="&lt;Group&gt;">
									<path id="&lt;Path&gt;" class="s10" d="m349.7 117.2c-0.1-0.1 0.1-0.1 0 0z"/>
								</g>
							</g>
						</g>
						<g id="&lt;Group&gt;">
							<g id="&lt;Group&gt;">
								<g id="&lt;Group&gt;">
									<g id="&lt;Group&gt;">
										<path id="&lt;Path&gt;" class="s10" d="m345.6 154.5c1.1-1.1 2.7-1.7 4.2-2.2 1-0.3 1.6-1 2.6-1.2 2-5 3.2-10.5 3.3-15.9q4.1-0.2 8.2-0.4l1.5 1.3c-0.2 4.8 0.3 9.7 1.4 14.5q3 0.6 5.9 1.9c-0.2 1.6-1.8 2.6-3.2 3.4-6.5 3.4-13.9 5.8-21.2 4.6-1.5-0.3-3.1-0.9-3.8-2.2-0.7-1.4 0-2.7 1.1-3.8z"/>
									</g>
								</g>
								<g id="&lt;Group&gt;">
									<g id="&lt;Group&gt;">
										<path id="&lt;Path&gt;" class="s11" d="m346.8 156.7c-1 0 0.2-2.1 1.4-3.8-1 0.4-1.9 0.9-2.6 1.6-1.1 1.1-1.8 2.4-1.1 3.8 0.7 1.3 2.3 1.9 3.8 2.2 4.8 0.8 9.7 0 14.4-1.6-5.3 0.9-10.6 0.8-15.9-2.2z"/>
									</g>
								</g>
								<g id="&lt;Group&gt;">
									<g id="&lt;Group&gt;">
										<path id="&lt;Path&gt;" class="s11" d="m352.3 155.3c5.7 0 10.5-2.3 14.2-6-0.9-4.3-1.3-8.8-1.1-13.2l-1.5-1.3q-4.1 0.2-8.2 0.4c-0.1 5.4-1.3 10.9-3.3 15.9-0.6 0.1-1 0.4-1.4 0.6 0 1.5 0.1 3.6 1.3 3.6z"/>
									</g>
								</g>
								<g id="&lt;Group&gt;">
									<g id="&lt;Group&gt;">
										<g id="&lt;Group&gt;">
											<path id="&lt;Path&gt;" class="s3" d="m363.9 134.8l1.5 1.3q-0.1 2.8 0.1 5.7c-3.5 4.7-8.2 8.7-13.6 10.2 2.4-5.3 3.7-11 3.8-16.8q4.1-0.2 8.2-0.4z"/>
										</g>
									</g>
								</g>
							</g>
							<g id="&lt;Group&gt;">
								<g id="&lt;Group&gt;">
									<g id="&lt;Group&gt;">
										<g id="&lt;Group&gt;">
											<g id="&lt;Group&gt;">
												<path id="&lt;Path&gt;" class="s3" d="m366.3 109.2c-0.2 0.2-0.3 0.4-0.5 0.6-0.5 0.4-1.2 0.4-1.7 0.7-0.6 0.3-1 1-1.1 1.6-0.2 0.7-0.1 1.4 0 2.1 2.2 1.4 4 3.5 5.8 5.4 1.8 2.1 3.8 4.4 4.1 7.2 2.5-2.5 4-6.2 3.6-9.8-0.3-3.6-2.6-7-6-8.4-0.4-0.2-1-0.3-1.5-0.2-0.4 0.1-0.9 0.6-0.8 1.1-0.6-0.3-1.3-0.6-1.9-0.3z"/>
											</g>
										</g>
									</g>
									<g id="&lt;Group&gt;">
										<g id="&lt;Group&gt;">
											<g id="&lt;Group&gt;">
												<path id="&lt;Path&gt;" class="s3" d="m345.9 118.1c2-3.7 6.8-5.7 10.9-6.5 5.1-0.9 10.6 1.3 13.8 5.4 3.2 4.1 4 9.9 2.2 14.8-1.8 4.9-6.1 8.7-11.1 10-3.2 0.9-7.1 0.6-9.2-1.9-2.5-3-1.7-8-4.6-10.7-1.1-0.9-2.6-1.5-3-2.9-0.4-0.9-1-2.4-0.7-3.4 0.5-1.6 0.9-3.3 1.7-4.8z"/>
											</g>
										</g>
									</g>
									<g id="&lt;Group&gt;">
										<g id="&lt;Group&gt;">
											<g id="&lt;Group&gt;">
												<path id="&lt;Path&gt;" class="s10" d="m346 131.2c0 1.9-0.1 1-0.4 2.8-0.2 1.2 0.2 3 0.7 4.1 1.2 2.8 2.3 4.9 4 7.4 0.7 0.9 1.5 1.9 2.6 2.2 1.1 0.3 3.1-0.1 4-0.6 6.7-3.2 11.2-9.5 12-16.8 0.3-2.8 0-5.7-1.6-8.1-1.7-2.5-4.6-3.9-7.5-4.8-2.2-0.7-4.4-1.1-6.7-0.9-2.2 0.3-4.4 1.2-5.9 2.9-1.5 1.7-3 6.7-2.2 8.7 0.5 1.3 1 2.4 1 3.1z"/>
											</g>
										</g>
									</g>
									<g id="&lt;Group&gt;">
										<g id="&lt;Group&gt;">
											<g id="&lt;Group&gt;">
												<path id="&lt;Path&gt;" class="s11" d="m367.3 122.2c-1.7-2.5-4.6-3.9-7.5-4.8-2.2-0.7-4.4-1.1-6.7-0.9-2.2 0.3-4.4 1.2-5.9 2.9-0.4 0.4-0.7 0.9-1 1.6 3.1 5.6 9.1 7.1 11.7 10.9 2.7 5.5 1.8 12.2-2.4 15.7 0.6-0.2 1.1-0.3 1.4-0.5 6.7-3.2 11.2-9.5 12-16.8 0.3-2.8 0-5.7-1.6-8.1z"/>
											</g>
										</g>
									</g>
									<g id="&lt;Group&gt;">
										<g id="&lt;Group&gt;">
											<g id="&lt;Group&gt;">
												<path id="&lt;Path&gt;" class="s14" d="m365.5 113.2c4.4 2.4 7.6 6.8 8.4 11.8 0.3-2 0.2-4-0.5-5.9-0.8-2-2.4-2.2-3.5-3.5-1.6-2-3.3-1.7-4.4-2.4z"/>
											</g>
										</g>
									</g>
									<g id="&lt;Group&gt;">
										<g id="&lt;Group&gt;">
											<path id="&lt;Compound Path&gt;" fill-rule="evenodd" class="s3" d="m372.2 130.4c-0.3 1.9-1.4 3.7-2.4 5.3-1.6 2.5-2.1 4.9-4.7 6.1 0-2-0.6-4-1.3-5.9-0.1 1.1-0.6 2.3-1.5 3.1-0.8 0.8-1.9 1.4-2.1 2.5-0.2 1.1 0.6 2.1 1.4 2.9-0.7-0.6-1.4-1.2-1.8-2-0.4-0.8-0.4-1.9 0.3-2.6 0.4-0.3 0.9-0.5 1.3-0.8 1-0.9 1.1-2.5 0.7-3.7-0.8-2.3-2.6-4-4.5-5.4-1.9-1.4-4-2.5-5.8-4.1-0.6-0.6-1.3-1.3-1.6-2.2q-1.5-1.2-2.8-2.7c-0.3-0.5-0.7-1-0.7-1.6 0-0.7 0.5-1.3 1-1.8 2.9-2.8 6.9-4.6 10.8-4 3.8 0.5 7.6 2.7 9.6 6 0.7 1.3 1.2 2.7 1.4 4.1q1 0.9 1.6 1.9c0.9 1.5 1.3 3.2 1.1 4.9zm-10.1 1.2c-0.5-1-1.1-1.9-1.7-2.9q-0.8-0.2-1.5-0.5c0.8 1.3 2.1 2.2 3.2 3.4z"/>
										</g>
									</g>
									<g id="&lt;Group&gt;">
										<g id="&lt;Group&gt;">
											<path id="&lt;Path&gt;" class="s13" d="m354.4 120.3c1.3 3 4.3 5.4 7.6 5.9q-1.2-1-2.3-2.1c1 0.6 2.3 0.9 3.5 0.7q-0.4-0.4-0.7-0.8c1.8-0.5 3.9 0.2 5.1 1.7 0.2-1.4-0.4-2.9-1.5-3.7 0.6-0.1 1.2 0 1.7 0.2q0-0.4 0-0.8 0.8 0.2 1.5 0.4-0.6-1-1.1-2c0.8 0 1.6 0.2 2.4 0.6-0.8-1.9-2.2-3.5-3.9-4.5 0.5 0.6 0.5 1.4 0.1 2.1-0.3 0.7-0.8 1.2-1.4 1.7-0.4 0.4-1 0.8-1.5 0.6-0.3-0.2-0.4-0.4-0.7-0.4-0.4-0.1-0.7 0.4-0.9 0.8-0.2 0.3-0.5 0.8-0.9 0.8-0.4 0-0.6-0.3-0.9-0.5-0.3-0.2-0.8-0.3-1 0 0 0.1 0 0.2 0 0.4-0.1 0.4-0.7 0.6-1.1 0.5-0.4-0.1-0.8-0.4-1.2-0.5-0.5-0.2-1-0.1-1.2 0.2z"/>
										</g>
									</g>
								</g>
							</g>
						</g>
						<g id="&lt;Group&gt;">
							<g id="&lt;Group&gt;">
								<g id="&lt;Group&gt;">
									<g id="&lt;Group&gt;">
										<g id="&lt;Group&gt;">
											<g id="&lt;Group&gt;">
												<path id="&lt;Path&gt;" class="s2" d="m425.1 368.7h3.2l-15.9-149h-3.2z"/>
											</g>
										</g>
									</g>
								</g>
								<g id="&lt;Group&gt;">
									<g id="&lt;Group&gt;">
										<g id="&lt;Group&gt;">
											<path id="&lt;Path&gt;" class="s2" d="m415.2 363.5h3.1l-15.3-143.8h-3.1z"/>
										</g>
									</g>
								</g>
							</g>
							<g id="&lt;Group&gt;">
								<g id="&lt;Group&gt;">
									<g id="&lt;Group&gt;">
										<g id="&lt;Group&gt;">
											<g id="&lt;Group&gt;">
												<path id="&lt;Path&gt;" class="s2" d="m205 368.7h-3.2l15.8-149h3.2z"/>
											</g>
										</g>
									</g>
								</g>
								<g id="&lt;Group&gt;">
									<g id="&lt;Group&gt;">
										<g id="&lt;Group&gt;">
											<path id="&lt;Path&gt;" class="s2" d="m214.8 363.5h-3.1l15.3-143.8h3.1z"/>
										</g>
									</g>
								</g>
							</g>
							<g id="&lt;Group&gt;">
								<g id="&lt;Group&gt;">
									<g id="&lt;Group&gt;">
										<path id="&lt;Path&gt;" class="s2" d="m414.2 253.4l0.8-1.1-43.2-32.4-0.8 1z"/>
									</g>
								</g>
							</g>
							<g id="&lt;Group&gt;">
								<g id="&lt;Group&gt;">
									<g id="&lt;Group&gt;">
										<path id="&lt;Path&gt;" class="s2" d="m215.7 253.4l43.3-32.5-0.8-1-43.3 32.4z"/>
									</g>
								</g>
							</g>
							<g id="&lt;Group&gt;">
								<g id="&lt;Group&gt;">
									<g id="&lt;Group&gt;">
										<path id="&lt;Path&gt;" class="s15" d="m180.7 216.5h267.7v6.2h-267.7z"/>
									</g>
								</g>
							</g>
						</g>
						<g id="&lt;Group&gt;">
							<g id="&lt;Group&gt;">
								<g id="&lt;Group&gt;">
									<g id="&lt;Group&gt;">
										<g id="&lt;Group&gt;">
											<path id="&lt;Path&gt;" class="s5" d="m368.9 170.5c0.4-2.3 1-4.6 1.6-6.9 1-3.3 3.5-7.8 6.9-9.2 2.8-1.1 6.4-0.4 8.5 1.5 2.2 2 3.5 5.8 3.5 8.5 0 2.7-0.8 5.4-1.7 7.9q-0.8 2.1-1.7 4.1c-4.6-3.8-10.4-6-17.1-5.9z"/>
										</g>
									</g>
								</g>
								<g id="&lt;Group&gt;">
									<g id="&lt;Group&gt;">
										<path id="&lt;Path&gt;" class="s10" d="m321.3 206.9c0.9-0.6 1.8-1.2 2.8-1.3 1.1-0.1 2.1 0.4 3 0.7q1.9 0.8 3.9 1.2c9.5-4.3 17.9-9 27.4-13.3 1.8-0.8 3.5-1.6 4.9-2.9 1.7-1.8 1.8-4.7 2.4-7 1.4-4.7 2.2-9.2 3.2-13.8 6.7-0.1 12.5 2.1 17.1 5.9-2.6 6.2-5.9 12.1-9.3 18-1.8 3-3.6 6.1-6.5 8.3-2.4 2-5.5 3.3-8.6 4.4-8.9 3.3-18.1 5.8-27.5 7.6q-0.8 0.5-1.7 0.8c-1.5 0.5-3.1 0.7-4.6 0.9-1.3 0.2-2.9 0.1-3.5-0.9q-3 0-6 0.1-2.3 0-4.6 0c1.9-3.4 4.5-6.4 7.6-8.7z"/>
									</g>
								</g>
								<g id="&lt;Group&gt;">
									<g id="&lt;Group&gt;">
										<path id="&lt;Path&gt;" class="s11" d="m384.3 175.1c-8.9 27.9-38.9 34.4-66.5 39.6q-1.3 0.3-2.5 0.9 1.5 0 3 0 3-0.1 6-0.1c0.6 1 2.2 1.1 3.5 0.9 1.5-0.2 3.1-0.4 4.6-0.9q0.9-0.3 1.7-0.8c9.4-1.8 18.6-4.3 27.5-7.6 3.1-1.1 6.2-2.4 8.6-4.4 2.9-2.2 4.7-5.3 6.5-8.3 3.4-5.9 6.7-11.8 9.3-18q-0.8-0.7-1.7-1.3z"/>
									</g>
								</g>
							</g>
							<g id="&lt;Group&gt;">
								<g id="&lt;Group&gt;">
									<path id="&lt;Path&gt;" class="s12" d="m386.5 174.9c-5.1-3.4-11.4-5.3-17.6-5.4v-0.6c6.3 0 12.7 1.9 18 5.4z"/>
								</g>
							</g>
						</g>
					</g>
					<g id="&lt;Group&gt;">
						<g id="&lt;Group&gt;">
							<g id="&lt;Group&gt;">
								<path id="&lt;Path&gt;" class="s2" d="m222.1 299c0-2.9 2.2-5.2 5.1-5.2h24.4c2.8 0 5.1 2.3 5.1 5.2v63c0 2.8-2.3 5.1-5.1 5.1h-24.4c-2.9 0-5.1-2.3-5.1-5.1z"/>
							</g>
							<g id="&lt;Group&gt;">
								<path id="&lt;Path&gt;" class="s3" d="m225.4 297.4h26.9v8.3h-26.9z"/>
							</g>
							<g id="&lt;Group&gt;">
								<path id="&lt;Path&gt;" class="s3" d="m225.4 307.7h26.9v8.3h-26.9z"/>
							</g>
							<g id="&lt;Group&gt;">
								<path id="&lt;Path&gt;" class="s3" d="m225.4 347.4h26.9v8.3h-26.9z"/>
							</g>
						</g>
						<g id="&lt;Group&gt;">
							<g id="&lt;Group&gt;">
								<g id="&lt;Group&gt;">
									<path id="&lt;Path&gt;" class="s3" d="m208.8 134.6h102.3v67h-102.3z"/>
								</g>
								<g id="&lt;Group&gt;">
									<path id="&lt;Path&gt;" class="s2" d="m205 134.6h102.3v67h-102.3z"/>
								</g>
							</g>
							<g id="&lt;Group&gt;">
								<path id="&lt;Path&gt;" class="s3" d="m234.6 171.7c0-1.4 1.1-2.6 2.6-2.6h30.3c1.4 0 2.6 1.2 2.6 2.6v12.3c0 1.4-1.2 2.6-2.6 2.6h-30.3c-1.5 0-2.6-1.2-2.6-2.6z"/>
							</g>
							<g id="&lt;Group&gt;">
								<path id="&lt;Path&gt;" class="s3" d="m251.3 214.5c-1.5-6.4 0.8-13 3-19.2 2.3-6.3 4.7-13 3.1-19.5-1.8-0.1-6.9 0-8.7-0.1 1.5 1.1 2.1 3 2.1 4.8 0 1.8-0.6 3.6-1.3 5.2-1.9 4.7-4.5 9-6.6 13.6-2.1 4.6-3.7 9.6-3.4 14.6q0 0.3 0 0.6h-22v1.5h79.3v-1.5z"/>
							</g>
							<g id="&lt;Group&gt;">
								<path id="&lt;Path&gt;" class="s3" d="m224.1 358.3c-3.3 0-6.6-1.2-9.1-3.4-3.1-2.7-4.8-6.6-4.8-10.7v-115.3c0.4-4.5 2.7-8.8 6.3-11.5q0.4-0.3 0.9-0.7c0.8-0.6 1.7-1.1 2.2-1.9 1.1-1.6 1-3.8 0.8-6.1l-1.2-13.6c-0.4-4.2-0.6-9 2.4-12.2 3.3-3.7 8.8-3.6 14.2-2.8l-0.3 1.7c-4.9-0.7-9.9-0.9-12.7 2.2-2.4 2.7-2.3 6.9-1.9 11l1.2 13.6c0.3 2.6 0.4 5.2-1.1 7.2-0.7 1-1.7 1.7-2.6 2.3q-0.5 0.3-0.9 0.6c-3.2 2.4-5.3 6.3-5.6 10.3v115.2c0 3.6 1.5 7 4.2 9.4 2.6 2.3 6.1 3.4 9.5 2.9 1.1-0.1 2.9-1.4 4.5-2.7 1.8-1.3 3.5-2.6 4.9-2.8l0.3 1.7c-1 0.1-2.6 1.4-4.2 2.5-1.9 1.5-3.8 2.9-5.3 3q-0.8 0.1-1.7 0.1z"/>
							</g>
							<g id="&lt;Group&gt;">
								<path id="&lt;Compound Path&gt;" fill-rule="evenodd" class="s3" d="m241.1 354c-2.6-1-3.4-4.3-2.9-7 0.1-0.8 0.3-1.5 0.4-2.3 0.4-1.5 0.8-3 0.5-4.4-0.3-2.6-2.6-4.6-4.4-5.8-0.9-0.6-1.8-1.1-2.8-1.6-1.4-0.8-2.9-1.6-4.3-2.7-5.5-4.4-7.8-12.7-6.2-22.1 0.7-3.8 1.9-7.6 3.1-11.2 1.1-3.7 2.3-7.4 3-11.2 0.8-4.6 0.5-10.6-2.4-14.6q-0.9 0.7-1.8 1.3c-1.2 0.8-2.9 1.8-5 1.8q0 0 0 0c-1.9 0-4-1.1-4.6-3.2-0.6-2.3 1.1-4.5 3.1-5.2 2.4-0.8 4.7 0.2 5.9 0.8q1.5 0.9 2.6 2.1c5.7-5.5 8.9-14.7 8.8-25.4-0.1-5.5-1-11-1.8-16.4-0.7-5.1-1.5-10.4-1.7-15.6-0.4-13.1 3.8-23.9 11.6-29.6l1 1.4c-10.4 7.6-11.1 22.2-10.9 28.1 0.2 5.2 1 10.4 1.7 15.5 0.8 5.4 1.7 11 1.8 16.6 0.2 11.2-3.3 20.8-9.4 26.7 3.2 4.4 3.6 10.9 2.7 16-0.6 3.9-1.9 7.7-3 11.4-1.2 3.6-2.3 7.3-3 11-1.6 8.8 0.5 16.4 5.6 20.5 1.2 1 2.6 1.7 4 2.5 1 0.6 2 1.1 2.9 1.7 2.1 1.4 4.7 3.7 5.2 6.9 0.3 1.8-0.1 3.5-0.5 5.1q-0.3 1.1-0.5 2.2c-0.3 2 0.2 4.4 1.9 5.1zm-22.4-86.8q-0.7 0-1.3 0.2c-1.3 0.5-2.4 1.9-2 3.2 0.3 1.2 1.7 1.9 2.9 1.9 1.3 0 2.5-0.5 4.1-1.5q0.8-0.6 1.6-1.2-0.9-1-2.1-1.7c-1.1-0.6-2.2-0.9-3.2-0.9z"/>
							</g>
						</g>
					</g>
				</g>
			</g>
		</g>
	</g>
</svg>